SplineFontDB: 3.0
FontName: Gurajada
FullName: Gurajada
FamilyName: Gurajada
OS2FamilyName: "Gurajada"
OS2StyleName: "regular"
Weight: Regular
Copyright: This font is copyright of SiliconAndhra, USA.
Version: 1.0
FONDName: Gurajada
ItalicAngle: 0
UnderlinePosition: -1100
UnderlineWidth: 60
Ascent: 856
Descent: 214
InvalidEm: 1
UFOAscent: 875
UFODescent: -250
LayerCount: 2
Layer: 0 0 "Back" 1
Layer: 1 0 "Fore" 0
FSType: 0
OS2Version: 0
OS2_WeightWidthSlopeOnly: 0
OS2_UseTypoMetrics: 0
CreationTime: 1416987028
ModificationTime: 1416987028
PfmFamily: 16
TTFWeight: 400
TTFWidth: 5
LineGap: 0
VLineGap: 0
Panose: 0 0 0 0 0 0 0 0 0 0
OS2TypoAscent: 875
OS2TypoAOffset: 0
OS2TypoDescent: -250
OS2TypoDOffset: 0
OS2TypoLinegap: 20
OS2WinAscent: 900
OS2WinAOffset: 0
OS2WinDescent: 750
OS2WinDOffset: 0
HheadAscent: 885
HheadAOffset: 0
HheadDescent: -260
HheadDOffset: 0
OS2SubXSize: 700
OS2SubYSize: 650
OS2SubXOff: 0
OS2SubYOff: 140
OS2SupXSize: 700
OS2SupYSize: 650
OS2SupXOff: 0
OS2SupYOff: 477
OS2StrikeYSize: 50
OS2StrikeYPos: 250
OS2CapHeight: 596
OS2XHeight: 410
OS2Vendor: 'pyrs'
Lookup: 258 0 0 "'kern' Horizontal Kerning in Telugu2 lookup 0" { "'kern' Horizontal Kerning in Telugu2 lookup 0 subtable"  } ['kern' ('tel2' <'dflt' > ) ]
Lookup: 258 0 0 "'kern' Horizontal Kerning lookup 0" { "'kern' Horizontal Kerning lookup 0 subtable"  } ['kern' ('DFLT' <'dflt' > ) ]
DEI: 91125
GroupKern: "VaOttu" "VaEE" -5
GroupKern: "PaOttu" "RMatra" 76
GroupKern: "Kaottu" "RMatra" 28
GroupKern: "Ta" "VaOttu" 71
LangName: 1033 "" "" "" "" "" "Version 0.30 October 27, 2012" "" "" "SiliconAndhra, USA." "Purushoth Kumar Guthula"
PickledDataWithLists: "(dp1
."
Encoding: Custom
Compacted: 1
UnicodeInterp: none
NameList: AGL For New Fonts
DisplaySize: -72
AntiAlias: 1
FitToEm: 1
WinInfo: 32 8 2
BeginPrivate: 7
BlueFuzz 1 1
BlueScale 8 0.039625
BlueShift 1 7
BlueValues 5 [0 0]
ForceBold 5 false
StemSnapH 7 [73 55]
StemSnapV 7 [85 72]
EndPrivate
BeginChars: 708 708

StartChar: exclam
Encoding: 1 33 1
GlifName: exclam
Width: 333
VWidth: 0
Flags: W
LayerCount: 2
Back
Fore
SplineSet
199 0 m 256
NamedP: "hr00"
 219 0 236 5 250 16 c 256
 264 27 271 40 271 55 c 256
 271 70 264 83 250 93 c 256
 236 104 219 109 199 109 c 256
 179 109 161 104 146 93 c 256
 132 83 125 70 125 55 c 256
 125 40 132 27 146 16 c 256
 161 5 179 0 199 0 c 256
NamedP: "hr00"
199 158 m 256
 204 158 208 161 213 168 c 256
 218 175 222 183 223 194 c 258
 271 589 l 258
 274 610 273 628 268 644 c 256
 262 660 253 668 241 668 c 258
 180 668 l 258
 167 668 156 660 149 644 c 256
 142 628 142 610 144 589 c 258
 180 194 l 257
 182 183 185 175 188 168 c 256
 192 161 196 158 199 158 c 256
EndSplineSet
PickledDataWithLists: "(dp1
S'com.adobe.type.autohint'
p2
(S'data'
S'<data>\\n  <hintSetList>\\n    <hintset pointTag=\"hr00\">\\n      <hstem pos=\"21\" width=\"-21\"/>\\n      <hstem pos=\"0\" width=\"109\"/>\\n      <vstem pos=\"125\" width=\"148\"/>\\n      <vstem pos=\"144\" width=\"127\"/>\\n    </hintset>\\n  </hintSetList>\\n  </data>'
Ntp3
s."
EndChar

StartChar: percent
Encoding: 5 37 5
GlifName: percent
Width: 669
VWidth: 0
Flags: W
LayerCount: 2
Back
Fore
SplineSet
190 376 m 256
NamedP: "hr00"
 171 376 156 382 143 393 c 256
 130 404 123 416 123 431 c 256
 123 446 130 459 143 470 c 256
 156 481 171 486 190 486 c 256
 208 486 224 481 237 470 c 256
 250 459 257 446 257 431 c 256
 257 416 250 404 237 393 c 256
 224 382 208 376 190 376 c 256
NamedP: "hr00"
190 316 m 256
 225 316 255 327 280 350 c 256
 305 373 317 400 317 431 c 256
 317 463 305 490 280 513 c 256
 255 535 225 546 190 546 c 256
 155 546 125 535 100 513 c 256
 75 490 62 463 62 431 c 256
 62 400 75 373 100 350 c 256
 125 327 155 316 190 316 c 256
482 61 m 256
 464 61 448 67 435 78 c 256
 422 88 415 100 415 115 c 256
 415 130 422 143 435 154 c 256
 448 165 464 170 482 170 c 256
 501 170 516 165 528 154 c 256
 541 143 548 130 548 115 c 256
 548 100 541 89 528 78 c 256
 516 68 501 61 482 61 c 256
482 0 m 256
 517 0 547 11 572 34 c 256
 597 57 610 84 610 115 c 256
 610 148 597 175 572 198 c 256
 547 220 517 231 482 231 c 256
 447 231 417 220 392 198 c 256
 367 175 355 148 355 115 c 256
 355 84 367 57 392 34 c 256
 417 11 447 0 482 0 c 256
202 0 m 257
 542 546 l 257
 470 546 l 257
 130 0 l 257
 202 0 l 257
EndSplineSet
PickledDataWithLists: "(dp1
S'com.adobe.type.autohint'
p2
(S'data'
S'<data>\\n  <hintSetList>\\n    <hintset pointTag=\"hr00\">\\n      <hstem pos=\"0\" width=\"61\"/>\\n      <hstem pos=\"170\" width=\"61\"/>\\n      <hstem pos=\"316\" width=\"60\"/>\\n      <hstem pos=\"486\" width=\"60\"/>\\n      <vstem pos=\"62\" width=\"61\"/>\\n      <vstem pos=\"257\" width=\"60\"/>\\n      <vstem pos=\"355\" width=\"60\"/>\\n      <vstem pos=\"548\" width=\"62\"/>\\n    </hintset>\\n  </hintSetList>\\n  </data>'
Ntp3
s."
EndChar

StartChar: ampersand
Encoding: 6 38 6
GlifName: ampersand
Width: 649
VWidth: 0
Flags: W
LayerCount: 2
Back
Fore
SplineSet
197 564 m 256
NamedP: "hr00"
 197 588 206 609 225 626 c 256
 244 644 266 653 292 653 c 256
 313 653 331 643 346 624 c 256
 361 605 368 582 368 555 c 256
 368 531 359 507 342 483 c 256
 325 458 301 437 271 420 c 257
 247 451 229 478 216 503 c 256
 203 528 197 548 197 564 c 256
NamedP: "hr00"
125 185 m 256
 125 211 137 238 160 266 c 256
 182 294 213 320 253 343 c 257
 413 144 l 257
 393 117 370 95 343 79 c 256
 318 63 292 55 265 55 c 256
 226 55 193 68 166 93 c 256
 139 118 125 149 125 185 c 256
62 176 m 256
 62 128 81 85 118 51 c 256
 156 16 202 0 255 0 c 256
 292 0 327 8 360 25 c 256
 393 42 420 66 440 96 c 257
 515 8 l 257
 590 8 l 257
 480 153 l 257
 501 190 512 242 512 308 c 257
 458 308 l 257
 458 273 453 237 442 200 c 257
 306 378 l 257
 345 400 375 427 398 459 c 256
 420 490 432 522 432 555 c 256
 432 597 418 632 390 661 c 256
 361 690 326 705 286 705 c 256
 244 705 208 692 178 666 c 256
 149 641 135 610 135 574 c 256
 135 550 142 522 157 490 c 256
 172 457 194 423 223 386 c 257
 173 357 135 324 106 286 c 256
 78 249 62 212 62 176 c 256
EndSplineSet
PickledDataWithLists: "(dp1
S'com.adobe.type.autohint'
p2
(S'data'
S'<data>\\n  <hintSetList>\\n    <hintset pointTag=\"hr00\">\\n      <hstem pos=\"0\" width=\"55\"/>\\n      <hstem pos=\"653\" width=\"52\"/>\\n      <vstem pos=\"62\" width=\"63\"/>\\n      <vstem pos=\"135\" width=\"62\"/>\\n      <vstem pos=\"368\" width=\"64\"/>\\n      <vstem pos=\"458\" width=\"54\"/>\\n    </hintset>\\n  </hintSetList>\\n  </data>'
Ntp3
s."
EndChar

StartChar: quotesingle
Encoding: 7 39 7
GlifName: quotesingle
Width: 204
VWidth: 0
Flags: W
LayerCount: 2
Back
Fore
SplineSet
137 746 m 257
NamedP: "hr00"
 62 746 l 257
 98 549 l 257
 145 549 l 257
 137 746 l 257
NamedP: "hr00"
EndSplineSet
PickledDataWithLists: "(dp1
S'com.adobe.type.autohint'
p2
(S'data'
S'<data>\\n  <hintSetList>\\n    <hintset pointTag=\"hr00\">\\n      <hstem pos=\"549\" width=\"197\"/>\\n      <vstem pos=\"62\" width=\"83\"/>\\n    </hintset>\\n  </hintSetList>\\n  </data>'
Ntp3
s."
EndChar

StartChar: parenleft
Encoding: 8 40 8
GlifName: parenleft
Width: 365
VWidth: 0
Flags: W
LayerCount: 2
Back
Fore
SplineSet
306 -220 m 257
NamedP: "hr00"
 306 -146 l 257
 270 -146 l 258
 230 -146 195 -117 166 -60 c 256
 137 -3 123 65 123 146 c 258
 123 295 l 258
 123 378 137 448 166 505 c 256
 195 564 230 593 270 593 c 258
 306 593 l 257
 306 665 l 257
 257 665 l 258
 203 665 158 628 120 556 c 256
 82 484 62 398 62 295 c 258
 62 179 l 258
 62 69 81 -25 120 -104 c 256
 157 -181 203 -220 257 -220 c 258
 306 -220 l 257
NamedP: "hr00"
EndSplineSet
PickledDataWithLists: "(dp1
S'com.adobe.type.autohint'
p2
(S'data'
S'<data>\\n  <hintSetList>\\n    <hintset pointTag=\"hr00\">\\n      <hstem pos=\"-220\" width=\"74\"/>\\n      <hstem pos=\"593\" width=\"72\"/>\\n      <vstem pos=\"62\" width=\"61\"/>\\n    </hintset>\\n  </hintSetList>\\n  </data>'
Ntp3
s."
EndChar

StartChar: parenright
Encoding: 9 41 9
GlifName: parenright
Width: 365
VWidth: 0
Flags: W
LayerCount: 2
Back
Fore
SplineSet
111 -220 m 258
NamedP: "hr00"
 165 -220 211 -181 248 -104 c 256
 287 -25 306 69 306 179 c 258
 306 295 l 258
 306 398 286 484 248 556 c 256
 210 628 165 665 111 665 c 258
 62 665 l 257
 62 593 l 257
 100 593 l 258
 140 593 173 564 202 505 c 256
 230 448 245 378 245 295 c 258
 245 146 l 258
 245 65 231 -3 202 -60 c 256
 174 -117 140 -146 100 -146 c 258
 62 -146 l 257
 62 -220 l 257
 111 -220 l 258
NamedP: "hr00"
EndSplineSet
PickledDataWithLists: "(dp1
S'com.adobe.type.autohint'
p2
(S'data'
S'<data>\\n  <hintSetList>\\n    <hintset pointTag=\"hr00\">\\n      <hstem pos=\"-220\" width=\"74\"/>\\n      <hstem pos=\"593\" width=\"72\"/>\\n      <vstem pos=\"245\" width=\"61\"/>\\n    </hintset>\\n  </hintSetList>\\n  </data>'
Ntp3
s."
EndChar

StartChar: plus
Encoding: 11 43 11
GlifName: plus
Width: 595
VWidth: 0
Flags: W
LayerCount: 2
Back
Fore
SplineSet
323 0 m 257
NamedP: "hr00"
 323 183 l 257
 536 183 l 257
 536 243 l 257
 323 243 l 257
 323 425 l 257
 263 425 l 257
 263 243 l 257
 62 243 l 257
 62 183 l 257
 263 183 l 257
 263 0 l 257
 323 0 l 257
NamedP: "hr00"
EndSplineSet
PickledDataWithLists: "(dp1
S'com.adobe.type.autohint'
p2
(S'data'
S'<data>\\n  <hintSetList>\\n    <hintset pointTag=\"hr00\">\\n      <hstem pos=\"21\" width=\"-21\"/>\\n      <hstem pos=\"183\" width=\"60\"/>\\n      <vstem pos=\"263\" width=\"60\"/>\\n    </hintset>\\n  </hintSetList>\\n  </data>'
Ntp3
s."
EndChar

StartChar: comma
Encoding: 12 44 12
GlifName: comma
Width: 292
VWidth: 0
Flags: W
LayerCount: 2
Back
Fore
SplineSet
100 -115 m 257
NamedP: "hr00"
 137 -115 168 -104 193 -81 c 256
 219 -58 232 -31 232 0 c 256
 232 30 222 56 203 78 c 256
 185 99 163 109 136 109 c 256
 116 109 98 104 83 93 c 256
 69 83 62 70 62 55 c 256
 62 40 67 27 78 16 c 256
 89 5 102 0 117 0 c 256
 134 0 148 4 160 13 c 257
 165 3 l 257
 166 -2 166 -7 166 -12 c 256
 166 -25 159 -37 146 -47 c 256
 133 -56 118 -61 100 -61 c 257
 100 -115 l 257
NamedP: "hr00"
EndSplineSet
PickledDataWithLists: "(dp1
S'com.adobe.type.autohint'
p2
(S'data'
S'<data>\\n  <hintSetList>\\n    <hintset pointTag=\"hr00\">\\n      <hstem pos=\"-115\" width=\"54\"/>\\n      <hstem pos=\"21\" width=\"-21\"/>\\n      <vstem pos=\"166\" width=\"66\"/>\\n    </hintset>\\n  </hintSetList>\\n  </data>'
Ntp3
s."
EndChar

StartChar: hyphen
Encoding: 13 45 13
GlifName: hyphen
Width: 425
VWidth: 0
Flags: W
LayerCount: 2
Back
Fore
SplineSet
366 189 m 257
NamedP: "hr00"
 366 249 l 257
 62 249 l 257
 62 189 l 257
 366 189 l 257
NamedP: "hr00"
EndSplineSet
PickledDataWithLists: "(dp1
S'com.adobe.type.autohint'
p2
(S'data'
S'<data>\\n  <hintSetList>\\n    <hintset pointTag=\"hr00\">\\n      <hstem pos=\"189\" width=\"60\"/>\\n      <vstem pos=\"62\" width=\"304\"/>\\n    </hintset>\\n  </hintSetList>\\n  </data>'
Ntp3
s."
EndChar

StartChar: period
Encoding: 14 46 14
GlifName: period
Width: 268
VWidth: 0
Flags: W
LayerCount: 2
Back
Fore
SplineSet
136 0 m 256
NamedP: "hr00"
 156 0 173 5 187 16 c 256
 201 27 208 40 208 55 c 256
 208 70 201 83 187 93 c 256
 173 104 156 109 136 109 c 256
 116 109 98 104 83 93 c 256
 69 83 62 70 62 55 c 256
 62 40 69 27 83 16 c 256
 98 5 116 0 136 0 c 256
NamedP: "hr00"
EndSplineSet
PickledDataWithLists: "(dp1
S'com.adobe.type.autohint'
p2
(S'data'
S'<data>\\n  <hintSetList>\\n    <hintset pointTag=\"hr00\">\\n      <hstem pos=\"21\" width=\"-21\"/>\\n      <hstem pos=\"0\" width=\"109\"/>\\n      <vstem pos=\"62\" width=\"146\"/>\\n    </hintset>\\n  </hintSetList>\\n  </data>'
Ntp3
s."
EndChar

StartChar: slash
Encoding: 15 47 15
GlifName: slash
Width: 487
VWidth: 0
Flags: W
LayerCount: 2
Back
Fore
SplineSet
136 0 m 257
NamedP: "hr00"
 427 608 l 257
 355 608 l 257
 62 0 l 257
 136 0 l 257
NamedP: "hr00"
EndSplineSet
PickledDataWithLists: "(dp1
S'com.adobe.type.autohint'
p2
(S'data'
S'<data>\\n  <hintSetList>\\n    <hintset pointTag=\"hr00\">\\n      <hstem pos=\"21\" width=\"-21\"/>\\n      <vstem pos=\"62\" width=\"365\"/>\\n    </hintset>\\n  </hintSetList>\\n  </data>'
Ntp3
s."
EndChar

StartChar: zero
Encoding: 16 48 16
GlifName: zero
Width: 604
VWidth: 0
Flags: W
LayerCount: 2
Back
Fore
SplineSet
310 45 m 256
NamedP: "hr00"
 253 45 207 63 172 100 c 256
 138 136 121 184 121 245 c 256
 121 306 138 354 171 390 c 256
 204 427 249 445 304 445 c 256
 359 445 403 427 436 390 c 256
 469 354 486 306 486 245 c 256
 486 184 469 137 437 100 c 256
 405 64 363 45 310 45 c 256
NamedP: "hr00"
310 -5 m 256
 381 -5 438 18 481 64 c 256
 524 109 546 169 546 245 c 256
 546 321 524 382 481 428 c 256
 438 473 381 496 310 496 c 256
 235 496 174 473 129 428 c 256
 84 382 61 321 61 245 c 256
 61 169 84 109 129 64 c 256
 174 18 235 -5 310 -5 c 256
EndSplineSet
PickledDataWithLists: "(dp1
S'com.adobe.type.autohint'
p2
(S'data'
S'<data>\\n  <hintSetList>\\n    <hintset pointTag=\"hr00\">\\n      <hstem pos=\"-5\" width=\"50\"/>\\n      <hstem pos=\"445\" width=\"51\"/>\\n      <vstem pos=\"61\" width=\"60\"/>\\n      <vstem pos=\"486\" width=\"60\"/>\\n    </hintset>\\n  </hintSetList>\\n  </data>'
Ntp3
s."
EndChar

StartChar: one
Encoding: 17 49 17
GlifName: one
Width: 604
VWidth: 0
Flags: W
LayerCount: 2
Back
Fore
SplineSet
153 50 m 257
NamedP: "hr00"
 153 0 l 257
 460 0 l 257
 460 50 l 257
 336 50 l 257
 336 495 l 257
 147 431 l 257
 171 391 l 257
 276 421 l 257
 276 50 l 257
 153 50 l 257
NamedP: "hr00"
EndSplineSet
PickledDataWithLists: "(dp1
S'com.adobe.type.autohint'
p2
(S'data'
S'<data>\\n  <hintSetList>\\n    <hintset pointTag=\"hr00\">\\n      <hstem pos=\"0\" width=\"50\"/>\\n      <vstem pos=\"276\" width=\"60\"/>\\n    </hintset>\\n  </hintSetList>\\n  </data>'
Ntp3
s."
EndChar

StartChar: two
Encoding: 18 50 18
GlifName: two
Width: 604
VWidth: 0
Flags: W
LayerCount: 2
Back
Fore
SplineSet
528 0 m 257
NamedP: "hr00"
 528 50 l 257
 157 50 l 257
 388 189 l 258
 431 215 466 240 491 269 c 256
 516 297 528 323 528 346 c 256
 528 387 506 422 462 451 c 256
 419 480 366 495 303 495 c 256
 255 495 213 490 176 480 c 256
 139 469 111 454 91 435 c 257
 127 396 l 257
 146 412 170 424 199 433 c 256
 228 441 261 445 297 445 c 256
 344 445 384 435 417 416 c 256
 450 397 467 374 467 346 c 256
 467 332 459 316 444 298 c 256
 429 279 410 259 382 243 c 258
 212 144 l 257
 159 110 l 258
 105 75 78 50 78 35 c 256
 78 25 83 17 92 10 c 256
 102 3 114 0 127 0 c 258
 528 0 l 257
NamedP: "hr00"
EndSplineSet
PickledDataWithLists: "(dp1
S'com.adobe.type.autohint'
p2
(S'data'
S'<data>\\n  <hintSetList>\\n    <hintset pointTag=\"hr00\">\\n      <hstem pos=\"0\" width=\"50\"/>\\n      <hstem pos=\"445\" width=\"50\"/>\\n      <vstem pos=\"467\" width=\"61\"/>\\n    </hintset>\\n  </hintSetList>\\n  </data>'
Ntp3
s."
EndChar

StartChar: three
Encoding: 19 51 19
GlifName: three
Width: 604
VWidth: 0
Flags: W
LayerCount: 2
Back
Fore
SplineSet
212 0 m 258
NamedP: "hr00"
 299 0 374 18 436 55 c 256
 497 91 528 135 528 186 c 256
 528 221 514 251 486 275 c 256
 457 300 422 313 382 313 c 258
 248 313 l 257
 399 409 l 258
 416 420 429 429 439 439 c 256
 449 448 454 457 454 464 c 256
 454 471 450 476 441 481 c 256
 431 486 419 489 406 489 c 258
 78 489 l 257
 78 440 l 257
 358 440 l 257
 208 345 l 258
 189 333 175 322 166 313 c 256
 156 304 151 296 151 289 c 256
 151 282 155 276 164 271 c 256
 174 266 186 264 199 264 c 258
 369 264 l 258
 396 264 419 256 438 241 c 256
 457 226 467 208 467 186 c 256
 467 148 440 116 387 89 c 256
 334 62 269 49 193 49 c 258
 78 49 l 257
 78 0 l 257
 212 0 l 258
NamedP: "hr00"
EndSplineSet
PickledDataWithLists: "(dp1
S'com.adobe.type.autohint'
p2
(S'data'
S'<data>\\n  <hintSetList>\\n    <hintset pointTag=\"hr00\">\\n      <hstem pos=\"0\" width=\"49\"/>\\n      <hstem pos=\"264\" width=\"49\"/>\\n      <hstem pos=\"440\" width=\"49\"/>\\n      <vstem pos=\"467\" width=\"61\"/>\\n    </hintset>\\n  </hintSetList>\\n  </data>'
Ntp3
s."
EndChar

StartChar: four
Encoding: 20 52 20
GlifName: four
Width: 603
VWidth: 0
Flags: W
LayerCount: 2
Back
Fore
SplineSet
451 100 m 257
NamedP: "hr00"
 522 100 l 257
 522 150 l 257
 451 150 l 257
 451 300 l 257
 377 300 l 257
 377 150 l 257
 161 150 l 257
 419 465 l 257
 372 495 l 257
 131 200 l 258
 115 180 103 165 96 154 c 256
 87 141 83 132 83 125 c 256
 83 118 86 113 92 108 c 256
 99 103 106 100 114 100 c 258
 377 100 l 257
 377 0 l 257
 451 0 l 257
 451 100 l 257
NamedP: "hr00"
EndSplineSet
PickledDataWithLists: "(dp1
S'com.adobe.type.autohint'
p2
(S'data'
S'<data>\\n  <hintSetList>\\n    <hintset pointTag=\"hr00\">\\n      <hstem pos=\"0\" width=\"150\"/>\\n      <hstem pos=\"100\" width=\"50\"/>\\n      <vstem pos=\"377\" width=\"74\"/>\\n    </hintset>\\n  </hintSetList>\\n  </data>'
Ntp3
s."
EndChar

StartChar: five
Encoding: 21 53 21
GlifName: five
Width: 603
VWidth: 0
Flags: W
LayerCount: 2
Back
Fore
SplineSet
176 0 m 258
NamedP: "hr00"
 271 0 357 18 430 56 c 256
 504 94 540 138 540 186 c 256
 540 231 521 266 484 291 c 256
 446 318 396 331 334 331 c 256
 291 331 254 330 222 324 c 256
 191 319 166 310 149 300 c 257
 249 440 l 257
 540 440 l 257
 540 489 l 257
 200 489 l 257
 112 358 l 257
 104 343 93 327 81 310 c 256
 70 295 66 285 66 279 c 256
 66 270 71 264 80 259 c 256
 90 253 102 250 115 250 c 256
 135 250 163 255 196 269 c 256
 224 281 273 289 346 289 c 256
 383 289 414 279 441 259 c 256
 467 239 480 215 480 186 c 256
 480 148 448 116 385 89 c 256
 322 62 246 49 157 49 c 258
 91 49 l 257
 91 0 l 257
 176 0 l 258
NamedP: "hr00"
EndSplineSet
PickledDataWithLists: "(dp1
S'com.adobe.type.autohint'
p2
(S'data'
S'<data>\\n  <hintSetList>\\n    <hintset pointTag=\"hr00\">\\n      <hstem pos=\"0\" width=\"49\"/>\\n      <hstem pos=\"289\" width=\"42\"/>\\n      <hstem pos=\"440\" width=\"49\"/>\\n      <vstem pos=\"480\" width=\"60\"/>\\n    </hintset>\\n  </hintSetList>\\n  </data>'
Ntp3
s."
EndChar

StartChar: six
Encoding: 22 54 22
GlifName: six
Width: 604
VWidth: 0
Flags: W
LayerCount: 2
Back
Fore
SplineSet
321 45 m 256
NamedP: "hr00"
 258 45 208 55 171 76 c 256
 134 96 115 123 115 158 c 256
 115 188 134 212 171 229 c 256
 208 247 258 256 321 256 c 256
 374 256 417 247 452 226 c 256
 486 206 503 180 503 149 c 256
 503 119 486 94 452 75 c 256
 417 55 374 45 321 45 c 256
NamedP: "hr00"
316 -5 m 256
 391 -5 451 10 497 38 c 256
 542 66 565 102 565 149 c 256
 565 195 542 233 497 260 c 256
 451 288 391 301 316 301 c 256
 265 301 222 298 186 289 c 256
 151 281 126 268 113 253 c 257
 122 307 155 352 210 388 c 256
 264 423 328 440 401 440 c 258
 480 440 l 257
 480 490 l 257
 382 490 l 258
 288 490 208 463 142 408 c 256
 75 353 42 286 42 208 c 256
 42 143 67 92 117 53 c 256
 167 14 233 -5 316 -5 c 256
EndSplineSet
PickledDataWithLists: "(dp1
S'com.adobe.type.autohint'
p2
(S'data'
S'<data>\\n  <hintSetList>\\n    <hintset pointTag=\"hr00\">\\n      <hstem pos=\"-5\" width=\"50\"/>\\n      <hstem pos=\"256\" width=\"45\"/>\\n      <hstem pos=\"440\" width=\"50\"/>\\n      <vstem pos=\"42\" width=\"73\"/>\\n      <vstem pos=\"503\" width=\"62\"/>\\n    </hintset>\\n  </hintSetList>\\n  </data>'
Ntp3
s."
EndChar

StartChar: seven
Encoding: 23 55 23
GlifName: seven
Width: 603
VWidth: 0
Flags: W
LayerCount: 2
Back
Fore
SplineSet
172 -4 m 257
NamedP: "hr00"
 185 51 219 112 272 179 c 256
 325 246 396 317 484 391 c 258
 502 406 l 258
 529 428 542 443 542 450 c 256
 542 461 539 470 532 479 c 256
 525 486 516 490 506 490 c 258
 63 490 l 257
 63 440 l 257
 457 440 l 257
 361 359 283 281 223 205 c 256
 163 129 124 59 106 -5 c 257
 172 -4 l 257
NamedP: "hr00"
EndSplineSet
PickledDataWithLists: "(dp1
S'com.adobe.type.autohint'
p2
(S'data'
S'<data>\\n  <hintSetList>\\n    <hintset pointTag=\"hr00\">\\n      <hstem pos=\"440\" width=\"50\"/>\\n      <vstem pos=\"63\" width=\"479\"/>\\n    </hintset>\\n  </hintSetList>\\n  </data>'
Ntp3
s."
EndChar

StartChar: eight
Encoding: 24 56 24
GlifName: eight
Width: 603
VWidth: 0
Flags: W
LayerCount: 2
Back
Fore
SplineSet
281 321 m 256
NamedP: "hr00"
 240 321 204 327 174 339 c 256
 145 350 130 364 130 380 c 256
 130 399 145 414 176 426 c 256
 207 439 245 445 288 445 c 256
 330 445 366 438 395 426 c 256
 425 413 440 399 440 380 c 256
 440 364 425 350 394 339 c 256
 363 327 326 321 281 321 c 256
NamedP: "hr00"
300 45 m 256
 249 45 205 55 168 76 c 256
 131 96 113 121 113 150 c 256
 113 177 132 201 171 223 c 256
 210 245 253 256 300 256 c 256
 353 256 399 246 438 225 c 256
 475 204 494 179 494 150 c 256
 494 121 475 96 438 76 c 256
 399 55 353 45 300 45 c 256
313 -5 m 256
 383 -5 443 9 493 40 c 256
 542 70 566 107 566 150 c 256
 566 185 550 217 519 243 c 256
 488 269 450 283 404 286 c 257
 434 295 459 309 478 328 c 256
 497 346 506 365 506 386 c 256
 506 416 485 443 444 464 c 256
 402 486 352 496 294 496 c 256
 231 496 178 485 135 464 c 256
 91 442 69 416 69 386 c 256
 69 366 79 347 100 329 c 256
 121 310 148 295 181 286 c 257
 140 276 106 258 80 233 c 256
 53 208 40 180 40 150 c 256
 40 107 67 71 120 40 c 256
 173 10 238 -5 313 -5 c 256
EndSplineSet
PickledDataWithLists: "(dp1
S'com.adobe.type.autohint'
p2
(S'data'
S'<data>\\n  <hintSetList>\\n    <hintset pointTag=\"hr00\">\\n      <hstem pos=\"-5\" width=\"50\"/>\\n      <hstem pos=\"256\" width=\"65\"/>\\n      <hstem pos=\"445\" width=\"51\"/>\\n      <vstem pos=\"40\" width=\"73\"/>\\n      <vstem pos=\"69\" width=\"61\"/>\\n      <vstem pos=\"440\" width=\"66\"/>\\n      <vstem pos=\"494\" width=\"72\"/>\\n    </hintset>\\n  </hintSetList>\\n  </data>'
Ntp3
s."
EndChar

StartChar: nine
Encoding: 25 57 25
GlifName: nine
Width: 604
VWidth: 0
Flags: W
LayerCount: 2
Back
Fore
SplineSet
278 233 m 256
NamedP: "hr00"
 235 233 199 244 171 264 c 256
 142 285 128 310 128 341 c 256
 128 371 144 396 175 415 c 256
 206 435 244 445 291 445 c 256
 344 445 387 433 418 411 c 256
 450 388 466 359 466 321 c 256
 466 294 449 272 415 256 c 256
 380 240 335 233 278 233 c 256
NamedP: "hr00"
193 0 m 258
 289 0 371 28 438 83 c 256
 506 138 540 204 540 283 c 256
 540 347 517 400 472 438 c 256
 426 477 366 495 291 495 c 256
 224 495 169 481 128 453 c 256
 87 425 67 388 67 341 c 256
 67 296 87 258 128 230 c 256
 169 202 224 189 291 189 c 256
 332 189 368 193 398 201 c 256
 429 210 452 222 467 238 c 257
 458 183 427 138 376 103 c 256
 324 68 263 50 193 50 c 258
 91 50 l 257
 91 0 l 257
 193 0 l 258
EndSplineSet
PickledDataWithLists: "(dp1
S'com.adobe.type.autohint'
p2
(S'data'
S'<data>\\n  <hintSetList>\\n    <hintset pointTag=\"hr00\">\\n      <hstem pos=\"0\" width=\"50\"/>\\n      <hstem pos=\"189\" width=\"44\"/>\\n      <hstem pos=\"445\" width=\"50\"/>\\n      <vstem pos=\"67\" width=\"61\"/>\\n      <vstem pos=\"466\" width=\"74\"/>\\n    </hintset>\\n  </hintSetList>\\n  </data>'
Ntp3
s."
EndChar

StartChar: colon
Encoding: 26 58 26
GlifName: colon
Width: 268
VWidth: 0
Flags: W
LayerCount: 2
Back
Fore
SplineSet
136 255 m 256
NamedP: "hr00"
 156 255 173 260 187 271 c 256
 201 282 208 295 208 310 c 256
 208 325 201 338 187 348 c 256
 173 359 156 364 136 364 c 256
 116 364 98 359 83 348 c 256
 69 338 62 325 62 310 c 256
 62 295 69 282 83 271 c 256
 98 260 116 255 136 255 c 256
NamedP: "hr00"
136 0 m 256
 156 0 173 5 187 16 c 256
 201 27 208 40 208 55 c 256
 208 70 201 83 187 93 c 256
 173 104 156 109 136 109 c 256
 116 109 98 104 83 93 c 256
 69 83 62 70 62 55 c 256
 62 40 69 27 83 16 c 256
 98 5 116 0 136 0 c 256
EndSplineSet
PickledDataWithLists: "(dp1
S'com.adobe.type.autohint'
p2
(S'data'
S'<data>\\n  <hintSetList>\\n    <hintset pointTag=\"hr00\">\\n      <hstem pos=\"21\" width=\"-21\"/>\\n      <hstem pos=\"0\" width=\"109\"/>\\n      <hstem pos=\"255\" width=\"109\"/>\\n      <vstem pos=\"62\" width=\"146\"/>\\n    </hintset>\\n  </hintSetList>\\n  </data>'
Ntp3
s."
EndChar

StartChar: semicolon
Encoding: 27 59 27
GlifName: semicolon
Width: 354
VWidth: 0
Flags: W
LayerCount: 2
Back
Fore
SplineSet
199 255 m 256
NamedP: "hr00"
 219 255 236 260 250 271 c 256
 264 282 271 295 271 310 c 256
 271 325 264 338 250 348 c 256
 236 359 219 364 199 364 c 256
 179 364 161 359 146 348 c 256
 132 338 125 325 125 310 c 256
 125 295 132 282 146 271 c 256
 161 260 179 255 199 255 c 256
NamedP: "hr00"
163 -115 m 257
 200 -115 231 -104 256 -81 c 256
 282 -58 295 -31 295 0 c 256
 295 30 285 56 266 78 c 256
 248 99 226 109 199 109 c 256
 179 109 161 104 146 93 c 256
 132 83 125 70 125 55 c 256
 125 40 130 27 141 16 c 256
 152 5 165 0 180 0 c 256
 197 0 211 4 223 13 c 257
 228 3 l 257
 229 -2 229 -7 229 -12 c 256
 229 -25 222 -37 209 -47 c 256
 196 -56 181 -61 163 -61 c 257
 163 -115 l 257
EndSplineSet
PickledDataWithLists: "(dp1
S'com.adobe.type.autohint'
p2
(S'data'
S'<data>\\n  <hintSetList>\\n    <hintset pointTag=\"hr00\">\\n      <hstem pos=\"-115\" width=\"54\"/>\\n      <hstem pos=\"21\" width=\"-21\"/>\\n      <hstem pos=\"255\" width=\"109\"/>\\n      <vstem pos=\"229\" width=\"66\"/>\\n    </hintset>\\n  </hintSetList>\\n  </data>'
Ntp3
s."
EndChar

StartChar: less
Encoding: 28 60 28
GlifName: less
Width: 555
VWidth: 0
Flags: W
LayerCount: 2
Back
Fore
SplineSet
496 -57 m 257
NamedP: "hr00"
 496 13 l 257
 123 238 l 257
 496 463 l 257
 496 530 l 257
 62 271 l 257
 62 198 l 257
 496 -57 l 257
NamedP: "hr00"
EndSplineSet
PickledDataWithLists: "(dp1
S'com.adobe.type.autohint'
p2
(S'data'
S'<data>\\n  <hintSetList>\\n    <hintset pointTag=\"hr00\">\\n      <hstem pos=\"-57\" width=\"587\"/>\\n      <vstem pos=\"62\" width=\"61\"/>\\n    </hintset>\\n  </hintSetList>\\n  </data>'
Ntp3
s."
EndChar

StartChar: equal
Encoding: 29 61 29
GlifName: equal
Width: 487
VWidth: 0
Flags: W
LayerCount: 2
Back
Fore
SplineSet
427 249 m 257
NamedP: "hr00"
 427 310 l 257
 62 310 l 257
 62 249 l 257
 427 249 l 257
NamedP: "hr00"
427 55 m 257
 427 115 l 257
 62 115 l 257
 62 55 l 257
 427 55 l 257
EndSplineSet
PickledDataWithLists: "(dp1
S'com.adobe.type.autohint'
p2
(S'data'
S'<data>\\n  <hintSetList>\\n    <hintset pointTag=\"hr00\">\\n      <hstem pos=\"55\" width=\"60\"/>\\n      <hstem pos=\"249\" width=\"61\"/>\\n      <vstem pos=\"62\" width=\"365\"/>\\n    </hintset>\\n  </hintSetList>\\n  </data>'
Ntp3
s."
EndChar

StartChar: greater
Encoding: 30 62 30
GlifName: greater
Width: 555
VWidth: 0
Flags: W
LayerCount: 2
Back
Fore
SplineSet
496 271 m 257
NamedP: "hr00"
 62 530 l 257
 62 463 l 257
 435 238 l 257
 62 13 l 257
 62 -57 l 257
 496 198 l 257
 496 271 l 257
NamedP: "hr00"
EndSplineSet
PickledDataWithLists: "(dp1
S'com.adobe.type.autohint'
p2
(S'data'
S'<data>\\n  <hintSetList>\\n    <hintset pointTag=\"hr00\">\\n      <hstem pos=\"-57\" width=\"587\"/>\\n      <vstem pos=\"435\" width=\"61\"/>\\n    </hintset>\\n  </hintSetList>\\n  </data>'
Ntp3
s."
EndChar

StartChar: question
Encoding: 31 63 31
GlifName: question
Width: 664
VWidth: 0
Flags: W
LayerCount: 2
Back
Fore
SplineSet
375 66 m 256
NamedP: "hr00"
 424 66 465 76 499 96 c 256
 533 117 550 142 550 170 c 258
 550 206 l 257
 478 206 l 257
 478 194 l 258
 478 177 470 162 455 151 c 256
 439 139 420 134 399 134 c 258
 356 134 l 258
 336 134 319 139 305 148 c 256
 291 158 284 170 284 183 c 256
 284 200 293 215 310 228 c 256
 327 241 348 250 375 255 c 256
 442 267 497 288 540 318 c 256
 583 347 605 378 605 413 c 256
 605 463 583 505 539 541 c 256
 496 576 443 595 380 595 c 256
 310 595 250 577 200 541 c 256
 150 506 125 463 125 413 c 257
 199 413 l 257
 199 446 216 476 250 499 c 256
 285 523 327 534 375 534 c 256
 418 534 455 524 486 503 c 256
 517 481 533 455 533 425 c 256
 533 402 520 381 493 361 c 256
 467 342 434 328 393 321 c 256
 340 311 296 295 261 268 c 256
 227 242 210 214 210 183 c 256
 210 150 226 123 259 100 c 256
 290 77 329 66 375 66 c 256
NamedP: "hr00"
380 -72 m 256
 397 -72 411 -67 424 -56 c 256
 435 -46 441 -34 441 -19 c 256
 441 -4 435 9 424 20 c 256
 411 32 397 36 380 36 c 256
 363 36 349 31 338 20 c 256
 326 9 320 -4 320 -19 c 256
 320 -34 326 -46 338 -56 c 257
 349 -67 363 -72 380 -72 c 256
EndSplineSet
PickledDataWithLists: "(dp1
S'com.adobe.type.autohint'
p2
(S'data'
S'<data>\\n  <hintSetList>\\n    <hintset pointTag=\"hr00\">\\n      <hstem pos=\"-72\" width=\"108\"/>\\n      <hstem pos=\"66\" width=\"68\"/>\\n      <hstem pos=\"534\" width=\"61\"/>\\n      <vstem pos=\"125\" width=\"74\"/>\\n      <vstem pos=\"210\" width=\"74\"/>\\n      <vstem pos=\"320\" width=\"121\"/>\\n      <vstem pos=\"478\" width=\"72\"/>\\n      <vstem pos=\"533\" width=\"72\"/>\\n    </hintset>\\n  </hintSetList>\\n  </data>'
Ntp3
s."
EndChar

StartChar: uni2018
Encoding: 95 8216 95
GlifName: uni2018
Width: 320
VWidth: 0
Flags: W
LayerCount: 2
Back
Fore
SplineSet
246 554 m 256
NamedP: "hr00"
 246 573 240 590 228 604 c 256
 215 618 199 625 181 625 c 256
 171 625 161 623 151 620 c 256
 141 616 133 612 127 607 c 257
 127 627 135 647 152 667 c 256
 171 688 193 701 219 707 c 257
 204 736 l 257
 161 728 127 707 104 674 c 256
 85 645 75 611 75 572 c 256
 75 545 83 523 98 505 c 256
 115 485 139 475 168 475 c 256
 193 475 212 483 227 498 c 256
 240 512 246 531 246 554 c 256
NamedP: "hr00"
EndSplineSet
PickledDataWithLists: "(dp1
S'com.adobe.type.autohint'
p2
(S'data'
S'<data>\\n  <hintSetList>\\n    <hintset pointTag=\"hr00\">\\n      <hstem pos=\"475\" width=\"261\"/>\\n      <hstem pos=\"475\" width=\"150\"/>\\n      <vstem pos=\"75\" width=\"52\"/>\\n    </hintset>\\n  </hintSetList>\\n  </data>'
Ntp3
s."
EndChar

StartChar: uni2019
Encoding: 96 8217 96
GlifName: uni2019
Width: 320
VWidth: 0
Flags: W
LayerCount: 2
Back
Fore
SplineSet
75 657 m 256
NamedP: "hr00"
 75 638 81 621 93 607 c 256
 106 593 122 586 140 586 c 256
 150 586 160 587 171 590 c 257
 181 594 189 599 195 604 c 257
 195 583 186 563 169 543 c 256
 151 523 129 510 102 504 c 257
 117 475 l 257
 161 483 195 504 218 537 c 256
 237 565 246 599 246 639 c 256
 246 665 239 687 224 705 c 256
 207 726 183 736 154 736 c 256
 129 736 109 728 95 713 c 256
 82 699 75 680 75 657 c 256
NamedP: "hr00"
EndSplineSet
PickledDataWithLists: "(dp1
S'com.adobe.type.autohint'
p2
(S'data'
S'<data>\\n  <hintSetList>\\n    <hintset pointTag=\"hr00\">\\n      <hstem pos=\"475\" width=\"261\"/>\\n      <hstem pos=\"586\" width=\"150\"/>\\n      <vstem pos=\"195\" width=\"51\"/>\\n    </hintset>\\n  </hintSetList>\\n  </data>'
Ntp3
s."
EndChar

StartChar: uni201C
Encoding: 97 8220 97
GlifName: uni201C_
Width: 497
VWidth: 0
Flags: W
LayerCount: 2
Back
Fore
SplineSet
424 470 m 256
NamedP: "hr00"
 424 482 416 497 401 516 c 256
 386 534 378 549 378 561 c 256
 378 588 382 613 391 636 c 257
 398 660 409 681 424 698 c 257
 394 713 l 257
 365 689 342 661 327 630 c 256
 311 597 303 564 303 531 c 256
 303 502 310 477 321 457 c 256
 333 436 346 425 363 425 c 256
 380 425 395 429 406 438 c 256
 418 447 424 458 424 470 c 256
NamedP: "hr00"
196 470 m 256
 196 482 189 497 174 516 c 256
 159 534 151 549 151 561 c 256
 151 588 156 613 163 636 c 256
 171 660 181 681 196 698 c 257
 166 713 l 257
 137 689 114 661 99 630 c 256
 83 597 75 564 75 531 c 256
 75 502 82 477 93 457 c 256
 105 436 119 425 136 425 c 256
 153 425 167 429 178 438 c 256
 190 447 196 458 196 470 c 256
EndSplineSet
PickledDataWithLists: "(dp1
S'com.adobe.type.autohint'
p2
(S'data'
S'<data>\\n  <hintSetList>\\n    <hintset pointTag=\"hr00\">\\n      <hstem pos=\"425\" width=\"288\"/>\\n      <vstem pos=\"75\" width=\"76\"/>\\n      <vstem pos=\"303\" width=\"75\"/>\\n    </hintset>\\n  </hintSetList>\\n  </data>'
Ntp3
s."
EndChar

StartChar: uni201D
Encoding: 98 8221 98
GlifName: uni201D_
Width: 497
VWidth: 0
Flags: W
LayerCount: 2
Back
Fore
SplineSet
303 592 m 256
NamedP: "hr00"
 303 579 310 564 325 546 c 256
 340 528 348 513 348 501 c 256
 348 474 343 449 336 426 c 256
 328 402 318 381 303 364 c 257
 333 349 l 257
 362 373 385 401 400 432 c 256
 416 465 424 498 424 531 c 256
 424 560 417 585 406 605 c 256
 394 626 380 637 363 637 c 256
 346 637 332 632 321 623 c 256
 309 614 303 604 303 592 c 256
NamedP: "hr00"
75 592 m 256
 75 579 83 564 98 546 c 256
 113 528 121 513 121 501 c 256
 121 474 117 449 108 426 c 257
 101 402 90 381 75 364 c 257
 105 349 l 257
 134 373 157 401 172 432 c 256
 188 465 196 498 196 531 c 256
 196 560 189 585 178 605 c 256
 166 626 153 637 136 637 c 256
 119 637 104 632 93 623 c 256
 81 614 75 604 75 592 c 256
EndSplineSet
PickledDataWithLists: "(dp1
S'com.adobe.type.autohint'
p2
(S'data'
S'<data>\\n  <hintSetList>\\n    <hintset pointTag=\"hr00\">\\n      <hstem pos=\"349\" width=\"288\"/>\\n      <vstem pos=\"121\" width=\"75\"/>\\n      <vstem pos=\"348\" width=\"76\"/>\\n    </hintset>\\n  </hintSetList>\\n  </data>'
Ntp3
s."
EndChar

StartChar: .notdef
Encoding: 107 -1 107
GlifName: _notdef
Width: 888
VWidth: 0
Flags: W
LayerCount: 2
Back
Fore
SplineSet
382 128 m 257
NamedP: "hr00"
 344 151 314 183 293 222 c 257
 220 170 l 257
 249 122 286 83 333 53 c 257
 382 128 l 257
NamedP: "hr00"
596 87 m 257
 575 81 554 78 532 78 c 256
 509 78 488 81 467 87 c 257
 452 -3 l 257
 479 -8 506 -11 531 -11 c 256
 558 -11 584 -8 610 -3 c 257
 596 87 l 257
266 297 m 257
 261 318 258 341 258 364 c 256
 258 387 261 409 266 431 c 257
 179 447 l 257
 174 420 171 393 171 364 c 256
 171 335 174 308 179 282 c 257
 266 297 l 257
333 676 m 257
 286 645 249 606 220 559 c 257
 293 507 l 257
 314 546 344 578 382 602 c 257
 333 676 l 257
772 222 m 257
 749 183 718 151 680 128 c 257
 730 53 l 257
 776 83 814 122 843 170 c 257
 772 222 l 257
891 364 m 256
 891 391 888 419 883 447 c 257
 798 431 l 257
 803 409 805 387 805 364 c 256
 805 341 803 318 798 297 c 257
 883 282 l 257
 888 311 891 338 891 364 c 256
610 730 m 257
 584 737 558 741 531 741 c 256
 506 741 479 737 452 730 c 257
 467 642 l 257
 488 647 509 649 532 649 c 256
 554 649 575 647 596 642 c 257
 610 730 l 257
843 559 m 257
 815 606 777 645 730 676 c 257
 680 602 l 257
 718 578 749 546 772 507 c 257
 843 559 l 257
EndSplineSet
PickledDataWithLists: "(dp1
S'com.adobe.type.autohint'
p2
(S'data'
S'<data>\\n  <hintSetList>\\n    <hintset pointTag=\"hr00\">\\n      <hstem pos=\"-11\" width=\"89\"/>\\n      <hstem pos=\"649\" width=\"92\"/>\\n      <vstem pos=\"171\" width=\"87\"/>\\n      <vstem pos=\"805\" width=\"86\"/>\\n    </hintset>\\n  </hintSetList>\\n  </data>'
Ntp3
s."
EndChar

StartChar: Nukta
Encoding: 110 2364 110
GlifName: Nukta_
Width: 0
VWidth: 0
Flags: W
LayerCount: 2
Back
Fore
SplineSet
401 1010 m 256
NamedP: "hr00"
 401 977 379 960 347 960 c 256
 311 960 290 979 290 1010 c 256
 290 1039 317 1058 348 1058 c 256
 379 1058 401 1038 401 1010 c 256
NamedP: "hr00"
759 936 m 256
 759 952 748 962 740 962 c 258
 413 962 l 257
 426 981 432 1002 432 1023 c 256
 432 1071 394 1109 349 1109 c 256
 296 1109 260 1064 260 1020 c 256
 260 959 294 910 350 910 c 258
 737 910 l 258
 752 910 759 919 759 936 c 256
EndSplineSet
PickledDataWithLists: "(dp1
S'com.adobe.type.autohint'
p2
(S'data'
S'<data>\\n  <hintSetList>\\n    <hintset pointTag=\"hr00\">\\n      <hstem pos=\"910\" width=\"52\"/>\\n      <hstem pos=\"1058\" width=\"51\"/>\\n      <vstem pos=\"260\" width=\"30\"/>\\n      <vstem pos=\"401\" width=\"31\"/>\\n    </hintset>\\n  </hintSetList>\\n  </data>'
Ntp3
s."
EndChar

StartChar: uni0950
Encoding: 111 2384 111
GlifName: uni0950
Width: 758
VWidth: 0
Flags: W
LayerCount: 2
Back
Fore
SplineSet
349 663 m 257
NamedP: "hr00"
 396 613 l 257
 444 659 l 257
 396 708 l 257
 349 663 l 257
NamedP: "hr00"
262 618 m 257
 306 550 359 516 422 516 c 256
 463 516 504 538 545 582 c 257
 483 634 l 257
 456 597 423 579 386 579 c 256
 347 579 314 597 285 634 c 257
 262 618 l 257
505 386 m 257
 522 421 549 438 587 438 c 256
 642 438 681 384 681 305 c 256
 681 222 637 162 580 162 c 256
 546 162 529 190 529 245 c 258
 529 273 l 257
 529 327 l 258
 529 358 521 378 505 386 c 257
36 330 m 257
 44 235 74 156 125 93 c 256
 177 30 238 -1 307 -1 c 256
 394 -1 450 53 450 133 c 256
 450 182 430 233 391 286 c 257
 420 305 443 315 462 315 c 256
 484 315 495 294 495 253 c 258
 495 219 l 258
 495 128 518 95 577 95 c 256
 661 95 715 178 715 310 c 256
 715 441 675 505 595 505 c 256
 534 505 497 468 483 394 c 257
 476 395 471 396 468 396 c 256
 431 396 393 376 352 337 c 257
 339 350 l 257
 346 365 350 381 350 400 c 256
 350 487 292 546 211 546 c 256
 179 546 148 539 119 524 c 257
 151 449 l 257
 186 468 219 477 251 477 c 256
 295 477 316 459 316 424 c 256
 316 377 280 343 209 322 c 257
 241 247 l 257
 273 262 300 285 323 316 c 257
 367 271 389 222 389 167 c 256
 389 108 343 61 286 61 c 256
 233 61 185 86 143 137 c 256
 102 188 75 255 62 337 c 257
 36 330 l 257
EndSplineSet
PickledDataWithLists: "(dp1
S'com.adobe.type.autohint'
p2
(S'data'
S'<data>\\n  <hintSetList>\\n    <hintset pointTag=\"hr00\">\\n      <hstem pos=\"-1\" width=\"62\"/>\\n      <hstem pos=\"95\" width=\"67\"/>\\n      <hstem pos=\"315\" width=\"81\"/>\\n      <hstem pos=\"438\" width=\"67\"/>\\n      <hstem pos=\"477\" width=\"69\"/>\\n      <hstem pos=\"516\" width=\"63\"/>\\n      <vstem pos=\"316\" width=\"34\"/>\\n      <vstem pos=\"389\" width=\"61\"/>\\n      <vstem pos=\"495\" width=\"34\"/>\\n      <vstem pos=\"681\" width=\"34\"/>\\n    </hintset>\\n  </hintSetList>\\n  </data>'
Ntp3
s."
EndChar

StartChar: Udatta
Encoding: 112 2385 112
GlifName: Udatta_
Width: 0
VWidth: 0
Flags: W
LayerCount: 2
Back
Fore
SplineSet
365 930 m 257
NamedP: "hr00"
 365 1294 l 257
 282 1294 l 257
 282 930 l 257
 365 930 l 257
NamedP: "hr00"
EndSplineSet
PickledDataWithLists: "(dp1
S'com.adobe.type.autohint'
p2
(S'data'
S'<data>\\n  <hintSetList>\\n    <hintset pointTag=\"hr00\">\\n      <hstem pos=\"930\" width=\"364\"/>\\n      <vstem pos=\"282\" width=\"83\"/>\\n    </hintset>\\n  </hintSetList>\\n  </data>'
Ntp3
s."
EndChar

StartChar: Anudatta
Encoding: 113 2386 113
GlifName: Anudatta_
Width: 0
VWidth: 0
Flags: W
LayerCount: 2
Back
Fore
SplineSet
121 -516 m 257
NamedP: "hr00"
 523 -516 l 257
 523 -425 l 257
 121 -425 l 257
 121 -516 l 257
NamedP: "hr00"
EndSplineSet
PickledDataWithLists: "(dp1
S'com.adobe.type.autohint'
p2
(S'data'
S'<data>\\n  <hintSetList>\\n    <hintset pointTag=\"hr00\">\\n      <hstem pos=\"-516\" width=\"91\"/>\\n      <vstem pos=\"121\" width=\"402\"/>\\n    </hintset>\\n  </hintSetList>\\n  </data>'
Ntp3
s."
EndChar

StartChar: KaHalanth
Encoding: 114 2387 114
GlifName: KaHalanth_
Width: 610
VWidth: 0
Flags: W
LayerCount: 2
Back
Fore
SplineSet
283 425 m 257
NamedP: "hr00"
 273 427 264 430 256 433 c 256
 249 436 243 440 240 444 c 257
 247 455 257 463 271 470 c 256
 286 477 302 480 320 480 c 256
 335 480 348 482 359 485 c 256
 370 488 379 492 386 498 c 257
 320 571 l 257
 310 563 294 557 271 553 c 258
 229 546 l 257
 222 546 216 549 211 554 c 256
 206 559 204 564 204 571 c 256
 204 581 217 593 243 606 c 256
 270 619 293 625 314 625 c 256
 335 625 364 616 401 599 c 256
 440 580 469 571 490 571 c 256
 507 571 524 576 541 583 c 256
 559 591 576 601 593 614 c 257
 508 693 l 257
 499 683 488 675 475 670 c 256
 461 664 446 661 429 661 c 256
 408 661 378 667 338 680 c 256
 298 693 267 699 246 699 c 256
 211 699 176 687 141 663 c 256
 106 638 89 613 89 589 c 256
 89 579 96 567 110 553 c 256
 124 538 143 524 168 510 c 257
 153 501 140 492 130 484 c 257
 121 475 115 468 113 461 c 257
 120 443 139 424 170 405 c 256
 181 398 191 393 201 389 c 257
 146 366 101 333 66 291 c 257
 66 286 71 281 81 276 c 257
 121 261 l 257
 309 200 l 258
 342 189 368 181 386 173 c 256
 406 164 419 155 424 146 c 257
 410 127 393 112 373 101 c 256
 353 90 332 85 309 85 c 257
 158 109 l 257
 135 109 112 103 89 90 c 256
 66 77 47 59 30 36 c 257
 164 -6 l 257
 168 3 177 10 190 15 c 256
 203 21 218 24 236 24 c 257
 381 6 l 257
 417 6 450 19 481 45 c 256
 513 71 536 105 551 146 c 257
 544 158 529 171 505 184 c 256
 482 197 451 211 413 225 c 258
 236 291 l 257
 259 311 287 325 319 336 c 256
 350 346 384 353 419 353 c 256
 427 353 434 350 440 345 c 256
 446 340 449 335 449 328 c 256
 449 323 445 317 438 310 c 256
 430 303 419 297 406 291 c 257
 491 243 l 257
 508 253 521 264 531 275 c 256
 541 288 546 299 546 310 c 256
 546 333 528 358 491 385 c 256
 456 410 424 425 393 425 c 258
 283 425 l 257
NamedP: "hr00"
EndSplineSet
PickledDataWithLists: "(dp1
S'com.adobe.type.autohint'
p2
(S'data'
S'<data>\\n  <hintSetList>\\n    <hintset pointTag=\"hr00\">\\n      <hstem pos=\"353\" width=\"72\"/>\\n      <hstem pos=\"480\" width=\"66\"/>\\n      <hstem pos=\"571\" width=\"90\"/>\\n      <hstem pos=\"625\" width=\"74\"/>\\n      <vstem pos=\"30\" width=\"563\"/>\\n    </hintset>\\n  </hintSetList>\\n  </data>'
Ntp3
s."
EndChar

StartChar: DEVANAGARI_DANDA
Encoding: 115 2404 115
GlifName: DEVANAGARI__DANDA_
Width: 245
VWidth: 0
Flags: W
LayerCount: 2
Back
Fore
SplineSet
186 -37 m 257
NamedP: "hr00"
 186 456 l 257
 125 456 l 257
 125 -37 l 257
 186 -37 l 257
NamedP: "hr00"
EndSplineSet
PickledDataWithLists: "(dp1
S'com.adobe.type.autohint'
p2
(S'data'
S'<data>\\n  <hintSetList>\\n    <hintset pointTag=\"hr00\">\\n      <hstem pos=\"-37\" width=\"493\"/>\\n      <vstem pos=\"125\" width=\"61\"/>\\n    </hintset>\\n  </hintSetList>\\n  </data>'
Ntp3
s."
EndChar

StartChar: DEVANAGARI_DOUBLE_DANDA
Encoding: 116 2405 116
GlifName: DEVANAGARI__DOUBLE__DANDA_
Width: 439
VWidth: 0
Flags: W
LayerCount: 2
Back
Fore
SplineSet
380 -37 m 257
NamedP: "hr00"
 380 456 l 257
 319 456 l 257
 319 -37 l 257
 380 -37 l 257
NamedP: "hr00"
186 -37 m 257
 186 456 l 257
 125 456 l 257
 125 -37 l 257
 186 -37 l 257
EndSplineSet
PickledDataWithLists: "(dp1
S'com.adobe.type.autohint'
p2
(S'data'
S'<data>\\n  <hintSetList>\\n    <hintset pointTag=\"hr00\">\\n      <hstem pos=\"-37\" width=\"493\"/>\\n      <vstem pos=\"125\" width=\"61\"/>\\n      <vstem pos=\"319\" width=\"61\"/>\\n    </hintset>\\n  </hintSetList>\\n  </data>'
Ntp3
s."
EndChar

StartChar: Arasunna
Encoding: 117 3073 117
GlifName: Arasunna_
Width: 376
VWidth: 0
Flags: W
LayerCount: 2
Back
Fore
SplineSet
255 0 m 256
NamedP: "hr00"
 297 0 332 10 359 30 c 257
 298 104 l 257
 273 87 244 79 213 79 c 256
 187 79 162 91 139 116 c 256
 116 141 104 167 104 194 c 256
 104 231 118 266 148 299 c 256
 177 330 208 346 243 346 c 256
 262 346 278 344 293 341 c 256
 306 338 316 333 321 328 c 257
 346 359 l 257
 329 380 308 396 283 408 c 256
 258 419 233 425 206 425 c 256
 165 425 126 406 88 368 c 256
 49 329 30 290 30 249 c 256
 30 190 54 134 103 81 c 256
 152 27 202 0 255 0 c 256
NamedP: "hr00"
EndSplineSet
PickledDataWithLists: "(dp1
S'com.adobe.type.autohint'
p2
(S'data'
S'<data>\\n  <hintSetList>\\n    <hintset pointTag=\"hr00\">\\n      <hstem pos=\"0\" width=\"79\"/>\\n      <hstem pos=\"346\" width=\"79\"/>\\n      <vstem pos=\"30\" width=\"74\"/>\\n    </hintset>\\n  </hintSetList>\\n  </data>'
Ntp3
s."
EndChar

StartChar: Anusvara
Encoding: 118 3074 118
GlifName: Anusvara_
Width: 557
VWidth: 0
Flags: W
LayerCount: 2
Back
Fore
SplineSet
243 73 m 256
NamedP: "hr00"
 210 73 181 82 156 101 c 256
 133 120 121 143 121 170 c 256
 121 212 142 251 183 286 c 256
 224 322 268 340 316 340 c 256
 351 340 382 328 411 303 c 256
 440 277 455 249 455 219 c 256
 455 183 433 150 389 119 c 256
 344 88 295 73 243 73 c 256
NamedP: "hr00"
298 0 m 256
 361 0 417 18 466 55 c 256
 515 92 540 135 540 183 c 256
 540 230 509 280 448 333 c 256
 387 386 329 413 274 413 c 256
 214 413 158 392 106 351 c 256
 55 311 30 267 30 219 c 256
 30 168 58 118 116 71 c 256
 174 23 235 0 298 0 c 256
EndSplineSet
PickledDataWithLists: "(dp1
S'com.adobe.type.autohint'
p2
(S'data'
S'<data>\\n  <hintSetList>\\n    <hintset pointTag=\"hr00\">\\n      <hstem pos=\"0\" width=\"73\"/>\\n      <hstem pos=\"340\" width=\"73\"/>\\n      <vstem pos=\"30\" width=\"91\"/>\\n      <vstem pos=\"455\" width=\"85\"/>\\n    </hintset>\\n  </hintSetList>\\n  </data>'
Ntp3
s."
EndChar

StartChar: Visarga
Encoding: 119 3075 119
GlifName: Visarga_
Width: 266
VWidth: 0
Flags: W
LayerCount: 2
Back
Fore
SplineSet
121 291 m 256
NamedP: "hr00"
 114 291 109 294 105 299 c 256
 100 304 98 309 98 316 c 256
 98 327 105 338 119 351 c 256
 132 363 145 370 158 370 c 256
 165 370 170 368 175 363 c 256
 180 358 183 353 183 346 c 256
 183 335 176 324 161 311 c 256
 146 298 133 291 121 291 c 256
NamedP: "hr00"
151 236 m 256
 176 236 198 245 218 263 c 256
 239 281 249 300 249 321 c 256
 249 344 236 367 210 390 c 256
 184 413 159 425 134 425 c 256
 108 425 84 415 63 396 c 256
 41 377 30 357 30 334 c 256
 30 312 43 290 70 269 c 256
 97 247 124 236 151 236 c 256
121 55 m 256
 114 55 109 58 105 63 c 257
 100 67 98 72 98 79 c 256
 98 90 105 102 119 115 c 256
 132 128 145 134 158 134 c 256
 165 134 170 131 175 126 c 256
 180 121 183 116 183 109 c 256
 183 99 176 87 161 74 c 256
 146 61 133 55 121 55 c 256
151 0 m 256
 176 0 198 10 218 29 c 256
 239 48 249 69 249 91 c 256
 249 113 236 135 210 156 c 256
 184 178 159 189 134 189 c 256
 108 189 84 180 63 163 c 256
 41 144 30 125 30 104 c 256
 30 81 43 58 70 35 c 256
 97 12 124 0 151 0 c 256
EndSplineSet
PickledDataWithLists: "(dp1
S'com.adobe.type.autohint'
p2
(S'data'
S'<data>\\n  <hintSetList>\\n    <hintset pointTag=\"hr00\">\\n      <hstem pos=\"21\" width=\"-21\"/>\\n      <hstem pos=\"0\" width=\"55\"/>\\n      <hstem pos=\"134\" width=\"55\"/>\\n      <hstem pos=\"236\" width=\"55\"/>\\n      <hstem pos=\"370\" width=\"55\"/>\\n      <vstem pos=\"30\" width=\"68\"/>\\n      <vstem pos=\"183\" width=\"66\"/>\\n    </hintset>\\n  </hintSetList>\\n  </data>'
Ntp3
s."
EndChar

StartChar: uni0C05
Encoding: 120 3077 120
GlifName: uni0C05_
Width: 667
VWidth: 0
Flags: W
LayerCount: 2
Back
Fore
SplineSet
213 279 m 256
NamedP: "hr00"
 206 279 201 281 196 286 c 256
 191 291 189 297 189 304 c 256
 189 313 195 324 208 335 c 256
 221 347 233 353 243 353 c 256
 250 353 255 350 260 345 c 256
 265 340 268 335 268 328 c 256
 268 316 262 305 250 294 c 256
 239 284 226 279 213 279 c 256
NamedP: "hr00"
353 -6 m 256
 426 -6 494 15 556 56 c 256
 619 99 650 145 650 194 c 256
 650 237 630 286 590 339 c 256
 549 392 513 419 480 419 c 256
 453 419 426 409 401 389 c 256
 376 370 364 349 364 328 c 256
 364 310 369 293 380 278 c 256
 391 261 406 247 425 236 c 257
 425 223 416 212 399 203 c 256
 380 194 359 187 334 189 c 258
 255 194 l 258
 242 195 229 191 216 186 c 256
 204 181 193 174 183 164 c 257
 243 121 l 257
 247 129 254 135 265 140 c 257
 277 144 290 146 304 146 c 257
 389 134 l 257
 415 134 438 139 459 151 c 256
 480 163 495 180 504 200 c 257
 485 213 470 226 460 239 c 256
 449 252 444 264 444 274 c 256
 444 289 450 302 463 315 c 256
 475 328 489 334 504 334 c 256
 518 334 533 324 548 305 c 256
 563 285 571 266 571 249 c 256
 571 202 542 159 484 121 c 256
 427 84 360 66 285 66 c 256
 236 66 196 77 166 98 c 256
 136 119 121 148 121 183 c 256
 121 198 124 213 131 228 c 256
 137 243 146 256 158 268 c 257
 169 256 181 247 195 241 c 257
 208 234 222 231 236 231 c 256
 263 231 286 239 305 256 c 256
 324 273 334 293 334 316 c 256
 334 339 320 363 293 388 c 256
 264 414 238 425 213 425 c 256
 173 425 132 402 91 356 c 256
 50 309 30 264 30 219 c 256
 30 160 63 108 128 63 c 256
 193 17 268 -6 353 -6 c 256
EndSplineSet
PickledDataWithLists: "(dp1
S'com.adobe.type.autohint'
p2
(S'data'
S'<data>\\n  <hintSetList>\\n    <hintset pointTag=\"hr00\">\\n      <hstem pos=\"-6\" width=\"72\"/>\\n      <hstem pos=\"146\" width=\"43\"/>\\n      <hstem pos=\"231\" width=\"48\"/>\\n      <hstem pos=\"334\" width=\"85\"/>\\n      <hstem pos=\"353\" width=\"72\"/>\\n      <vstem pos=\"30\" width=\"91\"/>\\n      <vstem pos=\"268\" width=\"66\"/>\\n      <vstem pos=\"425\" width=\"19\"/>\\n      <vstem pos=\"571\" width=\"79\"/>\\n    </hintset>\\n  </hintSetList>\\n  </data>'
Ntp3
s."
EndChar

StartChar: AA
Encoding: 121 3078 121
GlifName: AA_
Width: 655
VWidth: 0
Flags: W
LayerCount: 2
Back
Fore
SplineSet
480 268 m 256
NamedP: "hr00"
 473 268 468 270 463 275 c 256
 458 279 455 284 455 291 c 256
 455 303 461 314 473 324 c 256
 485 335 497 340 510 340 c 256
 517 340 522 338 526 335 c 256
 531 331 534 326 534 321 c 256
 534 308 528 296 516 285 c 256
 505 274 493 268 480 268 c 256
NamedP: "hr00"
213 279 m 256
 206 279 201 281 196 286 c 256
 191 291 189 297 189 304 c 256
 189 313 195 324 208 335 c 256
 221 347 233 353 243 353 c 256
 250 353 255 350 260 345 c 256
 265 340 268 335 268 328 c 256
 268 316 262 305 250 295 c 256
 237 284 225 279 213 279 c 256
359 -6 m 256
 428 -6 492 11 550 45 c 256
 609 79 638 117 638 158 c 256
 638 171 632 184 621 196 c 256
 610 209 595 218 576 225 c 257
 594 238 607 251 616 266 c 256
 626 281 631 296 631 310 c 256
 631 333 614 356 581 381 c 256
 548 406 516 420 486 419 c 256
 458 418 430 403 403 381 c 256
 375 358 362 337 364 316 c 257
 364 301 372 285 388 269 c 256
 403 253 423 240 449 231 c 257
 435 218 418 207 399 200 c 256
 380 193 361 188 340 189 c 258
 249 194 l 258
 238 195 229 192 220 189 c 256
 212 186 205 182 200 176 c 257
 261 109 l 257
 266 116 274 123 284 128 c 256
 294 132 305 134 316 134 c 257
 383 128 l 257
 408 128 433 133 460 144 c 256
 486 154 511 169 534 189 c 257
 540 188 545 186 548 183 c 256
 551 178 553 174 553 170 c 256
 553 144 525 119 470 96 c 256
 415 73 358 61 298 61 c 256
 245 61 202 72 170 94 c 256
 137 117 121 146 121 183 c 256
 121 198 124 213 131 228 c 256
 137 243 146 256 158 268 c 257
 169 256 181 247 195 241 c 257
 208 234 222 231 236 231 c 256
 263 231 286 239 305 256 c 256
 324 273 334 293 334 316 c 256
 334 339 320 363 293 388 c 256
 264 414 238 425 213 425 c 256
 173 425 132 402 91 356 c 256
 50 309 30 264 30 219 c 256
 30 160 63 108 130 63 c 256
 197 17 273 -6 359 -6 c 256
EndSplineSet
PickledDataWithLists: "(dp1
S'com.adobe.type.autohint'
p2
(S'data'
S'<data>\\n  <hintSetList>\\n    <hintset pointTag=\"hr00\">\\n      <hstem pos=\"-6\" width=\"67\"/>\\n      <hstem pos=\"128\" width=\"61\"/>\\n      <hstem pos=\"231\" width=\"48\"/>\\n      <hstem pos=\"340\" width=\"79\"/>\\n      <hstem pos=\"353\" width=\"72\"/>\\n      <vstem pos=\"30\" width=\"91\"/>\\n      <vstem pos=\"268\" width=\"66\"/>\\n      <vstem pos=\"553\" width=\"85\"/>\\n    </hintset>\\n  </hintSetList>\\n  </data>'
Ntp3
s."
EndChar

StartChar: uni0C07
Encoding: 122 3079 122
GlifName: uni0C07_
Width: 636
VWidth: 0
Flags: W
LayerCount: 2
Back
Fore
SplineSet
290 66 m 257
NamedP: "hr00"
 263 66 238 71 215 80 c 256
 192 89 181 98 181 109 c 256
 181 120 187 129 200 138 c 256
 213 147 228 151 243 151 c 256
 260 151 272 143 281 128 c 256
 290 113 293 92 290 66 c 257
NamedP: "hr00"
321 -140 m 257
 332 -128 346 -118 363 -111 c 256
 380 -104 398 -100 418 -97 c 257
 407 -93 398 -82 391 -65 c 256
 384 -46 381 -25 381 0 c 257
 447 0 503 22 549 63 c 256
 596 105 619 154 619 213 c 256
 619 261 592 309 538 358 c 256
 483 407 428 431 375 431 c 256
 350 431 327 426 304 414 c 256
 281 402 263 385 248 364 c 257
 229 385 211 402 194 414 c 257
 175 425 159 431 145 431 c 256
 122 431 97 421 70 400 c 256
 43 379 30 359 30 340 c 256
 30 327 35 313 46 298 c 256
 56 283 71 268 90 255 c 257
 139 285 l 257
 135 289 132 293 130 298 c 257
 127 302 126 306 126 310 c 256
 126 319 131 327 140 334 c 256
 150 342 160 346 169 346 c 256
 176 346 186 342 199 335 c 256
 212 328 226 317 243 304 c 258
 309 255 l 257
 322 285 339 309 360 326 c 256
 381 344 402 353 424 353 c 256
 451 353 478 340 505 314 c 256
 532 288 545 262 545 236 c 256
 545 201 526 166 488 131 c 256
 450 96 412 79 375 79 c 257
 375 104 355 136 314 174 c 256
 272 213 238 231 211 231 c 256
 186 231 157 221 125 199 c 256
 94 178 78 157 78 140 c 256
 78 110 97 82 136 55 c 256
 175 29 225 11 285 0 c 257
 282 -8 281 -22 281 -42 c 256
 281 -62 283 -81 291 -99 c 256
 298 -116 309 -129 321 -140 c 257
EndSplineSet
PickledDataWithLists: "(dp1
S'com.adobe.type.autohint'
p2
(S'data'
S'<data>\\n  <hintSetList>\\n    <hintset pointTag=\"hr00\">\\n      <hstem pos=\"0\" width=\"79\"/>\\n      <hstem pos=\"151\" width=\"80\"/>\\n      <hstem pos=\"353\" width=\"78\"/>\\n      <vstem pos=\"281\" width=\"100\"/>\\n      <vstem pos=\"290\" width=\"85\"/>\\n      <vstem pos=\"545\" width=\"74\"/>\\n    </hintset>\\n  </hintSetList>\\n  </data>'
Ntp3
s."
EndChar

StartChar: II
Encoding: 123 3080 123
GlifName: II_
Width: 1062
VWidth: 0
Flags: W
LayerCount: 2
Back
Fore
SplineSet
856 73 m 256
NamedP: "hr00"
 851 73 847 74 844 76 c 256
 841 79 839 82 839 85 c 256
 839 101 848 117 865 134 c 256
 882 150 900 158 918 158 c 256
 923 158 927 156 930 153 c 256
 933 150 935 145 935 140 c 256
 935 125 926 110 909 95 c 256
 892 80 874 73 856 73 c 256
NamedP: "hr00"
303 255 m 257
 314 279 331 299 356 313 c 256
 382 328 411 334 443 334 c 256
 468 334 492 328 516 315 c 256
 541 302 564 284 583 261 c 257
 303 255 l 257
388 85 m 256
 358 85 332 94 310 115 c 256
 289 135 279 160 279 189 c 257
 407 189 516 197 606 213 c 257
 612 181 592 152 546 125 c 256
 501 98 448 85 388 85 c 256
449 0 m 256
 519 0 579 18 629 54 c 256
 679 90 704 133 704 183 c 256
 704 197 700 211 691 225 c 257
 796 225 l 258
 806 225 818 223 833 219 c 257
 812 207 795 192 783 175 c 256
 771 158 765 140 765 121 c 256
 765 96 781 69 815 41 c 256
 848 13 881 0 911 0 c 256
 938 0 963 11 986 34 c 256
 1009 57 1020 82 1020 109 c 256
 1020 124 1015 139 1006 155 c 256
 996 171 983 186 966 200 c 257
 989 209 1009 221 1024 238 c 256
 1038 255 1045 272 1045 291 c 256
 1045 324 1025 355 984 383 c 256
 943 411 899 425 850 425 c 256
 833 425 819 418 806 404 c 256
 794 391 787 374 784 353 c 257
 863 321 l 257
 870 334 879 345 888 353 c 256
 896 360 904 364 911 364 c 256
 926 364 939 361 950 354 c 256
 961 347 966 338 966 328 c 256
 966 315 960 302 949 288 c 256
 936 273 920 260 899 249 c 257
 890 255 878 260 865 263 c 256
 852 266 837 268 820 268 c 258
 668 268 l 257
 649 300 616 328 571 353 c 256
 526 377 471 395 406 406 c 257
 413 417 428 428 451 438 c 256
 474 447 504 454 540 461 c 256
 573 467 602 477 626 490 c 256
 651 504 668 521 679 540 c 257
 570 614 l 257
 556 589 535 568 508 551 c 256
 480 534 448 522 413 516 c 256
 365 507 322 493 283 471 c 256
 243 449 209 422 181 389 c 257
 260 334 l 257
 249 325 239 316 230 305 c 256
 222 294 216 281 211 268 c 257
 189 268 167 272 146 279 c 256
 125 286 107 297 90 310 c 257
 30 213 l 257
 65 193 104 183 145 183 c 258
 194 183 l 257
 203 130 232 85 280 51 c 256
 329 16 385 0 449 0 c 256
EndSplineSet
PickledDataWithLists: "(dp1
S'com.adobe.type.autohint'
p2
(S'data'
S'<data>\\n  <hintSetList>\\n    <hintset pointTag=\"hr00\">\\n      <hstem pos=\"0\" width=\"85\"/>\\n      <hstem pos=\"0\" width=\"73\"/>\\n      <hstem pos=\"183\" width=\"85\"/>\\n      <hstem pos=\"189\" width=\"69\"/>\\n      <hstem pos=\"225\" width=\"43\"/>\\n      <hstem pos=\"364\" width=\"61\"/>\\n      <vstem pos=\"30\" width=\"1015\"/>\\n      <vstem pos=\"606\" width=\"98\"/>\\n      <vstem pos=\"765\" width=\"74\"/>\\n      <vstem pos=\"935\" width=\"85\"/>\\n      <vstem pos=\"966\" width=\"79\"/>\\n    </hintset>\\n  </hintSetList>\\n  </data>'
Ntp3
s."
EndChar

StartChar: uni0C09
Encoding: 124 3081 124
GlifName: uni0C09_
Width: 745
VWidth: 0
Flags: W
LayerCount: 2
Back
Fore
SplineSet
291 0 m 256
NamedP: "hr00"
 314 0 335 5 354 15 c 256
 373 24 389 38 400 55 c 257
 421 38 442 24 463 14 c 256
 484 5 503 0 521 0 c 258
 600 0 l 258
 632 0 661 11 688 34 c 256
 715 57 728 82 728 109 c 256
 728 142 712 174 681 206 c 256
 650 239 620 255 589 255 c 256
 566 255 545 249 526 238 c 256
 506 226 490 210 479 189 c 257
 551 121 l 257
 557 138 568 151 583 161 c 256
 597 171 613 176 631 176 c 256
 636 176 641 174 644 169 c 256
 647 164 649 158 649 151 c 256
 649 130 636 111 611 95 c 256
 586 80 556 73 521 73 c 256
 500 73 482 76 466 81 c 256
 451 86 439 94 430 104 c 257
 437 115 449 127 466 140 c 257
 400 206 l 257
 391 206 379 199 366 186 c 256
 354 174 341 157 328 134 c 256
 318 117 307 104 295 94 c 256
 282 84 271 79 260 79 c 256
 245 79 233 86 223 99 c 256
 212 112 206 128 206 146 c 256
 206 165 210 181 218 194 c 257
 406 225 l 258
 409 225 415 223 424 219 c 256
 435 214 446 209 455 206 c 257
 509 279 l 257
 484 296 459 304 436 304 c 256
 415 304 384 297 343 285 c 256
 302 273 270 268 249 268 c 257
 260 293 280 314 308 330 c 256
 335 345 366 353 400 353 c 256
 419 353 448 348 485 338 c 256
 522 327 551 321 570 321 c 256
 589 321 606 325 623 333 c 256
 640 340 655 351 668 364 c 257
 606 438 l 257
 593 425 577 416 558 411 c 256
 539 407 519 408 498 413 c 257
 488 421 480 430 475 440 c 257
 469 449 466 459 466 468 c 256
 466 483 477 502 498 525 c 256
 518 548 528 568 528 583 c 258
 528 608 l 257
 406 644 l 257
 411 632 413 624 413 619 c 256
 413 606 407 587 395 564 c 256
 382 541 376 523 376 510 c 256
 376 484 386 454 406 419 c 257
 395 423 371 425 334 425 c 256
 300 425 266 413 231 389 c 256
 198 366 169 333 145 291 c 257
 141 291 135 293 126 298 c 256
 118 302 108 308 96 316 c 257
 30 225 l 257
 44 214 59 205 75 198 c 256
 90 192 106 189 121 189 c 257
 121 170 l 258
 121 129 139 90 175 54 c 256
 211 18 250 0 291 0 c 256
NamedP: "hr00"
EndSplineSet
PickledDataWithLists: "(dp1
S'com.adobe.type.autohint'
p2
(S'data'
S'<data>\\n  <hintSetList>\\n    <hintset pointTag=\"hr00\">\\n      <hstem pos=\"0\" width=\"73\"/>\\n      <hstem pos=\"176\" width=\"79\"/>\\n      <hstem pos=\"321\" width=\"92\"/>\\n      <hstem pos=\"353\" width=\"72\"/>\\n      <vstem pos=\"121\" width=\"85\"/>\\n      <vstem pos=\"376\" width=\"90\"/>\\n      <vstem pos=\"413\" width=\"115\"/>\\n      <vstem pos=\"649\" width=\"79\"/>\\n    </hintset>\\n  </hintSetList>\\n  </data>'
Ntp3
s."
EndChar

StartChar: UU
Encoding: 125 3082 125
GlifName: UU_
Width: 1080
VWidth: 0
Flags: W
LayerCount: 2
Back
Fore
SplineSet
260 79 m 256
NamedP: "hr00"
 245 79 233 85 223 96 c 256
 212 109 206 123 206 140 c 256
 206 159 210 177 218 194 c 257
 521 236 l 257
 508 231 497 224 488 215 c 256
 479 207 471 198 466 189 c 257
 540 121 l 257
 546 138 557 151 574 161 c 256
 591 171 610 176 631 176 c 256
 636 176 641 174 644 169 c 256
 647 164 649 158 649 151 c 256
 649 130 636 111 611 95 c 256
 586 80 556 73 521 73 c 256
 500 73 482 76 466 81 c 256
 451 86 439 94 430 104 c 257
 437 115 449 127 466 140 c 257
 400 206 l 257
 391 206 379 199 366 186 c 256
 354 174 341 157 328 134 c 256
 318 117 307 104 295 94 c 256
 282 84 271 79 260 79 c 256
NamedP: "hr00"
880 73 m 256
 875 73 871 75 868 78 c 256
 865 82 863 86 863 91 c 256
 863 110 870 126 885 141 c 256
 900 156 917 164 935 164 c 256
 942 164 948 162 953 159 c 256
 958 156 960 151 960 146 c 256
 960 126 952 109 935 94 c 256
 918 78 900 71 880 73 c 256
291 0 m 256
 314 0 335 5 354 15 c 256
 373 24 389 38 400 55 c 257
 425 38 449 23 471 14 c 256
 494 4 515 0 534 0 c 256
 582 0 626 12 666 36 c 256
 707 61 728 87 728 115 c 256
 728 135 720 156 705 178 c 256
 690 199 670 218 643 236 c 257
 778 234 l 258
 811 234 835 226 850 219 c 257
 831 206 816 191 806 174 c 256
 795 157 790 139 790 121 c 256
 790 94 806 67 839 40 c 256
 872 13 904 0 935 0 c 256
 964 0 990 11 1014 34 c 256
 1038 57 1050 82 1050 109 c 256
 1050 125 1045 141 1034 156 c 257
 1024 173 1009 187 990 200 c 257
 1013 213 1030 229 1043 248 c 256
 1056 266 1063 285 1063 304 c 256
 1063 334 1044 362 1005 388 c 256
 967 413 925 425 880 425 c 256
 861 425 844 418 830 403 c 256
 815 388 806 369 801 346 c 257
 820 346 846 338 880 321 c 257
 885 334 893 344 904 353 c 257
 915 360 928 364 941 364 c 256
 954 364 966 360 976 351 c 256
 985 343 990 333 990 321 c 256
 990 312 983 301 970 288 c 256
 957 275 940 262 918 249 c 257
 897 263 863 273 816 280 c 256
 769 287 712 291 643 291 c 257
 315 261 l 257
 278 261 254 263 243 268 c 257
 254 293 274 314 303 330 c 256
 331 345 363 353 400 353 c 256
 419 353 448 348 485 338 c 256
 522 327 551 321 570 321 c 256
 589 321 606 325 623 333 c 256
 640 340 655 351 668 364 c 257
 606 438 l 257
 595 427 582 419 568 414 c 256
 555 410 541 410 528 413 c 257
 523 418 520 423 519 429 c 257
 516 436 515 442 515 449 c 256
 515 466 525 487 543 515 c 256
 562 543 570 566 570 583 c 258
 570 608 l 257
 461 644 l 257
 461 625 l 258
 461 610 456 589 443 561 c 256
 431 534 424 513 424 498 c 256
 424 482 428 466 436 450 c 256
 445 434 457 419 473 406 c 257
 442 406 409 410 376 419 c 257
 371 430 l 257
 370 435 370 442 370 449 c 256
 370 468 380 494 398 528 c 256
 416 561 424 589 424 608 c 257
 309 644 l 258
 312 643 313 640 314 634 c 256
 315 629 315 622 315 614 c 256
 315 601 309 584 298 563 c 256
 285 540 279 523 279 510 c 256
 279 481 287 452 303 425 c 257
 274 420 246 406 219 383 c 256
 192 360 167 329 145 291 c 257
 141 291 135 293 126 298 c 256
 118 302 108 308 96 316 c 257
 30 225 l 257
 44 214 59 205 75 198 c 256
 90 192 106 189 121 189 c 257
 121 170 l 258
 121 129 139 90 175 54 c 256
 211 18 250 0 291 0 c 256
EndSplineSet
PickledDataWithLists: "(dp1
S'com.adobe.type.autohint'
p2
(S'data'
S'<data>\\n  <hintSetList>\\n    <hintset pointTag=\"hr00\">\\n      <hstem pos=\"0\" width=\"73\"/>\\n      <hstem pos=\"0\" width=\"79\"/>\\n      <hstem pos=\"235\" width=\"56\"/>\\n      <hstem pos=\"321\" width=\"92\"/>\\n      <hstem pos=\"353\" width=\"53\"/>\\n      <hstem pos=\"364\" width=\"61\"/>\\n      <vstem pos=\"121\" width=\"85\"/>\\n      <vstem pos=\"279\" width=\"91\"/>\\n      <vstem pos=\"461\" width=\"109\"/>\\n      <vstem pos=\"649\" width=\"79\"/>\\n      <vstem pos=\"790\" width=\"73\"/>\\n      <vstem pos=\"960\" width=\"90\"/>\\n      <vstem pos=\"990\" width=\"73\"/>\\n    </hintset>\\n  </hintSetList>\\n  </data>'
Ntp3
s."
EndChar

StartChar: Ru
Encoding: 126 3083 126
GlifName: Ru_
Width: 1300
VWidth: 0
Flags: W
LayerCount: 2
Back
Fore
SplineSet
213 0 m 256
NamedP: "hr00"
 228 0 246 5 265 16 c 256
 284 27 302 42 321 61 c 257
 340 42 362 27 386 16 c 256
 411 5 436 0 461 0 c 256
 487 0 512 11 535 31 c 256
 559 52 578 78 591 113 c 257
 610 78 635 50 668 30 c 256
 700 10 734 0 771 0 c 256
 802 0 832 10 860 30 c 256
 889 50 911 77 928 111 c 257
 946 77 971 50 1003 30 c 256
 1035 10 1069 0 1106 0 c 256
 1149 0 1190 20 1228 61 c 256
 1265 101 1283 145 1283 194 c 256
 1283 215 1275 236 1259 259 c 256
 1242 282 1220 302 1191 321 c 256
 1180 329 1171 337 1165 346 c 256
 1158 355 1155 363 1155 370 c 256
 1155 374 1157 379 1160 384 c 256
 1163 390 1168 396 1174 401 c 257
 1083 444 l 257
 1070 437 1059 427 1051 416 c 256
 1044 405 1040 394 1040 383 c 256
 1040 374 1047 363 1061 350 c 256
 1074 337 1094 324 1119 310 c 256
 1142 297 1159 282 1171 266 c 256
 1184 249 1191 234 1191 219 c 256
 1191 183 1178 150 1151 119 c 256
 1124 88 1095 73 1064 73 c 256
 1042 73 1021 80 1000 94 c 256
 979 107 960 126 943 151 c 257
 946 164 948 179 948 194 c 256
 948 215 940 236 924 259 c 256
 907 282 885 302 856 321 c 256
 845 329 836 337 830 346 c 256
 823 355 820 363 820 370 c 256
 820 374 822 379 825 384 c 256
 828 390 833 396 839 401 c 257
 748 444 l 257
 735 437 724 427 716 416 c 256
 709 405 705 394 705 383 c 256
 705 374 712 363 726 350 c 256
 739 337 759 324 784 310 c 256
 807 297 824 282 836 266 c 256
 849 249 856 234 856 219 c 256
 856 183 843 150 816 119 c 256
 789 88 760 73 729 73 c 256
 707 73 685 80 664 95 c 256
 641 110 621 131 604 156 c 257
 607 171 608 183 608 194 c 256
 608 215 599 238 581 261 c 256
 564 284 541 307 510 328 c 256
 501 335 493 342 488 350 c 256
 483 359 480 367 480 376 c 256
 480 382 481 388 483 393 c 256
 485 398 488 403 491 406 c 257
 457 412 427 423 401 438 c 257
 390 431 381 423 374 413 c 256
 367 403 364 393 364 383 c 256
 364 374 370 364 381 353 c 256
 394 340 410 328 431 316 c 256
 454 303 471 288 484 271 c 256
 497 254 504 236 504 219 c 256
 504 180 494 144 473 111 c 256
 453 78 431 61 406 61 c 256
 396 61 386 66 375 76 c 256
 364 85 359 95 359 104 c 256
 359 109 362 114 369 120 c 256
 376 127 384 133 395 140 c 257
 321 206 l 257
 314 206 305 201 294 190 c 256
 283 179 272 165 261 146 c 256
 250 125 237 109 223 96 c 257
 208 85 195 79 183 79 c 256
 170 79 158 84 148 95 c 256
 139 106 134 119 134 134 c 256
 134 148 139 163 149 178 c 256
 158 193 172 206 189 219 c 256
 214 237 232 253 246 268 c 256
 260 284 268 295 268 304 c 256
 268 327 254 354 226 383 c 256
 199 411 174 425 151 425 c 256
 124 425 97 417 70 401 c 256
 43 384 30 368 30 353 c 256
 30 343 34 331 43 318 c 256
 51 305 63 292 79 279 c 257
 109 304 l 257
 106 305 103 307 100 310 c 257
 99 313 98 317 98 321 c 256
 98 330 104 338 115 346 c 256
 128 355 140 359 151 359 c 256
 158 359 164 356 169 351 c 256
 174 346 176 341 176 334 c 256
 176 327 171 318 161 308 c 257
 152 297 139 285 121 274 c 256
 100 262 84 247 73 229 c 256
 61 210 55 190 55 170 c 256
 55 135 73 98 110 59 c 256
 146 20 180 0 213 0 c 256
NamedP: "hr00"
EndSplineSet
PickledDataWithLists: "(dp1
S'com.adobe.type.autohint'
p2
(S'data'
S'<data>\\n  <hintSetList>\\n    <hintset pointTag=\"hr00\">\\n      <hstem pos=\"0\" width=\"73\"/>\\n      <hstem pos=\"0\" width=\"61\"/>\\n      <hstem pos=\"0\" width=\"79\"/>\\n      <hstem pos=\"359\" width=\"66\"/>\\n      <vstem pos=\"55\" width=\"79\"/>\\n      <vstem pos=\"504\" width=\"104\"/>\\n      <vstem pos=\"856\" width=\"92\"/>\\n      <vstem pos=\"1191\" width=\"92\"/>\\n    </hintset>\\n  </hintSetList>\\n  </data>'
Ntp3
s."
EndChar

StartChar: Lu
Encoding: 127 3084 127
GlifName: Lu_
Width: 807
VWidth: 0
Flags: W
LayerCount: 2
Back
Fore
SplineSet
444 425 m 256
NamedP: "hr00"
 423 425 402 419 380 409 c 256
 357 398 336 384 316 364 c 257
 293 384 269 399 244 409 c 256
 218 420 193 425 170 425 c 256
 132 425 99 416 71 394 c 256
 44 373 30 346 30 316 c 256
 30 307 36 295 46 280 c 256
 57 264 61 252 61 243 c 256
 61 234 59 227 55 220 c 256
 50 213 44 209 36 206 c 257
 128 158 l 257
 135 163 141 170 146 178 c 256
 151 185 153 193 153 200 c 256
 153 209 149 222 138 238 c 256
 128 253 121 265 121 274 c 256
 121 295 131 315 151 330 c 256
 172 346 197 353 225 353 c 256
 240 353 254 350 265 344 c 257
 277 339 286 331 291 321 c 257
 282 306 270 294 255 285 c 257
 328 219 l 257
 341 219 355 224 368 236 c 256
 382 248 392 265 401 285 c 256
 410 304 420 319 431 330 c 256
 444 342 456 346 468 346 c 256
 481 346 493 342 503 333 c 257
 512 323 516 311 516 298 c 256
 516 258 485 213 423 164 c 256
 360 115 328 70 328 30 c 256
 328 -9 354 -48 405 -87 c 256
 457 -126 508 -146 559 -146 c 256
 610 -146 661 -118 713 -62 c 256
 764 -7 790 49 790 104 c 256
 790 177 778 241 755 298 c 256
 731 355 698 397 656 425 c 257
 620 401 l 257
 651 376 674 341 691 298 c 256
 708 253 716 204 716 151 c 256
 716 100 696 50 659 -1 c 256
 621 -53 584 -79 546 -79 c 256
 513 -79 484 -71 460 -54 c 256
 437 -37 425 -17 425 6 c 256
 425 43 453 84 510 130 c 256
 567 177 595 218 595 255 c 256
 595 290 578 327 543 366 c 256
 508 405 475 425 444 425 c 256
NamedP: "hr00"
EndSplineSet
PickledDataWithLists: "(dp1
S'com.adobe.type.autohint'
p2
(S'data'
S'<data>\\n  <hintSetList>\\n    <hintset pointTag=\"hr00\">\\n      <hstem pos=\"-146\" width=\"67\"/>\\n      <hstem pos=\"346\" width=\"79\"/>\\n      <hstem pos=\"353\" width=\"72\"/>\\n      <vstem pos=\"61\" width=\"60\"/>\\n      <vstem pos=\"328\" width=\"97\"/>\\n      <vstem pos=\"516\" width=\"79\"/>\\n      <vstem pos=\"716\" width=\"74\"/>\\n    </hintset>\\n  </hintSetList>\\n  </data>'
Ntp3
s."
EndChar

StartChar: uni0C0E
Encoding: 128 3086 128
GlifName: uni0C0E_
Width: 617
VWidth: 0
Flags: W
LayerCount: 2
Back
Fore
SplineSet
139 73 m 256
NamedP: "hr00"
 132 73 127 75 123 80 c 256
 118 85 115 91 115 98 c 256
 115 113 125 129 144 146 c 256
 163 162 182 170 200 170 c 256
 205 170 210 168 213 163 c 256
 216 158 218 153 218 146 c 256
 218 131 209 115 191 98 c 256
 174 81 156 73 139 73 c 256
NamedP: "hr00"
175 0 m 256
 198 0 219 5 239 15 c 256
 258 24 274 38 285 55 c 257
 306 38 327 24 350 14 c 256
 372 5 393 0 413 0 c 256
 460 0 502 22 541 65 c 256
 580 108 600 155 600 206 c 256
 600 221 593 237 579 256 c 256
 566 275 546 295 521 316 c 256
 504 331 490 346 481 360 c 256
 471 375 466 389 466 401 c 256
 466 412 467 422 470 429 c 257
 472 437 475 444 479 449 c 257
 370 486 l 257
 362 472 358 458 358 444 c 256
 358 427 363 408 373 388 c 256
 384 368 399 348 418 328 c 256
 439 305 456 284 468 264 c 256
 479 244 485 227 485 213 c 256
 485 173 475 138 455 109 c 256
 434 80 410 66 381 66 c 256
 370 66 359 69 346 76 c 256
 334 83 322 92 309 104 c 257
 309 131 293 163 261 198 c 256
 230 232 201 249 175 249 c 256
 144 249 112 236 79 210 c 256
 46 184 30 159 30 134 c 256
 30 105 46 75 79 45 c 256
 112 15 144 0 175 0 c 256
EndSplineSet
PickledDataWithLists: "(dp1
S'com.adobe.type.autohint'
p2
(S'data'
S'<data>\\n  <hintSetList>\\n    <hintset pointTag=\"hr00\">\\n      <hstem pos=\"0\" width=\"66\"/>\\n      <hstem pos=\"0\" width=\"73\"/>\\n      <hstem pos=\"170\" width=\"79\"/>\\n      <vstem pos=\"30\" width=\"85\"/>\\n      <vstem pos=\"358\" width=\"108\"/>\\n      <vstem pos=\"485\" width=\"115\"/>\\n    </hintset>\\n  </hintSetList>\\n  </data>'
Ntp3
s."
EndChar

StartChar: EE
Encoding: 129 3087 129
GlifName: EE_
Width: 618
VWidth: 0
Flags: W
LayerCount: 2
Back
Fore
SplineSet
219 376 m 257
NamedP: "hr00"
 206 381 196 388 188 395 c 256
 180 402 176 410 176 419 c 256
 176 430 186 441 206 454 c 256
 226 467 252 477 285 486 c 256
 306 492 321 497 331 501 c 256
 343 506 350 511 353 516 c 257
 314 539 283 563 261 589 c 257
 256 582 248 575 235 569 c 256
 222 562 207 557 189 553 c 256
 150 543 118 527 93 506 c 256
 68 485 55 462 55 438 c 256
 55 419 67 399 90 379 c 256
 113 359 144 342 183 328 c 257
 219 376 l 257
NamedP: "hr00"
140 73 m 256
 133 73 128 75 123 80 c 256
 118 85 115 91 115 98 c 256
 115 113 125 129 144 146 c 256
 163 162 182 170 200 170 c 256
 205 170 210 168 214 163 c 256
 217 158 219 153 219 146 c 256
 219 131 210 115 193 98 c 256
 175 81 157 73 140 73 c 256
176 0 m 256
 199 0 220 5 239 15 c 256
 258 24 274 38 285 55 c 257
 306 38 327 24 350 14 c 256
 372 5 393 0 413 0 c 256
 460 0 503 22 543 65 c 256
 582 108 601 155 601 206 c 256
 601 221 594 237 580 256 c 256
 567 275 548 295 523 316 c 256
 505 331 492 346 483 360 c 256
 473 375 468 389 468 401 c 256
 468 412 469 422 471 429 c 256
 473 437 476 444 480 449 c 257
 370 486 l 257
 363 473 359 459 359 444 c 256
 359 427 364 408 374 388 c 256
 385 368 400 348 419 328 c 256
 440 305 457 284 469 264 c 256
 480 244 486 227 486 213 c 256
 486 173 476 138 456 109 c 256
 435 80 411 66 383 66 c 256
 372 66 360 69 348 76 c 256
 335 83 323 92 310 104 c 257
 310 131 295 163 263 198 c 256
 232 232 202 249 176 249 c 256
 144 249 112 236 79 210 c 256
 46 184 30 159 30 134 c 256
 30 105 46 75 79 45 c 256
 112 15 144 0 176 0 c 256
EndSplineSet
PickledDataWithLists: "(dp1
S'com.adobe.type.autohint'
p2
(S'data'
S'<data>\\n  <hintSetList>\\n    <hintset pointTag=\"hr00\">\\n      <hstem pos=\"0\" width=\"66\"/>\\n      <hstem pos=\"0\" width=\"73\"/>\\n      <hstem pos=\"170\" width=\"79\"/>\\n      <vstem pos=\"30\" width=\"85\"/>\\n      <vstem pos=\"359\" width=\"109\"/>\\n      <vstem pos=\"486\" width=\"115\"/>\\n    </hintset>\\n  </hintSetList>\\n  </data>'
Ntp3
s."
EndChar

StartChar: AI
Encoding: 130 3088 130
GlifName: AI_
Width: 533
VWidth: 0
Flags: W
LayerCount: 2
Back
Fore
SplineSet
166 70 m 256
NamedP: "hr00"
 179 70 193 74 206 82 c 256
 219 89 232 100 244 114 c 257
 261 100 281 89 306 81 c 256
 330 74 356 70 385 70 c 256
 414 70 443 88 472 124 c 256
 501 159 516 195 516 230 c 256
 516 271 493 312 448 353 c 256
 402 394 357 415 312 415 c 256
 291 415 271 410 252 401 c 256
 233 391 217 378 205 361 c 257
 190 378 176 392 162 401 c 256
 147 410 134 415 122 415 c 256
 102 415 82 407 61 391 c 256
 40 374 30 358 30 342 c 256
 30 335 35 327 44 317 c 256
 53 308 67 297 84 284 c 257
 118 303 l 257
 115 306 112 310 111 313 c 256
 109 316 108 320 108 323 c 256
 108 328 112 334 119 339 c 256
 127 344 135 347 142 347 c 256
 147 347 155 344 165 338 c 256
 175 332 186 323 200 313 c 258
 254 274 l 257
 265 298 278 317 295 331 c 256
 312 345 329 352 346 352 c 256
 367 352 389 342 411 320 c 256
 433 298 443 276 443 255 c 256
 443 226 430 196 405 167 c 256
 380 138 356 123 331 123 c 256
 322 123 313 126 303 131 c 256
 293 136 283 144 273 153 c 257
 279 160 284 166 289 170 c 256
 294 174 299 176 302 177 c 257
 249 235 l 257
 238 234 227 230 216 221 c 256
 205 212 197 201 190 187 c 256
 182 170 173 157 162 148 c 257
 152 138 142 133 132 133 c 256
 123 133 115 137 108 146 c 256
 101 155 98 165 98 177 c 256
 98 187 103 197 113 206 c 257
 122 216 132 221 142 221 c 256
 150 221 160 218 171 211 c 257
 186 230 l 257
 183 239 174 246 160 251 c 256
 145 256 128 259 108 259 c 256
 87 259 68 252 53 238 c 256
 38 224 30 207 30 187 c 256
 30 164 46 139 78 112 c 256
 111 84 140 70 166 70 c 256
NamedP: "hr00"
EndSplineSet
PickledDataWithLists: "(dp1
S'com.adobe.type.autohint'
p2
(S'data'
S'<data>\\n  <hintSetList>\\n    <hintset pointTag=\"hr00\">\\n      <hstem pos=\"70\" width=\"53\"/>\\n      <hstem pos=\"70\" width=\"63\"/>\\n      <hstem pos=\"221\" width=\"38\"/>\\n      <hstem pos=\"352\" width=\"63\"/>\\n      <vstem pos=\"30\" width=\"68\"/>\\n      <vstem pos=\"443\" width=\"73\"/>\\n    </hintset>\\n  </hintSetList>\\n  </data>'
Ntp3
s."
EndChar

StartChar: uni0C12
Encoding: 131 3090 131
GlifName: uni0C12_
Width: 637
VWidth: 0
Flags: W
LayerCount: 2
Back
Fore
SplineSet
206 0 m 256
NamedP: "hr00"
 228 0 250 5 273 16 c 256
 294 27 315 42 334 61 c 257
 357 41 381 26 406 16 c 256
 432 5 457 0 480 0 c 256
 519 0 552 10 579 31 c 256
 606 53 620 79 620 109 c 256
 620 118 614 130 604 145 c 256
 593 161 589 174 589 183 c 256
 589 191 591 198 595 205 c 256
 600 212 607 216 614 219 c 257
 523 268 l 257
 515 263 509 256 504 249 c 256
 500 242 498 234 498 225 c 256
 498 216 504 204 514 189 c 256
 525 173 529 160 529 151 c 256
 529 130 519 110 499 95 c 256
 478 79 454 73 425 73 c 256
 410 73 397 76 385 81 c 256
 374 86 365 94 359 104 c 257
 368 119 380 131 395 140 c 257
 323 206 l 257
 310 206 297 201 284 189 c 256
 270 177 259 160 249 140 c 256
 240 122 229 107 218 95 c 257
 205 84 194 79 183 79 c 256
 170 79 158 84 148 93 c 257
 139 103 134 115 134 128 c 256
 134 139 140 153 151 168 c 256
 163 183 179 198 200 213 c 256
 223 230 241 247 254 264 c 256
 267 281 274 296 274 310 c 256
 274 335 259 361 229 386 c 256
 199 412 169 425 140 425 c 256
 116 425 91 416 66 399 c 256
 42 382 30 364 30 346 c 256
 30 336 34 325 43 314 c 256
 52 301 64 290 79 279 c 257
 115 304 l 257
 106 313 l 257
 105 316 104 319 104 321 c 256
 104 330 109 338 120 346 c 256
 131 355 142 359 153 359 c 256
 160 359 165 356 169 351 c 256
 174 346 176 341 176 334 c 256
 176 327 171 318 161 306 c 256
 153 295 140 283 121 268 c 256
 100 250 84 232 73 215 c 256
 61 198 55 183 55 170 c 256
 55 135 73 98 108 59 c 256
 143 20 175 0 206 0 c 256
NamedP: "hr00"
EndSplineSet
PickledDataWithLists: "(dp1
S'com.adobe.type.autohint'
p2
(S'data'
S'<data>\\n  <hintSetList>\\n    <hintset pointTag=\"hr00\">\\n      <hstem pos=\"0\" width=\"73\"/>\\n      <hstem pos=\"0\" width=\"79\"/>\\n      <hstem pos=\"359\" width=\"66\"/>\\n      <vstem pos=\"30\" width=\"590\"/>\\n      <vstem pos=\"55\" width=\"79\"/>\\n      <vstem pos=\"529\" width=\"60\"/>\\n    </hintset>\\n  </hintSetList>\\n  </data>'
Ntp3
s."
EndChar

StartChar: OO
Encoding: 132 3091 132
GlifName: OO_
Width: 636
VWidth: 0
Flags: W
LayerCount: 2
Back
Fore
SplineSet
206 0 m 256
NamedP: "hr00"
 228 0 250 5 273 16 c 256
 294 27 315 42 334 61 c 257
 357 41 381 26 406 16 c 256
 432 5 457 0 480 0 c 256
 519 0 551 10 578 31 c 256
 605 53 619 79 619 109 c 256
 619 118 614 130 604 145 c 256
 594 161 589 174 589 183 c 256
 589 191 591 198 595 205 c 256
 600 212 607 216 614 219 c 257
 523 268 l 257
 515 263 509 256 504 249 c 256
 500 242 498 234 498 225 c 256
 498 216 503 204 513 189 c 256
 524 173 529 160 529 151 c 256
 529 130 519 110 499 95 c 256
 478 79 454 73 425 73 c 256
 410 73 397 76 385 81 c 256
 374 86 365 94 359 104 c 257
 368 119 380 131 395 140 c 257
 321 206 l 257
 309 206 297 201 284 189 c 256
 270 177 259 160 249 140 c 256
 240 122 229 107 218 95 c 257
 205 84 194 79 183 79 c 256
 170 79 158 84 148 93 c 257
 139 103 134 115 134 128 c 256
 134 139 140 153 151 168 c 256
 163 183 179 198 200 213 c 256
 227 232 245 246 254 255 c 256
 267 267 274 277 274 285 c 256
 274 314 263 344 241 374 c 256
 220 404 198 419 176 419 c 257
 174 422 172 426 171 433 c 256
 170 438 170 448 170 461 c 256
 170 471 173 482 178 494 c 256
 183 505 190 517 200 529 c 256
 210 540 218 551 224 561 c 256
 229 570 231 578 231 583 c 256
 231 592 229 600 225 608 c 257
 109 638 l 257
 113 633 116 628 118 624 c 256
 120 620 121 617 121 614 c 256
 121 600 114 582 98 559 c 256
 82 536 73 518 73 504 c 256
 73 493 77 481 84 466 c 256
 91 453 102 439 115 425 c 257
 89 416 69 404 54 390 c 256
 38 375 30 361 30 346 c 256
 30 336 34 325 43 314 c 256
 52 301 64 290 79 279 c 257
 115 304 l 257
 106 313 l 257
 105 316 104 319 104 321 c 256
 104 330 109 338 120 346 c 257
 130 355 140 359 151 359 c 256
 158 359 164 356 169 351 c 256
 174 346 176 341 176 334 c 256
 176 327 171 318 161 306 c 256
 153 295 140 283 121 268 c 256
 100 250 84 232 73 215 c 256
 61 198 55 183 55 170 c 256
 55 135 73 98 108 59 c 256
 143 20 175 0 206 0 c 256
NamedP: "hr00"
EndSplineSet
PickledDataWithLists: "(dp1
S'com.adobe.type.autohint'
p2
(S'data'
S'<data>\\n  <hintSetList>\\n    <hintset pointTag=\"hr00\">\\n      <hstem pos=\"0\" width=\"73\"/>\\n      <hstem pos=\"0\" width=\"79\"/>\\n      <vstem pos=\"30\" width=\"589\"/>\\n      <vstem pos=\"55\" width=\"79\"/>\\n      <vstem pos=\"73\" width=\"97\"/>\\n      <vstem pos=\"529\" width=\"60\"/>\\n    </hintset>\\n  </hintSetList>\\n  </data>'
Ntp3
s."
EndChar

StartChar: AU
Encoding: 133 3092 133
GlifName: AU_
Width: 661
VWidth: 0
Flags: W
LayerCount: 2
Back
Fore
SplineSet
504 376 m 256
NamedP: "hr00"
 497 376 492 379 488 384 c 256
 483 389 480 394 480 401 c 256
 480 414 489 428 506 444 c 256
 523 460 538 468 553 468 c 256
 558 468 562 465 566 460 c 256
 569 456 571 451 571 444 c 256
 571 431 563 416 548 400 c 256
 532 384 517 376 504 376 c 256
NamedP: "hr00"
206 0 m 256
 228 0 250 5 273 16 c 256
 294 27 315 42 334 61 c 257
 357 41 381 26 406 16 c 256
 432 5 457 0 480 0 c 256
 519 0 552 10 579 31 c 256
 606 53 620 79 620 109 c 256
 620 119 614 133 604 151 c 256
 593 170 589 184 589 194 c 256
 589 199 591 203 595 208 c 256
 600 213 607 216 614 219 c 257
 523 268 l 257
 515 263 509 256 504 249 c 256
 500 242 498 234 498 225 c 256
 498 216 504 204 514 189 c 256
 525 173 529 160 529 151 c 256
 529 130 519 110 499 95 c 256
 478 79 454 73 425 73 c 256
 410 73 397 76 385 81 c 256
 374 86 365 94 359 104 c 257
 368 119 380 131 395 140 c 257
 323 206 l 257
 310 206 297 201 284 189 c 256
 270 177 259 160 249 140 c 256
 240 122 229 107 218 95 c 257
 205 84 194 79 183 79 c 256
 170 79 158 84 148 93 c 257
 139 103 134 115 134 128 c 256
 134 139 140 153 151 168 c 256
 163 183 179 198 200 213 c 256
 223 230 241 246 254 263 c 256
 267 278 274 292 274 304 c 256
 274 314 270 325 263 338 c 257
 255 350 244 363 231 376 c 257
 251 384 267 394 279 406 c 256
 292 418 298 431 298 444 c 256
 298 455 293 467 283 480 c 256
 274 493 260 505 243 516 c 257
 265 525 307 529 370 529 c 258
 380 529 l 258
 439 529 475 527 486 523 c 257
 461 517 441 505 425 486 c 256
 409 468 401 448 401 425 c 256
 401 400 415 373 445 345 c 256
 474 317 502 304 529 304 c 256
 557 304 584 316 608 341 c 256
 633 367 644 395 644 425 c 256
 644 460 622 495 579 530 c 256
 536 565 493 583 450 583 c 258
 291 583 l 258
 247 583 208 587 175 595 c 256
 142 604 117 616 98 631 c 257
 30 529 l 257
 39 519 49 511 61 506 c 256
 74 501 89 498 104 498 c 258
 164 498 l 258
 174 498 183 495 190 490 c 256
 197 486 200 481 200 474 c 256
 200 465 193 455 180 446 c 256
 167 437 149 430 128 425 c 256
 99 418 76 407 58 393 c 256
 39 378 30 362 30 346 c 256
 30 336 34 325 43 314 c 256
 52 301 64 290 79 279 c 257
 115 304 l 257
 106 313 l 257
 105 316 104 319 104 321 c 256
 104 330 109 338 120 346 c 256
 131 355 142 359 153 359 c 256
 160 359 165 356 169 351 c 256
 174 346 176 341 176 334 c 256
 176 327 171 318 161 306 c 256
 153 295 140 283 121 268 c 256
 100 250 84 232 73 215 c 256
 61 198 55 183 55 170 c 256
 55 135 73 98 108 59 c 256
 143 20 175 0 206 0 c 256
EndSplineSet
PickledDataWithLists: "(dp1
S'com.adobe.type.autohint'
p2
(S'data'
S'<data>\\n  <hintSetList>\\n    <hintset pointTag=\"hr00\">\\n      <hstem pos=\"0\" width=\"73\"/>\\n      <hstem pos=\"0\" width=\"79\"/>\\n      <hstem pos=\"304\" width=\"72\"/>\\n      <hstem pos=\"529\" width=\"54\"/>\\n      <vstem pos=\"30\" width=\"614\"/>\\n      <vstem pos=\"55\" width=\"79\"/>\\n      <vstem pos=\"401\" width=\"79\"/>\\n      <vstem pos=\"529\" width=\"91\"/>\\n      <vstem pos=\"571\" width=\"73\"/>\\n    </hintset>\\n  </hintSetList>\\n  </data>'
Ntp3
s."
EndChar

StartChar: Ka
Encoding: 134 3093 134
GlifName: Ka_
Width: 601
VWidth: 0
Flags: W
LayerCount: 2
Back
Fore
SplineSet
232 400 m 257
NamedP: "hr00"
 247 415 266 429 288 441 c 256
 327 464 373 480 426 489 c 256
 465 496 499 505 526 518 c 256
 554 531 573 546 584 561 c 257
 463 640 l 257
 447 613 426 591 400 573 c 256
 373 555 344 543 311 538 c 256
 259 529 213 514 173 493 c 256
 133 472 102 446 80 416 c 257
 171 375 l 257
 130 353 95 325 66 291 c 257
 66 286 71 281 81 276 c 257
 121 261 l 257
 309 200 l 258
 342 189 368 181 386 173 c 256
 406 164 419 155 424 146 c 257
 410 127 393 112 373 101 c 256
 353 90 332 85 309 85 c 257
 158 109 l 257
 135 109 112 103 89 90 c 256
 66 77 47 59 30 36 c 257
 164 -6 l 257
 168 3 177 10 190 15 c 256
 203 21 218 24 236 24 c 257
 381 6 l 257
 417 6 450 19 481 45 c 256
 513 71 536 105 551 146 c 257
 544 158 529 171 505 184 c 256
 482 197 451 211 413 225 c 258
 236 291 l 257
 259 311 287 325 319 336 c 256
 350 346 384 353 419 353 c 256
 427 353 434 350 440 345 c 256
 446 340 449 335 449 328 c 256
 449 323 445 317 438 310 c 256
 430 303 419 297 406 291 c 257
 491 243 l 257
 508 253 521 264 531 275 c 256
 541 288 546 299 546 310 c 256
 546 333 528 358 491 385 c 256
 454 412 420 425 388 425 c 256
 333 425 281 417 232 400 c 257
NamedP: "hr00"
EndSplineSet
PickledDataWithLists: "(dp1
S'com.adobe.type.autohint'
p2
(S'data'
S'<data>\\n  <hintSetList>\\n    <hintset pointTag=\"hr00\">\\n      <hstem pos=\"353\" width=\"72\"/>\\n      <vstem pos=\"30\" width=\"554\"/>\\n    </hintset>\\n  </hintSetList>\\n  </data>'
Ntp3
s."
EndChar

StartChar: Kha
Encoding: 135 3094 135
GlifName: Kha_
Width: 655
VWidth: 0
Flags: W
LayerCount: 2
Back
Fore
SplineSet
353 -97 m 257
NamedP: "hr00"
 332 -83 315 -70 303 -57 c 256
 291 -44 285 -33 285 -25 c 256
 285 -22 286 -18 288 -12 c 256
 290 -7 291 -4 291 -1 c 256
 291 0 290 2 288 4 c 256
 286 5 283 5 280 5 c 257
 253 -18 232 -38 218 -55 c 256
 203 -72 195 -86 195 -97 c 256
 195 -108 203 -122 216 -137 c 256
 230 -153 249 -170 274 -189 c 257
 353 -97 l 257
NamedP: "hr00"
134 91 m 256
 129 91 124 93 120 96 c 256
 117 99 115 104 115 109 c 256
 115 119 121 129 133 138 c 256
 145 147 157 151 170 151 c 256
 175 151 180 150 184 148 c 256
 187 146 189 143 189 140 c 256
 189 129 183 120 170 108 c 256
 159 97 147 91 134 91 c 256
176 0 m 256
 194 0 211 8 228 25 c 256
 245 42 258 64 268 91 c 257
 303 62 335 40 365 24 c 256
 396 8 422 0 444 0 c 256
 484 0 525 23 570 68 c 256
 615 113 638 154 638 194 c 256
 638 215 629 238 611 261 c 256
 594 284 571 307 540 328 c 256
 523 339 509 352 500 365 c 256
 490 378 485 390 485 401 c 256
 485 406 486 411 489 415 c 257
 490 419 493 423 498 426 c 257
 406 475 l 257
 395 468 387 460 380 450 c 256
 373 441 370 431 370 420 c 256
 370 407 377 393 390 378 c 256
 403 361 421 345 444 328 c 256
 469 309 487 290 501 271 c 256
 515 252 523 235 523 219 c 256
 523 192 509 164 481 135 c 256
 453 106 426 91 401 91 c 256
 380 91 360 96 339 105 c 256
 318 115 299 129 280 146 c 257
 283 155 285 175 285 206 c 256
 285 261 270 311 240 356 c 256
 209 402 176 425 140 425 c 256
 113 425 88 417 65 399 c 256
 42 381 30 361 30 340 c 256
 30 332 34 322 43 310 c 256
 51 299 63 287 79 274 c 257
 115 298 l 257
 106 308 l 258
 105 310 104 313 104 316 c 256
 104 326 109 335 118 343 c 257
 128 350 140 353 153 353 c 256
 173 353 190 342 204 319 c 256
 218 296 225 269 225 236 c 256
 225 225 225 216 224 209 c 256
 223 202 222 197 219 194 c 257
 203 210 187 221 171 230 c 256
 156 238 141 243 128 243 c 256
 111 243 97 235 85 218 c 256
 74 201 68 181 68 158 c 256
 68 115 78 77 99 46 c 256
 120 15 146 0 176 0 c 256
EndSplineSet
PickledDataWithLists: "(dp1
S'com.adobe.type.autohint'
p2
(S'data'
S'<data>\\n  <hintSetList>\\n    <hintset pointTag=\"hr00\">\\n      <hstem pos=\"21\" width=\"-21\"/>\\n      <hstem pos=\"0\" width=\"91\"/>\\n      <hstem pos=\"353\" width=\"72\"/>\\n      <vstem pos=\"68\" width=\"47\"/>\\n      <vstem pos=\"225\" width=\"60\"/>\\n      <vstem pos=\"523\" width=\"115\"/>\\n    </hintset>\\n  </hintSetList>\\n  </data>'
Ntp3
s."
EndChar

StartChar: Ga
Encoding: 136 3095 136
GlifName: Ga_
Width: 606
VWidth: 0
Flags: W
LayerCount: 2
Back
Fore
SplineSet
264 425 m 257
NamedP: "hr00"
 271 430 279 435 288 440 c 256
 327 463 373 479 426 488 c 256
 465 495 499 504 526 516 c 256
 554 529 573 544 584 560 c 257
 463 639 l 257
 447 612 427 589 400 571 c 256
 374 553 344 542 311 536 c 256
 259 527 213 512 173 491 c 256
 133 470 102 445 80 415 c 257
 155 381 l 257
 130 366 109 350 90 333 c 256
 50 295 30 257 30 219 c 256
 30 210 34 199 43 184 c 256
 51 170 63 153 79 134 c 256
 90 120 99 107 106 94 c 256
 112 81 115 70 115 61 c 256
 115 53 114 46 113 39 c 257
 110 32 107 27 104 24 c 257
 206 0 l 257
 211 7 213 15 213 24 c 256
 213 45 200 74 173 109 c 256
 147 144 134 172 134 194 c 256
 134 220 140 245 153 268 c 256
 166 291 183 313 206 328 c 258
 261 364 l 257
 327 340 380 314 420 285 c 256
 460 256 480 229 480 206 c 256
 480 179 470 151 448 125 c 256
 426 98 396 78 359 61 c 257
 450 -19 l 257
 493 6 527 38 551 75 c 256
 576 114 589 153 589 194 c 256
 589 233 564 274 513 316 c 256
 461 358 393 394 310 425 c 257
 264 425 l 257
NamedP: "hr00"
EndSplineSet
PickledDataWithLists: "(dp1
S'com.adobe.type.autohint'
p2
(S'data'
S'<data>\\n  <hintSetList>\\n    <hintset pointTag=\"hr00\">\\n      <hstem pos=\"21\" width=\"-21\"/>\\n      <vstem pos=\"30\" width=\"104\"/>\\n      <vstem pos=\"206\" width=\"7\"/>\\n      <vstem pos=\"480\" width=\"109\"/>\\n    </hintset>\\n  </hintSetList>\\n  </data>'
Ntp3
s."
EndChar

StartChar: Gha
Encoding: 137 3096 137
GlifName: Gha_
Width: 947
VWidth: 0
Flags: W
LayerCount: 2
Back
Fore
SplineSet
216 -137 m 256
NamedP: "hr00"
 230 -153 249 -170 274 -189 c 257
 353 -97 l 257
 332 -83 315 -70 304 -57 c 256
 292 -44 286 -33 286 -25 c 256
 286 -22 287 -19 289 -15 c 256
 290 -12 291 -9 291 -6 c 256
 291 -3 290 0 288 1 c 257
 286 4 283 5 280 5 c 257
 253 -18 232 -38 218 -55 c 256
 203 -72 195 -86 195 -97 c 256
 195 -108 203 -122 216 -137 c 256
NamedP: "hr00"
563 90 m 257
 580 68 600 50 625 35 c 256
 664 12 707 0 754 0 c 256
 797 0 838 20 875 61 c 256
 912 101 930 145 930 194 c 256
 930 215 922 236 906 259 c 256
 889 282 867 302 839 321 c 256
 827 329 818 337 813 346 c 257
 806 355 803 363 803 370 c 256
 803 374 805 379 808 384 c 256
 811 390 816 396 821 401 c 257
 730 444 l 257
 717 437 706 427 699 416 c 256
 692 405 688 394 688 383 c 256
 688 374 695 363 709 350 c 256
 722 337 741 324 766 310 c 256
 789 297 806 282 819 266 c 256
 832 249 839 234 839 219 c 256
 839 183 826 150 799 119 c 256
 772 88 743 73 711 73 c 256
 684 73 657 83 631 104 c 256
 616 117 602 132 589 149 c 257
 593 164 595 179 595 194 c 256
 595 207 589 223 575 244 c 256
 562 264 540 285 516 310 c 258
 480 349 l 257
 472 360 468 369 468 376 c 256
 468 381 469 386 471 390 c 256
 473 394 476 398 480 401 c 257
 389 444 l 257
 380 435 372 427 366 418 c 257
 361 408 359 398 359 389 c 256
 359 382 363 374 371 363 c 257
 380 353 392 341 408 328 c 256
 435 305 455 284 470 265 c 256
 485 246 493 230 493 219 c 256
 493 187 480 154 455 119 c 256
 429 84 405 66 383 66 c 256
 374 66 363 69 350 76 c 256
 337 82 324 91 310 104 c 257
 310 131 293 163 260 198 c 256
 227 232 197 249 170 249 c 256
 139 249 109 236 78 210 c 256
 47 184 31 159 31 134 c 256
 31 105 47 75 80 45 c 256
 113 15 145 0 176 0 c 256
 196 0 216 5 235 15 c 256
 254 24 271 38 286 55 c 257
 303 36 324 21 350 10 c 256
 377 -1 406 -6 438 -6 c 256
 473 -6 511 14 543 61 c 258
 563 90 l 257
139 335 m 257
 164 378 198 414 241 443 c 256
 284 471 334 490 389 500 c 256
 422 506 451 513 475 524 c 256
 498 534 516 547 528 560 c 257
 413 639 l 257
 406 622 389 605 360 589 c 256
 331 572 294 559 249 548 c 256
 196 535 150 517 113 494 c 256
 74 471 47 444 30 415 c 257
 139 335 l 257
193 98 m 256
 175 81 157 73 140 73 c 256
 133 73 128 75 124 78 c 256
 119 82 116 86 116 91 c 256
 116 107 126 123 145 140 c 256
 164 156 183 164 201 164 c 256
 206 164 211 162 214 159 c 256
 217 156 219 151 219 146 c 256
 219 131 210 115 193 98 c 256
EndSplineSet
PickledDataWithLists: "(dp1
S'com.adobe.type.autohint'
p2
(S'data'
S'<data>\\n  <hintSetList>\\n    <hintset pointTag=\"hr00\">\\n      <hstem pos=\"-6\" width=\"72\"/>\\n      <hstem pos=\"0\" width=\"73\"/>\\n      <hstem pos=\"164\" width=\"85\"/>\\n      <vstem pos=\"31\" width=\"85\"/>\\n      <vstem pos=\"493\" width=\"102\"/>\\n      <vstem pos=\"839\" width=\"91\"/>\\n    </hintset>\\n  </hintSetList>\\n  </data>'
Ntp3
s."
EndChar

StartChar: uni0C19
Encoding: 138 3097 138
GlifName: uni0C19_
Width: 637
VWidth: 0
Flags: W
LayerCount: 2
Back
Fore
SplineSet
206 0 m 256
NamedP: "hr00"
 228 0 250 5 273 16 c 256
 294 27 315 42 334 61 c 257
 357 41 381 26 406 16 c 256
 432 5 457 0 480 0 c 256
 519 0 552 10 579 31 c 256
 606 53 620 79 620 109 c 256
 620 118 614 130 604 145 c 256
 593 161 589 174 589 183 c 256
 589 191 591 198 595 205 c 256
 600 212 607 216 614 219 c 257
 523 268 l 257
 515 263 509 256 504 249 c 256
 500 242 498 234 498 225 c 256
 498 216 504 204 514 189 c 256
 525 173 529 160 529 151 c 256
 529 130 519 110 499 95 c 256
 478 79 454 73 425 73 c 256
 410 73 397 76 385 81 c 256
 374 86 365 94 359 104 c 257
 368 119 380 131 395 140 c 257
 323 206 l 257
 310 206 297 201 284 189 c 256
 270 177 259 160 249 140 c 256
 240 122 229 107 218 95 c 257
 205 84 194 79 183 79 c 256
 170 79 158 84 148 93 c 257
 139 103 134 115 134 128 c 256
 134 139 140 153 151 168 c 256
 163 183 179 198 200 213 c 256
 222 228 239 242 250 254 c 256
 262 267 268 277 268 285 c 257
 289 298 315 304 346 304 c 257
 480 285 l 257
 499 285 518 289 536 298 c 256
 554 306 570 318 583 334 c 257
 510 395 l 257
 502 380 490 368 474 359 c 256
 459 350 442 346 425 346 c 257
 431 349 436 355 439 363 c 256
 442 370 444 379 444 389 c 256
 444 398 439 410 429 425 c 256
 418 440 413 452 413 461 c 256
 413 467 415 473 419 478 c 256
 424 483 430 488 438 491 c 257
 340 534 l 257
 335 531 331 526 328 519 c 256
 325 513 323 506 323 498 c 256
 323 488 328 474 338 455 c 256
 348 437 353 423 353 413 c 256
 353 405 350 397 345 389 c 256
 339 380 332 372 323 364 c 257
 305 364 290 363 278 361 c 256
 265 359 256 356 249 353 c 257
 230 376 210 394 191 406 c 256
 172 419 155 425 140 425 c 256
 116 425 91 416 66 399 c 256
 42 382 30 364 30 346 c 256
 30 336 34 325 43 314 c 256
 52 301 64 290 79 279 c 257
 115 304 l 257
 106 313 l 257
 105 316 104 319 104 321 c 256
 104 330 109 338 120 346 c 256
 131 355 142 359 153 359 c 256
 160 359 165 356 169 351 c 256
 174 346 176 341 176 334 c 256
 176 327 171 318 161 306 c 256
 153 295 140 283 121 268 c 256
 100 250 84 232 73 215 c 256
 61 198 55 183 55 170 c 256
 55 135 73 98 108 59 c 256
 143 20 175 0 206 0 c 256
NamedP: "hr00"
EndSplineSet
PickledDataWithLists: "(dp1
S'com.adobe.type.autohint'
p2
(S'data'
S'<data>\\n  <hintSetList>\\n    <hintset pointTag=\"hr00\">\\n      <hstem pos=\"0\" width=\"73\"/>\\n      <hstem pos=\"0\" width=\"79\"/>\\n      <hstem pos=\"304\" width=\"60\"/>\\n      <hstem pos=\"359\" width=\"66\"/>\\n      <vstem pos=\"30\" width=\"590\"/>\\n      <vstem pos=\"55\" width=\"79\"/>\\n      <vstem pos=\"529\" width=\"60\"/>\\n    </hintset>\\n  </hintSetList>\\n  </data>'
Ntp3
s."
EndChar

StartChar: Ca
Encoding: 139 3098 139
GlifName: Ca_
Width: 799
VWidth: 0
Flags: W
LayerCount: 2
Back
Fore
SplineSet
457 425 m 257
NamedP: "hr00"
 466 431 475 436 485 442 c 256
 524 464 571 481 624 490 c 256
 663 497 697 506 724 519 c 256
 752 532 771 547 782 563 c 257
 660 642 l 257
 645 615 625 592 598 574 c 256
 572 556 542 545 509 539 c 256
 456 530 410 515 370 494 c 256
 330 473 299 447 277 417 c 257
 399 362 l 257
 408 377 l 257
 432 377 l 258
 473 377 513 360 553 325 c 256
 594 290 614 254 614 219 c 256
 614 183 603 150 581 119 c 256
 560 88 536 73 511 73 c 256
 500 73 490 76 481 81 c 256
 472 87 465 95 462 104 c 257
 465 111 470 118 477 125 c 256
 483 131 490 136 499 140 c 257
 426 207 l 257
 416 207 406 200 394 187 c 256
 382 173 369 157 358 134 c 256
 349 116 338 101 325 89 c 256
 312 78 299 73 286 73 c 256
 276 73 267 76 259 81 c 257
 252 88 249 95 249 104 c 256
 249 121 257 140 274 159 c 256
 290 178 312 196 341 213 c 257
 292 268 l 257
 273 255 253 249 231 249 c 256
 212 249 186 254 152 264 c 256
 117 274 91 279 73 279 c 256
 58 279 44 276 31 269 c 257
 19 264 9 255 0 243 c 257
 60 183 l 257
 69 190 79 196 88 201 c 257
 98 205 107 207 115 207 c 256
 122 207 131 205 143 201 c 257
 154 196 163 194 170 194 c 258
 194 194 l 257
 178 179 167 164 158 149 c 256
 150 135 145 122 145 109 c 256
 145 83 166 58 209 35 c 256
 251 12 295 0 341 0 c 256
 354 0 367 5 382 15 c 256
 397 24 411 38 426 55 c 257
 447 38 469 24 494 14 c 256
 518 5 542 0 565 0 c 256
 600 0 635 23 670 69 c 256
 706 116 724 162 724 207 c 256
 724 250 689 297 620 348 c 256
 561 393 506 418 457 425 c 257
NamedP: "hr00"
EndSplineSet
PickledDataWithLists: "(dp1
S'com.adobe.type.autohint'
p2
(S'data'
S'<data>\\n  <hintSetList>\\n    <hintset pointTag=\"hr00\">\\n      <hstem pos=\"0\" width=\"73\"/>\\n      <hstem pos=\"194\" width=\"55\"/>\\n      <hstem pos=\"207\" width=\"72\"/>\\n      <hstem pos=\"377\" width=\"48\"/>\\n      <vstem pos=\"145\" width=\"104\"/>\\n      <vstem pos=\"614\" width=\"110\"/>\\n    </hintset>\\n  </hintSetList>\\n  </data>'
Ntp3
s."
EndChar

StartChar: Cha
Encoding: 140 3099 140
GlifName: Cha_
Width: 799
VWidth: 0
Flags: W
LayerCount: 2
Back
Fore
SplineSet
457 425 m 257
NamedP: "hr00"
 466 431 475 436 485 442 c 256
 524 464 571 481 624 490 c 256
 663 497 697 506 724 519 c 256
 752 532 771 547 782 563 c 257
 660 642 l 257
 645 615 625 592 598 574 c 256
 572 556 542 545 509 539 c 256
 456 530 410 515 370 494 c 256
 330 473 299 447 277 417 c 257
 399 362 l 257
 408 377 l 257
 432 377 l 258
 473 377 513 360 553 325 c 256
 594 290 614 254 614 219 c 256
 614 183 603 150 581 119 c 256
 560 88 536 73 511 73 c 256
 500 73 490 76 481 81 c 256
 472 87 465 95 462 104 c 257
 465 111 470 118 477 125 c 256
 483 131 490 136 499 140 c 257
 426 207 l 257
 416 207 406 200 394 187 c 256
 382 173 369 157 358 134 c 256
 349 116 338 101 325 89 c 256
 312 78 299 73 286 73 c 256
 276 73 267 76 259 81 c 257
 252 88 249 95 249 104 c 256
 249 121 257 140 274 159 c 256
 290 178 312 196 341 213 c 257
 292 268 l 257
 273 255 253 249 231 249 c 256
 212 249 186 254 152 264 c 256
 117 274 91 279 73 279 c 256
 58 279 44 276 31 269 c 257
 19 264 9 255 0 243 c 257
 60 183 l 257
 69 190 79 196 88 201 c 257
 98 205 107 207 115 207 c 256
 122 207 131 205 143 201 c 257
 154 196 163 194 170 194 c 258
 194 194 l 257
 178 179 167 164 158 149 c 256
 150 135 145 122 145 109 c 256
 145 83 166 58 209 35 c 256
 251 12 295 0 341 0 c 256
 354 0 367 5 382 15 c 256
 397 24 411 38 426 55 c 257
 447 38 469 24 494 14 c 256
 518 5 542 0 565 0 c 256
 600 0 635 23 670 69 c 256
 706 116 724 162 724 207 c 256
 724 250 689 297 620 348 c 256
 561 393 506 418 457 425 c 257
NamedP: "hr00"
373 -137 m 256
 387 -153 406 -170 431 -189 c 257
 510 -97 l 257
 489 -83 472 -71 460 -57 c 256
 448 -44 443 -33 443 -25 c 256
 443 -22 444 -19 446 -15 c 256
 448 -12 449 -9 449 -6 c 256
 449 -3 448 0 445 1 c 257
 442 4 439 5 436 5 c 257
 409 -18 388 -38 374 -55 c 256
 359 -72 351 -86 351 -97 c 256
 351 -107 358 -120 373 -137 c 256
EndSplineSet
PickledDataWithLists: "(dp1
S'com.adobe.type.autohint'
p2
(S'data'
S'<data>\\n  <hintSetList>\\n    <hintset pointTag=\"hr00\">\\n      <hstem pos=\"0\" width=\"73\"/>\\n      <hstem pos=\"194\" width=\"55\"/>\\n      <hstem pos=\"207\" width=\"72\"/>\\n      <hstem pos=\"377\" width=\"48\"/>\\n      <vstem pos=\"145\" width=\"104\"/>\\n      <vstem pos=\"614\" width=\"110\"/>\\n    </hintset>\\n  </hintSetList>\\n  </data>'
Ntp3
s."
EndChar

StartChar: Ja
Encoding: 141 3100 141
GlifName: Ja_
Width: 636
VWidth: 0
Flags: W
LayerCount: 2
Back
Fore
SplineSet
370 255 m 256
NamedP: "hr00"
 402 255 431 265 458 284 c 256
 485 303 498 324 498 346 c 256
 498 357 490 370 476 385 c 256
 461 401 455 414 455 425 c 256
 455 428 457 431 461 435 c 257
 466 438 473 441 480 444 c 257
 406 486 l 257
 395 479 387 472 380 464 c 256
 373 455 370 446 370 438 c 256
 370 428 377 417 391 404 c 256
 406 391 413 380 413 370 c 256
 413 353 404 339 386 328 c 256
 368 316 346 310 321 310 c 256
 302 310 282 314 261 321 c 257
 243 354 223 379 201 398 c 256
 180 416 159 425 140 425 c 256
 113 425 88 417 65 400 c 256
 42 383 30 365 30 346 c 256
 30 336 34 325 43 314 c 256
 52 301 64 290 79 279 c 257
 115 304 l 257
 106 313 l 257
 105 316 104 319 104 321 c 256
 104 330 109 338 120 346 c 257
 130 355 140 359 151 359 c 256
 158 359 164 356 169 351 c 256
 174 346 176 341 176 334 c 256
 176 327 171 318 161 306 c 256
 153 295 140 283 121 268 c 256
 100 250 84 232 73 215 c 256
 61 198 55 183 55 170 c 256
 55 135 73 98 110 59 c 256
 146 20 180 0 213 0 c 256
 233 0 253 5 274 16 c 256
 295 27 315 42 334 61 c 257
 357 41 381 26 406 16 c 256
 432 5 457 0 480 0 c 256
 519 0 551 10 578 31 c 256
 605 53 619 79 619 109 c 256
 619 119 614 133 604 151 c 256
 594 170 589 184 589 194 c 256
 589 199 591 203 595 208 c 256
 600 213 607 216 614 219 c 257
 523 268 l 257
 515 263 509 256 504 249 c 256
 500 242 498 234 498 225 c 256
 498 216 503 204 513 189 c 256
 524 173 529 160 529 151 c 256
 529 130 519 110 499 95 c 256
 478 79 454 73 425 73 c 256
 410 73 397 76 385 81 c 256
 374 86 365 94 359 104 c 257
 368 119 380 131 395 140 c 257
 321 206 l 257
 309 206 297 201 284 189 c 256
 270 177 259 160 249 140 c 256
 240 122 229 107 218 95 c 257
 205 84 194 79 183 79 c 256
 170 79 158 84 148 93 c 257
 139 103 134 115 134 128 c 256
 134 139 140 153 151 168 c 256
 163 183 179 198 200 213 c 256
 217 224 230 236 240 248 c 257
 251 259 258 269 261 279 c 257
 289 263 325 255 370 255 c 256
NamedP: "hr00"
EndSplineSet
PickledDataWithLists: "(dp1
S'com.adobe.type.autohint'
p2
(S'data'
S'<data>\\n  <hintSetList>\\n    <hintset pointTag=\"hr00\">\\n      <hstem pos=\"0\" width=\"73\"/>\\n      <hstem pos=\"0\" width=\"79\"/>\\n      <hstem pos=\"255\" width=\"55\"/>\\n      <hstem pos=\"359\" width=\"66\"/>\\n      <vstem pos=\"30\" width=\"589\"/>\\n      <vstem pos=\"55\" width=\"79\"/>\\n      <vstem pos=\"413\" width=\"85\"/>\\n      <vstem pos=\"529\" width=\"90\"/>\\n    </hintset>\\n  </hintSetList>\\n  </data>'
Ntp3
s."
EndChar

StartChar: Jha
Encoding: 142 3101 142
GlifName: Jha_
Width: 1241
VWidth: 0
Flags: W
LayerCount: 2
Back
Fore
SplineSet
133 390 m 257
NamedP: "hr00"
 121 383 109 374 98 363 c 256
 53 321 30 271 30 213 c 256
 30 166 58 119 114 71 c 256
 169 24 224 0 279 0 c 256
 347 0 407 18 460 55 c 256
 478 68 493 81 504 94 c 257
 523 70 546 50 573 34 c 256
 610 11 651 0 694 0 c 256
 737 0 780 22 824 65 c 256
 835 76 844 86 852 97 c 257
 869 72 891 51 919 35 c 256
 957 12 1000 0 1048 0 c 256
 1091 0 1132 20 1169 61 c 256
 1206 101 1224 145 1224 194 c 256
 1224 215 1216 236 1200 259 c 256
 1183 282 1161 302 1133 321 c 256
 1121 329 1112 337 1106 346 c 256
 1099 355 1096 363 1096 370 c 256
 1096 374 1098 379 1101 384 c 256
 1104 390 1109 396 1115 401 c 257
 1024 444 l 257
 1011 437 1000 427 993 416 c 256
 985 405 981 394 981 383 c 256
 981 374 988 364 1003 350 c 256
 1016 337 1035 324 1060 310 c 256
 1083 297 1100 282 1113 266 c 256
 1126 249 1133 234 1133 219 c 256
 1133 183 1120 150 1093 119 c 256
 1066 88 1037 73 1005 73 c 256
 978 73 951 83 925 104 c 256
 909 117 895 132 882 151 c 257
 887 165 889 179 889 194 c 256
 889 217 881 240 865 263 c 256
 848 287 826 310 798 328 c 256
 786 336 777 344 771 353 c 257
 764 361 761 369 761 376 c 256
 761 385 763 393 766 400 c 256
 769 407 773 414 779 419 c 257
 683 444 l 257
 673 435 665 427 660 420 c 256
 654 413 651 406 651 401 c 256
 651 374 674 344 719 313 c 256
 763 282 785 252 785 225 c 256
 785 188 772 153 745 120 c 256
 718 89 689 73 658 73 c 256
 630 73 603 83 578 104 c 256
 562 117 548 132 535 150 c 257
 538 161 540 172 540 183 c 256
 540 236 509 290 446 344 c 256
 385 398 323 425 261 425 c 258
 258 425 l 257
 284 441 l 258
 323 465 370 480 423 489 c 256
 462 496 495 505 523 518 c 256
 550 531 569 546 580 561 c 257
 459 640 l 257
 443 613 422 591 396 573 c 256
 369 555 340 543 308 538 c 256
 255 529 209 514 169 493 c 256
 129 472 98 446 76 416 c 257
 133 390 l 257
NamedP: "hr00"
770 -137 m 256
 784 -153 803 -170 828 -189 c 257
 906 -97 l 257
 885 -83 869 -70 858 -57 c 256
 846 -44 840 -33 840 -25 c 256
 840 -22 841 -19 843 -15 c 256
 845 -12 846 -9 846 -6 c 256
 846 -3 845 0 843 1 c 256
 840 4 837 5 834 5 c 257
 807 -18 786 -38 771 -55 c 256
 756 -72 749 -86 749 -97 c 256
 749 -108 757 -122 770 -137 c 256
379 106 m 256
 336 76 288 61 236 61 c 256
 201 61 171 72 146 96 c 256
 120 120 109 150 109 183 c 256
 109 224 127 261 163 295 c 256
 198 329 237 346 279 346 c 256
 316 346 352 330 389 299 c 256
 426 268 444 237 444 206 c 256
 444 171 422 137 379 106 c 256
EndSplineSet
PickledDataWithLists: "(dp1
S'com.adobe.type.autohint'
p2
(S'data'
S'<data>\\n  <hintSetList>\\n    <hintset pointTag=\"hr00\">\\n      <hstem pos=\"0\" width=\"61\"/>\\n      <hstem pos=\"0\" width=\"73\"/>\\n      <hstem pos=\"346\" width=\"79\"/>\\n      <vstem pos=\"30\" width=\"79\"/>\\n      <vstem pos=\"444\" width=\"96\"/>\\n      <vstem pos=\"785\" width=\"104\"/>\\n      <vstem pos=\"1133\" width=\"91\"/>\\n    </hintset>\\n  </hintSetList>\\n  </data>'
Ntp3
s."
EndChar

StartChar: Nya
Encoding: 143 3102 143
GlifName: Nya_
Width: 921
VWidth: 0
Flags: W
LayerCount: 2
Back
Fore
SplineSet
290 66 m 257
NamedP: "hr00"
 263 66 238 71 215 80 c 256
 192 89 181 98 181 109 c 256
 181 120 187 129 200 138 c 256
 213 147 228 151 243 151 c 256
 260 151 272 143 281 128 c 256
 290 113 293 92 290 66 c 257
NamedP: "hr00"
321 -140 m 257
 332 -128 346 -118 363 -111 c 256
 380 -104 398 -100 418 -97 c 257
 407 -93 398 -82 391 -65 c 256
 384 -46 381 -25 381 0 c 257
 430 0 474 13 515 40 c 256
 556 67 586 102 606 146 c 257
 621 161 640 173 661 181 c 256
 684 190 708 194 734 194 c 256
 747 194 766 191 791 183 c 256
 816 175 836 170 849 170 c 256
 858 170 868 173 878 178 c 256
 887 183 895 191 904 200 c 257
 849 255 l 257
 844 251 839 248 834 246 c 256
 829 244 824 243 819 243 c 256
 813 243 799 247 776 255 c 257
 781 258 784 261 785 266 c 257
 788 272 789 278 789 285 c 256
 789 294 785 308 776 325 c 256
 768 342 764 355 764 364 c 256
 764 370 766 375 769 380 c 256
 772 386 777 391 783 395 c 257
 691 438 l 257
 686 435 681 430 678 423 c 256
 675 416 673 409 673 401 c 256
 673 391 677 377 685 359 c 256
 694 340 698 326 698 316 c 256
 698 308 695 299 690 290 c 256
 685 280 678 270 668 261 c 257
 613 236 l 257
 591 295 558 342 515 378 c 256
 472 413 425 431 375 431 c 256
 350 431 327 426 304 414 c 256
 281 402 263 385 248 364 c 257
 229 385 211 402 194 414 c 257
 175 425 159 431 145 431 c 256
 122 431 97 421 70 400 c 256
 43 379 30 359 30 340 c 256
 30 327 35 313 46 298 c 256
 56 283 71 268 90 255 c 257
 139 285 l 257
 135 289 132 293 130 298 c 257
 127 302 126 306 126 310 c 256
 126 319 131 327 140 334 c 256
 150 342 160 346 169 346 c 256
 176 346 186 342 199 335 c 256
 212 328 226 317 243 304 c 258
 309 255 l 257
 322 285 339 309 360 326 c 256
 381 344 402 353 424 353 c 256
 451 353 478 340 505 314 c 256
 532 288 545 262 545 236 c 256
 545 201 526 166 488 131 c 256
 450 96 412 79 375 79 c 257
 375 104 355 136 314 174 c 256
 272 213 238 231 211 231 c 256
 186 231 157 221 125 199 c 256
 94 178 78 157 78 140 c 256
 78 110 97 82 136 55 c 256
 175 29 225 11 285 0 c 257
 282 -8 281 -22 281 -42 c 256
 281 -62 283 -81 291 -99 c 256
 298 -116 309 -129 321 -140 c 257
EndSplineSet
PickledDataWithLists: "(dp1
S'com.adobe.type.autohint'
p2
(S'data'
S'<data>\\n  <hintSetList>\\n    <hintset pointTag=\"hr00\">\\n      <hstem pos=\"21\" width=\"-21\"/>\\n      <hstem pos=\"0\" width=\"79\"/>\\n      <hstem pos=\"151\" width=\"80\"/>\\n      <hstem pos=\"353\" width=\"78\"/>\\n      <vstem pos=\"281\" width=\"100\"/>\\n      <vstem pos=\"290\" width=\"85\"/>\\n    </hintset>\\n  </hintSetList>\\n  </data>'
Ntp3
s."
EndChar

StartChar: Lla
Encoding: 144 3123 144
GlifName: Lla_
Width: 777
VWidth: 0
Flags: W
LayerCount: 2
Back
Fore
SplineSet
425 432 m 257
NamedP: "hr00"
 435 439 445 446 456 452 c 256
 497 475 544 492 599 501 c 256
 639 508 673 517 701 530 c 256
 730 544 749 559 760 575 c 257
 636 656 l 257
 620 629 599 606 572 587 c 256
 545 569 514 557 481 551 c 256
 427 542 379 526 338 505 c 256
 297 483 265 457 243 426 c 257
 368 370 l 257
 371 375 374 381 378 386 c 257
 379 386 l 257
 406 386 434 378 463 363 c 256
 490 348 504 333 504 318 c 256
 504 309 496 298 481 285 c 257
 464 273 443 260 416 249 c 258
 341 218 l 257
 229 249 l 257
 244 260 257 273 266 286 c 256
 275 300 279 313 279 325 c 256
 279 350 266 374 239 399 c 256
 212 424 186 436 161 436 c 256
 132 436 103 423 74 397 c 256
 45 370 30 344 30 318 c 256
 30 301 42 284 65 267 c 256
 88 249 118 236 155 225 c 258
 279 187 l 257
 254 173 235 157 220 139 c 256
 205 121 198 104 198 87 c 256
 198 66 216 46 251 27 c 256
 286 9 324 0 366 0 c 256
 399 0 430 9 459 28 c 256
 489 47 504 66 504 87 c 256
 504 102 498 117 486 132 c 256
 473 149 455 163 434 175 c 257
 504 199 l 258
 537 210 564 226 585 243 c 256
 605 260 615 276 615 293 c 256
 615 324 589 356 536 388 c 256
 499 411 462 425 425 432 c 257
NamedP: "hr00"
184 303 m 256
 169 292 155 286 142 286 c 256
 137 286 132 288 128 291 c 257
 124 296 122 301 122 306 c 256
 122 318 130 329 146 339 c 257
 160 350 175 356 192 356 c 256
 195 356 198 354 201 350 c 256
 204 346 205 341 205 336 c 256
 205 325 198 314 184 303 c 256
388 47 m 256
 382 40 375 37 366 37 c 256
 354 37 344 42 336 51 c 256
 327 62 323 74 323 87 c 256
 323 96 326 105 333 114 c 256
 340 123 349 130 360 137 c 257
 371 132 380 124 387 112 c 256
 394 101 397 88 397 74 c 256
 397 64 394 55 388 47 c 256
EndSplineSet
PickledDataWithLists: "(dp1
S'com.adobe.type.autohint'
p2
(S'data'
S'<data>\\n  <hintSetList>\\n    <hintset pointTag=\"hr00\">\\n      <hstem pos=\"0\" width=\"37\"/>\\n      <hstem pos=\"356\" width=\"80\"/>\\n      <vstem pos=\"30\" width=\"730\"/>\\n      <vstem pos=\"30\" width=\"92\"/>\\n      <vstem pos=\"198\" width=\"125\"/>\\n      <vstem pos=\"205\" width=\"74\"/>\\n      <vstem pos=\"397\" width=\"107\"/>\\n    </hintset>\\n  </hintSetList>\\n  </data>'
Ntp3
s."
EndChar

StartChar: TTha
Encoding: 145 3104 145
GlifName: TTha_
Width: 597
VWidth: 0
Flags: W
LayerCount: 2
Back
Fore
SplineSet
284 441 m 258
NamedP: "hr00"
 323 465 370 480 423 489 c 256
 462 496 495 505 523 518 c 256
 550 531 569 546 580 561 c 257
 459 640 l 257
 443 613 422 591 396 573 c 256
 369 555 340 543 308 538 c 256
 255 529 209 514 169 493 c 256
 129 472 98 446 76 416 c 257
 133 390 l 257
 121 383 109 374 98 363 c 256
 53 321 30 271 30 213 c 256
 30 166 58 119 114 71 c 256
 169 24 224 0 279 0 c 256
 347 0 407 18 460 55 c 256
 513 92 540 135 540 183 c 256
 540 236 509 290 446 344 c 256
 385 398 323 425 261 425 c 258
 258 425 l 257
 284 441 l 258
NamedP: "hr00"
379 119 m 256
 336 92 288 79 236 79 c 256
 203 79 173 87 150 105 c 256
 126 123 115 145 115 170 c 256
 115 211 131 248 166 283 c 256
 201 318 238 334 279 334 c 256
 316 334 352 320 389 291 c 256
 426 263 444 235 444 206 c 256
 444 175 422 146 379 119 c 256
213 206 m 257
 234 175 258 153 285 140 c 257
 296 144 306 151 316 160 c 256
 327 169 337 181 346 194 c 257
 319 227 295 250 274 261 c 257
 253 252 233 234 213 206 c 257
EndSplineSet
PickledDataWithLists: "(dp1
S'com.adobe.type.autohint'
p2
(S'data'
S'<data>\\n  <hintSetList>\\n    <hintset pointTag=\"hr00\">\\n      <hstem pos=\"0\" width=\"79\"/>\\n      <hstem pos=\"334\" width=\"91\"/>\\n      <vstem pos=\"30\" width=\"85\"/>\\n      <vstem pos=\"444\" width=\"96\"/>\\n    </hintset>\\n  </hintSetList>\\n  </data>'
Ntp3
s."
EndChar

StartChar: DDa
Encoding: 146 3105 146
GlifName: DDa_
Width: 673
VWidth: 0
Flags: W
LayerCount: 2
Back
Fore
SplineSet
322 423 m 257
NamedP: "hr00"
 331 429 340 435 349 440 c 256
 388 463 435 479 488 488 c 256
 527 495 560 503 588 516 c 256
 615 528 634 544 645 560 c 257
 524 639 l 257
 508 612 488 589 461 571 c 256
 435 553 405 542 373 536 c 256
 320 527 274 512 234 491 c 256
 194 470 163 445 141 415 c 257
 178 398 l 257
 155 388 133 375 113 358 c 256
 58 313 30 258 30 194 c 256
 30 151 50 108 89 65 c 256
 128 22 167 0 206 0 c 256
 223 0 239 5 256 15 c 256
 273 24 289 38 304 55 c 257
 325 38 348 24 375 14 c 256
 401 5 428 0 455 0 c 258
 504 0 l 258
 537 0 571 13 605 40 c 256
 639 67 656 94 656 121 c 256
 656 149 638 178 601 209 c 256
 564 240 530 255 498 255 c 256
 477 255 457 248 438 235 c 256
 419 222 402 205 389 183 c 257
 455 121 l 257
 465 138 477 151 491 161 c 256
 506 171 520 176 534 176 c 256
 541 176 546 174 551 169 c 256
 556 164 559 158 559 151 c 256
 559 130 546 111 521 93 c 256
 496 75 468 66 438 66 c 256
 419 66 401 69 384 76 c 256
 367 83 353 92 340 104 c 257
 347 113 354 120 360 125 c 256
 367 130 372 133 376 134 c 257
 310 206 l 257
 296 205 282 200 269 189 c 256
 256 178 245 164 236 146 c 256
 226 125 214 109 201 98 c 257
 189 85 177 79 164 79 c 256
 152 79 142 86 134 99 c 256
 125 112 121 128 121 146 c 256
 121 195 140 242 180 284 c 256
 219 326 263 346 310 346 c 257
 461 321 l 257
 484 321 506 325 526 334 c 256
 546 342 563 354 576 370 c 257
 516 438 l 257
 505 428 491 420 475 414 c 256
 459 409 442 406 425 406 c 257
 322 423 l 257
NamedP: "hr00"
EndSplineSet
PickledDataWithLists: "(dp1
S'com.adobe.type.autohint'
p2
(S'data'
S'<data>\\n  <hintSetList>\\n    <hintset pointTag=\"hr00\">\\n      <hstem pos=\"0\" width=\"66\"/>\\n      <hstem pos=\"176\" width=\"79\"/>\\n      <hstem pos=\"321\" width=\"85\"/>\\n      <vstem pos=\"30\" width=\"91\"/>\\n      <vstem pos=\"559\" width=\"97\"/>\\n    </hintset>\\n  </hintSetList>\\n  </data>'
Ntp3
s."
EndChar

StartChar: DDha
Encoding: 147 3106 147
GlifName: DDha_
Width: 673
VWidth: 0
Flags: W
LayerCount: 2
Back
Fore
SplineSet
321 423 m 257
NamedP: "hr00"
 330 430 339 435 349 441 c 256
 388 463 435 480 488 489 c 256
 527 496 560 505 588 518 c 256
 615 531 634 546 645 561 c 257
 524 640 l 257
 508 613 487 591 461 573 c 256
 434 555 405 543 373 538 c 256
 320 529 274 514 234 493 c 256
 194 472 163 446 141 416 c 257
 179 399 l 257
 155 388 133 375 113 358 c 256
 58 313 30 258 30 194 c 256
 30 151 50 108 89 65 c 256
 128 22 167 0 206 0 c 256
 223 0 239 5 256 15 c 256
 273 24 289 38 304 55 c 257
 325 38 348 24 375 14 c 256
 401 5 428 0 455 0 c 258
 504 0 l 258
 537 0 571 13 605 40 c 256
 639 67 656 94 656 121 c 256
 656 149 638 178 601 209 c 256
 564 240 530 255 498 255 c 256
 477 255 457 248 438 235 c 256
 419 222 402 205 389 183 c 257
 455 121 l 257
 465 138 477 151 491 161 c 256
 506 171 520 176 534 176 c 256
 541 176 546 174 551 169 c 256
 556 164 559 158 559 151 c 256
 559 130 546 111 521 93 c 256
 496 75 468 66 438 66 c 256
 419 66 401 69 384 76 c 256
 367 83 353 92 340 104 c 257
 347 113 354 120 360 125 c 256
 367 130 372 133 376 134 c 257
 310 206 l 257
 296 205 282 200 269 189 c 256
 256 178 245 164 236 146 c 256
 226 125 214 109 201 98 c 257
 189 85 177 79 164 79 c 256
 152 79 142 86 134 99 c 256
 125 112 121 128 121 146 c 256
 121 195 140 242 180 284 c 256
 219 326 263 346 310 346 c 257
 461 321 l 257
 484 321 506 325 526 334 c 256
 546 342 563 354 576 370 c 257
 516 438 l 257
 505 428 491 420 475 414 c 256
 459 409 442 406 425 406 c 257
 321 423 l 257
NamedP: "hr00"
253 -137 m 257
 266 -153 285 -170 310 -189 c 257
 389 -97 l 257
 368 -83 352 -70 339 -57 c 256
 327 -44 321 -33 321 -25 c 256
 321 -22 322 -19 324 -15 c 257
 327 -12 328 -9 328 -6 c 256
 328 -3 327 0 324 1 c 257
 322 4 319 5 316 5 c 257
 289 -18 268 -38 254 -55 c 256
 239 -72 231 -86 231 -97 c 256
 231 -108 238 -122 253 -137 c 257
EndSplineSet
PickledDataWithLists: "(dp1
S'com.adobe.type.autohint'
p2
(S'data'
S'<data>\\n  <hintSetList>\\n    <hintset pointTag=\"hr00\">\\n      <hstem pos=\"0\" width=\"66\"/>\\n      <hstem pos=\"176\" width=\"79\"/>\\n      <hstem pos=\"321\" width=\"85\"/>\\n      <vstem pos=\"30\" width=\"91\"/>\\n      <vstem pos=\"559\" width=\"97\"/>\\n    </hintset>\\n  </hintSetList>\\n  </data>'
Ntp3
s."
EndChar

StartChar: uni0C23
Encoding: 148 3107 148
GlifName: uni0C23_
Width: 672
VWidth: 0
Flags: W
LayerCount: 2
Back
Fore
SplineSet
425 73 m 256
NamedP: "hr00"
 417 73 410 76 404 81 c 257
 398 88 395 95 395 104 c 256
 395 120 405 137 426 155 c 256
 447 174 467 183 485 183 c 256
 492 183 498 180 503 174 c 256
 508 167 510 160 510 151 c 256
 510 137 500 120 479 101 c 256
 458 82 440 73 425 73 c 256
NamedP: "hr00"
194 0 m 256
 217 0 237 4 255 13 c 256
 274 22 288 34 298 49 c 257
 236 134 l 257
 229 119 219 107 206 99 c 256
 193 90 179 85 164 85 c 256
 154 85 145 88 138 95 c 256
 131 102 128 111 128 121 c 256
 128 138 135 156 149 175 c 256
 162 194 181 213 206 231 c 257
 170 261 l 258
 160 270 150 277 144 284 c 256
 137 291 134 298 134 304 c 256
 134 312 139 320 150 329 c 256
 160 336 171 340 183 340 c 256
 193 340 203 338 213 333 c 256
 224 328 234 320 243 310 c 257
 315 255 l 257
 332 285 352 309 375 326 c 256
 398 344 421 353 443 353 c 256
 478 353 508 340 533 314 c 256
 558 287 570 256 570 219 c 256
 570 208 566 196 559 183 c 257
 559 196 547 212 523 231 c 256
 498 251 477 261 461 261 c 256
 429 261 397 247 364 219 c 256
 331 190 315 162 315 134 c 256
 315 105 333 75 369 45 c 256
 404 15 439 0 474 0 c 256
 517 0 557 20 596 59 c 256
 635 99 655 140 655 183 c 256
 655 241 628 297 573 350 c 256
 518 404 460 431 400 431 c 256
 372 431 346 426 321 414 c 256
 296 402 276 385 261 364 c 257
 243 385 225 402 208 414 c 257
 189 425 173 431 158 431 c 256
 131 431 103 419 74 395 c 256
 45 372 30 349 30 328 c 256
 30 320 36 311 48 300 c 256
 57 292 73 279 98 261 c 257
 79 244 64 226 53 206 c 256
 42 186 36 166 36 146 c 256
 36 114 54 82 89 49 c 256
 124 16 159 0 194 0 c 256
EndSplineSet
PickledDataWithLists: "(dp1
S'com.adobe.type.autohint'
p2
(S'data'
S'<data>\\n  <hintSetList>\\n    <hintset pointTag=\"hr00\">\\n      <hstem pos=\"21\" width=\"-21\"/>\\n      <hstem pos=\"0\" width=\"73\"/>\\n      <hstem pos=\"0\" width=\"85\"/>\\n      <hstem pos=\"183\" width=\"78\"/>\\n      <hstem pos=\"340\" width=\"91\"/>\\n      <hstem pos=\"353\" width=\"78\"/>\\n      <vstem pos=\"36\" width=\"92\"/>\\n      <vstem pos=\"315\" width=\"80\"/>\\n      <vstem pos=\"510\" width=\"49\"/>\\n      <vstem pos=\"570\" width=\"85\"/>\\n    </hintset>\\n  </hintSetList>\\n  </data>'
Ntp3
s."
EndChar

StartChar: Ta
Encoding: 149 3108 149
GlifName: Ta_
Width: 648
VWidth: 0
Flags: W
LayerCount: 2
Back
Fore
SplineSet
342 423 m 257
NamedP: "hr00"
 325 425 l 257
 334 433 349 440 372 446 c 256
 391 451 424 458 470 466 c 256
 505 472 535 481 560 496 c 256
 584 510 600 526 608 544 c 257
 493 612 l 257
 482 590 467 572 446 557 c 256
 424 542 399 532 372 527 c 256
 311 516 258 499 213 474 c 256
 168 449 136 420 117 387 c 257
 221 308 l 257
 232 329 252 351 281 374 c 257
 326 374 l 257
 333 372 341 368 349 363 c 257
 360 354 369 343 376 328 c 257
 355 319 337 306 324 289 c 256
 311 272 304 252 304 231 c 256
 304 211 317 190 344 168 c 256
 371 145 396 134 419 134 c 256
 442 134 462 144 479 163 c 256
 496 182 504 204 504 231 c 257
 513 226 521 221 526 214 c 256
 532 207 535 201 535 194 c 256
 535 161 511 131 464 103 c 256
 417 75 366 61 310 61 c 256
 265 61 225 69 189 85 c 257
 213 97 232 112 246 129 c 256
 261 146 268 164 268 183 c 256
 268 208 256 234 228 263 c 256
 201 290 176 304 153 304 c 256
 126 304 99 291 71 264 c 256
 44 237 30 210 30 183 c 256
 30 140 58 98 116 59 c 256
 174 19 235 0 298 0 c 258
 376 0 l 258
 439 0 498 17 551 50 c 256
 604 83 631 119 631 158 c 256
 631 189 617 219 590 250 c 256
 563 281 526 307 480 328 c 257
 469 357 449 381 418 399 c 256
 403 408 388 414 372 417 c 258
 342 423 l 257
NamedP: "hr00"
395 189 m 256
 390 189 386 191 381 194 c 256
 378 197 376 201 376 206 c 256
 376 217 382 228 395 239 c 256
 407 250 419 255 431 255 c 256
 436 255 441 253 445 250 c 257
 448 246 450 241 450 236 c 256
 450 225 444 215 431 205 c 257
 420 194 408 189 395 189 c 256
134 146 m 256
 127 146 122 149 118 154 c 257
 113 158 110 163 110 170 c 256
 110 183 118 196 134 208 c 256
 150 220 166 225 183 225 c 256
 188 225 192 223 195 218 c 256
 198 213 200 207 200 200 c 256
 200 189 193 177 178 164 c 256
 163 152 148 146 134 146 c 256
EndSplineSet
PickledDataWithLists: "(dp1
S'com.adobe.type.autohint'
p2
(S'data'
S'<data>\\n  <hintSetList>\\n    <hintset pointTag=\"hr00\">\\n      <hstem pos=\"0\" width=\"61\"/>\\n      <hstem pos=\"134\" width=\"55\"/>\\n      <hstem pos=\"225\" width=\"79\"/>\\n      <hstem pos=\"374\" width=\"50\"/>\\n      <vstem pos=\"30\" width=\"80\"/>\\n      <vstem pos=\"200\" width=\"68\"/>\\n      <vstem pos=\"304\" width=\"72\"/>\\n      <vstem pos=\"450\" width=\"54\"/>\\n      <vstem pos=\"535\" width=\"96\"/>\\n    </hintset>\\n  </hintSetList>\\n  </data>'
Ntp3
s."
EndChar

StartChar: Tha
Encoding: 150 3109 150
GlifName: Tha_
Width: 636
VWidth: 0
Flags: W
LayerCount: 2
Back
Fore
SplineSet
321 441 m 258
NamedP: "hr00"
 360 464 407 480 460 489 c 256
 499 496 533 505 560 518 c 256
 587 531 607 546 618 561 c 257
 496 640 l 257
 481 613 460 591 434 573 c 256
 407 555 378 543 345 538 c 256
 292 529 246 514 206 493 c 256
 166 472 135 446 114 416 c 257
 161 395 l 257
 144 386 128 374 113 361 c 256
 58 316 30 260 30 194 c 256
 30 149 50 105 91 63 c 256
 132 21 175 0 219 0 c 256
 236 0 252 5 269 15 c 256
 286 24 301 38 316 55 c 257
 331 38 351 24 375 15 c 256
 399 5 426 0 455 0 c 256
 500 0 539 18 571 54 c 256
 603 90 619 133 619 183 c 256
 619 238 584 293 515 348 c 256
 447 403 379 431 310 431 c 258
 304 431 l 257
 321 441 l 258
NamedP: "hr00"
258 -144 m 256
 272 -159 291 -176 316 -195 c 257
 395 -104 l 257
 374 -89 358 -76 345 -64 c 257
 334 -51 328 -40 328 -31 c 256
 328 -28 329 -25 331 -22 c 256
 333 -18 334 -15 334 -12 c 256
 334 -9 333 -6 330 -5 c 257
 327 -2 324 -1 321 -1 c 257
 294 -24 273 -44 259 -61 c 256
 244 -78 236 -93 236 -104 c 256
 236 -114 243 -127 258 -144 c 256
213 95 m 256
 200 84 188 79 176 79 c 256
 159 79 145 86 133 101 c 256
 121 117 115 136 115 158 c 256
 115 205 136 248 179 288 c 256
 220 327 266 346 316 346 c 256
 369 346 419 331 463 299 c 256
 508 267 529 231 529 194 c 256
 529 163 516 133 489 104 c 256
 462 75 435 61 406 61 c 256
 391 61 379 64 369 71 c 256
 358 79 353 88 353 98 c 256
 353 102 355 106 359 111 c 256
 363 116 369 119 376 121 c 257
 285 170 l 257
 279 170 273 168 266 163 c 256
 259 157 254 149 249 140 c 256
 238 121 226 106 213 95 c 256
249 255 m 257
 270 224 294 202 321 189 c 257
 332 193 343 200 353 209 c 256
 364 218 374 230 383 243 c 257
 355 276 331 299 310 310 c 257
 289 301 269 282 249 255 c 257
EndSplineSet
PickledDataWithLists: "(dp1
S'com.adobe.type.autohint'
p2
(S'data'
S'<data>\\n  <hintSetList>\\n    <hintset pointTag=\"hr00\">\\n      <hstem pos=\"0\" width=\"61\"/>\\n      <hstem pos=\"0\" width=\"79\"/>\\n      <hstem pos=\"346\" width=\"85\"/>\\n      <vstem pos=\"30\" width=\"85\"/>\\n      <vstem pos=\"529\" width=\"90\"/>\\n    </hintset>\\n  </hintSetList>\\n  </data>'
Ntp3
s."
EndChar

StartChar: Da
Encoding: 151 3110 151
GlifName: Da_
Width: 636
VWidth: 0
Flags: W
LayerCount: 2
Back
Fore
SplineSet
297 425 m 257
NamedP: "hr00"
 304 430 312 435 321 440 c 256
 360 463 407 479 460 488 c 256
 499 495 533 504 560 516 c 256
 587 529 607 544 618 560 c 257
 496 639 l 257
 481 612 461 589 434 571 c 256
 408 553 378 542 345 536 c 256
 292 527 246 512 206 491 c 256
 166 470 135 445 114 415 c 257
 165 392 l 257
 146 383 129 371 113 358 c 256
 58 313 30 258 30 194 c 256
 30 149 50 105 91 63 c 256
 132 21 175 0 219 0 c 256
 236 0 252 5 269 15 c 256
 286 24 301 38 316 55 c 257
 331 38 351 24 375 15 c 256
 399 5 426 0 455 0 c 256
 500 0 539 18 571 54 c 256
 603 90 619 133 619 183 c 256
 619 236 584 290 515 344 c 256
 447 398 379 425 310 425 c 258
 297 425 l 257
NamedP: "hr00"
213 95 m 256
 200 84 188 79 176 79 c 256
 159 79 145 86 133 101 c 256
 121 117 115 136 115 158 c 256
 115 205 136 248 179 288 c 256
 220 327 266 346 316 346 c 256
 369 346 419 331 463 299 c 256
 508 267 529 231 529 194 c 256
 529 163 516 133 489 104 c 256
 462 75 435 61 406 61 c 256
 391 61 379 64 369 71 c 256
 358 79 353 88 353 98 c 256
 353 105 356 111 363 118 c 256
 370 125 378 130 389 134 c 257
 321 206 l 257
 310 206 299 200 286 189 c 256
 273 177 260 161 249 140 c 256
 238 121 226 106 213 95 c 256
EndSplineSet
PickledDataWithLists: "(dp1
S'com.adobe.type.autohint'
p2
(S'data'
S'<data>\\n  <hintSetList>\\n    <hintset pointTag=\"hr00\">\\n      <hstem pos=\"0\" width=\"61\"/>\\n      <hstem pos=\"0\" width=\"79\"/>\\n      <hstem pos=\"346\" width=\"79\"/>\\n      <vstem pos=\"30\" width=\"85\"/>\\n      <vstem pos=\"529\" width=\"90\"/>\\n    </hintset>\\n  </hintSetList>\\n  </data>'
Ntp3
s."
EndChar

StartChar: Dha
Encoding: 152 3111 152
GlifName: Dha_
Width: 636
VWidth: 0
Flags: W
LayerCount: 2
Back
Fore
SplineSet
297 425 m 257
NamedP: "hr00"
 304 430 312 435 321 440 c 256
 360 463 407 479 460 488 c 256
 499 495 533 504 560 516 c 256
 587 529 607 544 618 560 c 257
 496 639 l 257
 481 612 461 589 434 571 c 256
 408 553 378 542 345 536 c 256
 292 527 246 512 206 491 c 256
 166 470 135 445 114 415 c 257
 165 392 l 257
 146 383 129 371 113 358 c 256
 58 313 30 258 30 194 c 256
 30 149 50 105 91 63 c 256
 132 21 175 0 219 0 c 256
 236 0 252 5 269 15 c 256
 286 24 301 38 316 55 c 257
 331 38 351 24 375 15 c 256
 399 5 426 0 455 0 c 256
 500 0 539 18 571 54 c 256
 603 90 619 133 619 183 c 256
 619 236 584 290 515 344 c 256
 447 398 379 425 310 425 c 258
 297 425 l 257
NamedP: "hr00"
258 -137 m 256
 272 -153 291 -170 316 -189 c 257
 395 -97 l 257
 374 -83 357 -71 345 -57 c 256
 333 -44 328 -33 328 -25 c 256
 328 -22 329 -19 331 -15 c 256
 333 -12 334 -9 334 -6 c 256
 334 -3 333 0 330 1 c 257
 327 4 324 5 321 5 c 257
 294 -18 273 -38 259 -55 c 256
 244 -72 236 -86 236 -97 c 256
 236 -107 243 -120 258 -137 c 256
213 95 m 256
 200 84 188 79 176 79 c 256
 159 79 145 86 133 101 c 256
 121 117 115 136 115 158 c 256
 115 205 136 248 179 288 c 256
 220 327 266 346 316 346 c 256
 369 346 419 331 463 299 c 256
 508 267 529 231 529 194 c 256
 529 163 516 133 489 104 c 256
 462 75 435 61 406 61 c 256
 391 61 379 64 369 71 c 256
 358 79 353 88 353 98 c 256
 353 105 356 111 363 118 c 256
 370 125 378 130 389 134 c 257
 321 206 l 257
 310 206 299 200 286 189 c 256
 273 177 260 161 249 140 c 256
 238 121 226 106 213 95 c 256
EndSplineSet
PickledDataWithLists: "(dp1
S'com.adobe.type.autohint'
p2
(S'data'
S'<data>\\n  <hintSetList>\\n    <hintset pointTag=\"hr00\">\\n      <hstem pos=\"0\" width=\"61\"/>\\n      <hstem pos=\"0\" width=\"79\"/>\\n      <hstem pos=\"346\" width=\"79\"/>\\n      <vstem pos=\"30\" width=\"85\"/>\\n      <vstem pos=\"529\" width=\"90\"/>\\n    </hintset>\\n  </hintSetList>\\n  </data>'
Ntp3
s."
EndChar

StartChar: Na
Encoding: 153 3112 153
GlifName: Na_
Width: 611
VWidth: 0
Flags: W
LayerCount: 2
Back
Fore
SplineSet
261 425 m 257
NamedP: "hr00"
 270 434 286 441 310 448 c 256
 329 453 362 460 408 468 c 256
 443 474 473 483 498 498 c 256
 522 512 538 528 546 546 c 257
 431 614 l 257
 420 592 405 574 384 559 c 256
 362 544 337 534 310 529 c 256
 249 518 196 501 151 476 c 256
 106 451 74 422 55 389 c 257
 159 310 l 257
 170 331 190 353 219 376 c 257
 309 376 l 257
 360 367 402 349 435 320 c 256
 468 292 485 260 485 225 c 256
 485 192 472 158 445 124 c 256
 418 90 391 73 364 73 c 256
 349 73 332 78 315 90 c 256
 298 102 281 119 266 140 c 256
 253 159 239 174 224 184 c 256
 209 195 194 200 181 200 c 256
 146 200 112 185 79 156 c 256
 46 128 30 98 30 66 c 256
 30 38 45 10 76 -19 c 256
 107 -47 138 -61 169 -61 c 256
 184 -61 202 -55 224 -42 c 257
 169 24 l 257
 164 18 157 14 150 11 c 256
 143 8 135 6 126 6 c 256
 121 6 117 9 114 14 c 256
 111 18 109 23 109 30 c 256
 109 45 119 62 139 81 c 256
 159 100 177 109 194 109 c 256
 202 109 212 105 225 96 c 256
 238 88 251 76 266 61 c 256
 285 42 308 27 333 16 c 256
 358 5 385 0 413 0 c 256
 458 0 498 21 536 63 c 256
 574 106 594 151 594 200 c 256
 594 249 562 299 499 350 c 256
 436 400 373 425 310 425 c 258
 261 425 l 257
NamedP: "hr00"
EndSplineSet
PickledDataWithLists: "(dp1
S'com.adobe.type.autohint'
p2
(S'data'
S'<data>\\n  <hintSetList>\\n    <hintset pointTag=\"hr00\">\\n      <hstem pos=\"0\" width=\"73\"/>\\n      <hstem pos=\"109\" width=\"91\"/>\\n      <hstem pos=\"376\" width=\"49\"/>\\n      <vstem pos=\"30\" width=\"79\"/>\\n      <vstem pos=\"485\" width=\"109\"/>\\n    </hintset>\\n  </hintSetList>\\n  </data>'
Ntp3
s."
EndChar

StartChar: Pa
Encoding: 154 3114 154
GlifName: Pa_
Width: 612
VWidth: 0
Flags: W
LayerCount: 2
Back
Fore
SplineSet
140 73 m 256
NamedP: "hr00"
 133 73 128 75 124 78 c 256
 119 82 116 86 116 91 c 256
 116 107 126 123 145 140 c 256
 164 156 183 164 201 164 c 256
 206 164 211 162 214 159 c 256
 217 156 219 151 219 146 c 256
 219 131 210 115 193 98 c 256
 175 81 157 73 140 73 c 256
NamedP: "hr00"
176 0 m 256
 196 0 216 5 235 15 c 256
 254 24 271 38 286 55 c 257
 303 36 324 21 350 10 c 256
 377 -1 406 -6 438 -6 c 256
 473 -6 508 16 543 61 c 256
 578 106 595 150 595 194 c 256
 595 207 589 223 575 244 c 256
 562 264 540 285 516 310 c 258
 480 349 l 257
 472 360 468 369 468 376 c 256
 468 381 469 386 471 390 c 256
 473 394 476 398 480 401 c 257
 389 444 l 257
 380 435 372 427 366 418 c 257
 361 408 359 398 359 389 c 256
 359 382 363 374 371 363 c 257
 380 353 392 341 408 328 c 256
 435 305 455 284 470 265 c 256
 485 246 493 230 493 219 c 256
 493 187 480 154 455 119 c 256
 429 84 405 66 383 66 c 256
 374 66 363 69 350 76 c 256
 337 82 324 91 310 104 c 257
 310 131 293 163 260 198 c 256
 227 232 197 249 170 249 c 256
 139 249 109 236 78 210 c 256
 47 184 31 159 31 134 c 256
 31 105 47 75 80 45 c 256
 113 15 145 0 176 0 c 256
139 335 m 257
 164 378 198 414 241 443 c 256
 284 471 334 490 389 500 c 256
 422 506 451 513 475 524 c 256
 498 534 516 547 528 560 c 257
 413 639 l 257
 406 622 389 605 360 589 c 256
 331 572 294 559 249 548 c 256
 196 535 150 517 113 494 c 256
 74 471 47 444 30 415 c 257
 139 335 l 257
EndSplineSet
PickledDataWithLists: "(dp1
S'com.adobe.type.autohint'
p2
(S'data'
S'<data>\\n  <hintSetList>\\n    <hintset pointTag=\"hr00\">\\n      <hstem pos=\"-6\" width=\"72\"/>\\n      <hstem pos=\"21\" width=\"-21\"/>\\n      <hstem pos=\"0\" width=\"73\"/>\\n      <hstem pos=\"164\" width=\"85\"/>\\n      <vstem pos=\"30\" width=\"565\"/>\\n      <vstem pos=\"31\" width=\"85\"/>\\n      <vstem pos=\"493\" width=\"102\"/>\\n    </hintset>\\n  </hintSetList>\\n  </data>'
Ntp3
s."
EndChar

StartChar: Pha
Encoding: 155 3115 155
GlifName: Pha_
Width: 612
VWidth: 0
Flags: W
LayerCount: 2
Back
Fore
SplineSet
353 -97 m 257
NamedP: "hr00"
 332 -83 315 -70 304 -57 c 256
 292 -44 286 -33 286 -25 c 256
 286 -22 287 -19 289 -15 c 256
 290 -12 291 -9 291 -6 c 256
 291 -3 290 0 288 1 c 257
 286 4 283 5 280 5 c 257
 253 -18 232 -38 218 -55 c 256
 203 -72 195 -86 195 -97 c 256
 195 -108 203 -122 216 -137 c 256
 230 -153 249 -170 274 -189 c 257
 353 -97 l 257
NamedP: "hr00"
140 73 m 256
 133 73 128 75 124 78 c 256
 119 82 116 86 116 91 c 256
 116 107 126 123 145 140 c 256
 164 156 183 164 201 164 c 256
 206 164 211 162 214 159 c 256
 217 156 219 151 219 146 c 256
 219 131 210 115 193 98 c 256
 175 81 157 73 140 73 c 256
176 0 m 256
 196 0 216 5 235 15 c 256
 254 24 271 38 286 55 c 257
 303 36 324 21 350 10 c 256
 377 -1 406 -6 438 -6 c 256
 473 -6 508 16 543 61 c 256
 578 106 595 150 595 194 c 256
 595 207 589 223 575 244 c 256
 562 264 540 285 516 310 c 258
 480 349 l 257
 472 360 468 369 468 376 c 256
 468 381 469 386 471 390 c 256
 473 394 476 398 480 401 c 257
 389 444 l 257
 380 435 372 427 366 418 c 257
 361 408 359 398 359 389 c 256
 359 382 363 374 371 363 c 257
 380 353 392 341 408 328 c 256
 435 305 455 284 470 265 c 256
 485 246 493 230 493 219 c 256
 493 187 480 154 455 119 c 256
 429 84 405 66 383 66 c 256
 374 66 363 69 350 76 c 256
 337 82 324 91 310 104 c 257
 310 131 293 163 260 198 c 256
 227 232 197 249 170 249 c 256
 139 249 109 236 78 210 c 256
 47 184 31 159 31 134 c 256
 31 105 47 75 80 45 c 256
 113 15 145 0 176 0 c 256
139 335 m 257
 164 378 198 414 241 443 c 256
 284 471 334 490 389 500 c 256
 422 506 451 513 475 524 c 256
 498 534 516 547 528 560 c 257
 413 639 l 257
 406 622 389 605 360 589 c 256
 331 572 294 559 249 548 c 256
 196 535 150 517 113 494 c 256
 74 471 47 444 30 415 c 257
 139 335 l 257
EndSplineSet
PickledDataWithLists: "(dp1
S'com.adobe.type.autohint'
p2
(S'data'
S'<data>\\n  <hintSetList>\\n    <hintset pointTag=\"hr00\">\\n      <hstem pos=\"-6\" width=\"72\"/>\\n      <hstem pos=\"21\" width=\"-21\"/>\\n      <hstem pos=\"0\" width=\"73\"/>\\n      <hstem pos=\"164\" width=\"85\"/>\\n      <vstem pos=\"30\" width=\"565\"/>\\n      <vstem pos=\"31\" width=\"85\"/>\\n      <vstem pos=\"493\" width=\"102\"/>\\n    </hintset>\\n  </hintSetList>\\n  </data>'
Ntp3
s."
EndChar

StartChar: Ba
Encoding: 156 3116 156
GlifName: Ba_
Width: 625
VWidth: 0
Flags: W
LayerCount: 2
Back
Fore
SplineSet
213 0 m 256
NamedP: "hr00"
 228 0 246 5 265 16 c 256
 284 27 302 42 321 61 c 257
 340 42 362 27 386 16 c 256
 411 5 436 0 461 0 c 256
 497 0 530 20 561 61 c 256
 592 101 608 145 608 194 c 256
 608 215 599 238 581 261 c 256
 564 284 541 307 510 328 c 256
 501 335 493 342 488 350 c 256
 483 359 480 367 480 376 c 256
 480 382 481 388 483 393 c 256
 485 398 488 403 491 406 c 257
 457 412 427 423 401 438 c 257
 390 431 381 423 374 413 c 256
 367 403 364 393 364 383 c 256
 364 374 370 364 381 353 c 256
 394 340 410 328 431 316 c 256
 454 303 471 288 484 271 c 256
 497 254 504 236 504 219 c 256
 504 180 494 144 473 111 c 256
 453 78 431 61 406 61 c 256
 396 61 386 66 375 76 c 256
 364 85 359 95 359 104 c 256
 359 109 362 114 369 120 c 256
 376 127 384 133 395 140 c 257
 321 206 l 257
 314 206 305 201 294 190 c 256
 283 179 272 165 261 146 c 256
 250 125 237 109 223 96 c 257
 208 85 195 79 183 79 c 256
 170 79 158 84 148 95 c 256
 139 106 134 119 134 134 c 256
 134 148 139 163 149 178 c 256
 158 193 172 206 189 219 c 256
 214 237 232 253 246 268 c 256
 260 284 268 295 268 304 c 256
 268 327 254 354 226 383 c 256
 199 411 174 425 151 425 c 256
 124 425 97 417 70 401 c 256
 43 384 30 368 30 353 c 256
 30 343 34 331 43 318 c 256
 51 305 63 292 79 279 c 257
 109 304 l 257
 106 305 103 307 100 310 c 257
 99 313 98 317 98 321 c 256
 98 330 104 338 115 346 c 256
 128 355 140 359 151 359 c 256
 158 359 164 356 169 351 c 256
 174 346 176 341 176 334 c 256
 176 327 171 318 161 308 c 257
 152 297 139 285 121 274 c 256
 100 262 84 247 73 229 c 256
 61 210 55 190 55 170 c 256
 55 135 73 98 110 59 c 256
 146 20 180 0 213 0 c 256
NamedP: "hr00"
EndSplineSet
PickledDataWithLists: "(dp1
S'com.adobe.type.autohint'
p2
(S'data'
S'<data>\\n  <hintSetList>\\n    <hintset pointTag=\"hr00\">\\n      <hstem pos=\"21\" width=\"-21\"/>\\n      <hstem pos=\"0\" width=\"61\"/>\\n      <hstem pos=\"0\" width=\"79\"/>\\n      <hstem pos=\"359\" width=\"66\"/>\\n      <vstem pos=\"30\" width=\"578\"/>\\n      <vstem pos=\"55\" width=\"79\"/>\\n      <vstem pos=\"504\" width=\"104\"/>\\n    </hintset>\\n  </hintSetList>\\n  </data>'
Ntp3
s."
EndChar

StartChar: Bha
Encoding: 157 3117 157
GlifName: Bha_
Width: 774
VWidth: 0
Flags: W
LayerCount: 2
Back
Fore
SplineSet
460 438 m 258
NamedP: "hr00"
 498 462 546 477 599 486 c 256
 638 493 672 501 700 514 c 256
 727 526 746 542 757 558 c 257
 636 637 l 257
 620 610 599 588 573 570 c 256
 546 552 517 540 484 534 c 256
 431 525 385 510 345 489 c 256
 305 468 274 443 252 413 c 257
 374 358 l 257
 377 363 380 369 384 374 c 257
 408 374 l 258
 429 374 451 356 473 321 c 256
 494 286 505 251 505 216 c 256
 505 177 495 141 474 108 c 256
 454 75 432 58 408 58 c 256
 397 58 387 63 376 73 c 256
 365 82 360 92 360 101 c 256
 360 106 363 111 370 117 c 256
 377 124 385 130 396 137 c 257
 322 203 l 257
 315 203 306 198 295 187 c 256
 284 176 273 162 262 143 c 256
 250 122 237 106 223 93 c 256
 209 81 196 75 183 75 c 256
 170 75 158 81 148 92 c 256
 139 103 134 116 134 131 c 256
 134 145 139 160 149 175 c 256
 158 190 172 203 189 216 c 256
 214 234 234 250 247 265 c 256
 261 280 268 292 268 301 c 256
 268 324 254 351 227 380 c 256
 200 409 175 423 152 423 c 256
 125 423 98 416 70 399 c 256
 43 383 30 366 30 350 c 256
 30 340 34 328 43 315 c 256
 51 302 63 289 79 276 c 257
 109 301 l 257
 106 302 103 304 100 307 c 257
 99 310 98 314 98 319 c 256
 98 327 104 335 115 344 c 257
 128 352 140 356 152 356 c 256
 159 356 164 354 169 349 c 256
 174 344 177 338 177 331 c 256
 177 324 172 315 162 305 c 257
 153 294 139 283 122 271 c 257
 101 260 84 245 73 226 c 256
 61 207 55 187 55 167 c 256
 55 132 73 94 110 55 c 256
 146 16 180 -4 213 -4 c 256
 229 -4 247 2 266 13 c 256
 284 24 303 39 322 58 c 257
 341 39 363 24 387 13 c 256
 412 2 437 -4 463 -4 c 256
 499 -4 532 17 563 59 c 256
 594 102 609 148 609 197 c 256
 609 246 587 297 542 348 c 256
 505 389 469 413 432 420 c 257
 460 438 l 258
NamedP: "hr00"
258 -142 m 257
 273 -157 292 -174 317 -193 c 257
 396 -101 l 257
 375 -87 358 -75 346 -61 c 256
 334 -48 329 -37 329 -29 c 256
 329 -26 330 -23 331 -19 c 257
 334 -16 335 -13 335 -10 c 256
 335 -7 334 -4 331 -2 c 256
 328 0 325 1 322 1 c 257
 295 -22 274 -42 260 -59 c 256
 245 -76 237 -90 237 -101 c 256
 237 -111 244 -125 258 -142 c 257
EndSplineSet
PickledDataWithLists: "(dp1
S'com.adobe.type.autohint'
p2
(S'data'
S'<data>\\n  <hintSetList>\\n    <hintset pointTag=\"hr00\">\\n      <hstem pos=\"-4\" width=\"62\"/>\\n      <hstem pos=\"-4\" width=\"79\"/>\\n      <hstem pos=\"356\" width=\"67\"/>\\n      <hstem pos=\"374\" width=\"46\"/>\\n      <vstem pos=\"55\" width=\"79\"/>\\n      <vstem pos=\"505\" width=\"104\"/>\\n    </hintset>\\n  </hintSetList>\\n  </data>'
Ntp3
s."
EndChar

StartChar: Ma
Encoding: 158 3118 158
GlifName: Ma_
Width: 956
VWidth: 0
Flags: W
LayerCount: 2
Back
Fore
SplineSet
308 376 m 257
NamedP: "hr00"
 360 371 404 353 439 323 c 256
 474 293 491 258 491 219 c 256
 491 190 479 156 453 120 c 256
 427 83 402 66 381 66 c 256
 372 66 362 69 349 76 c 256
 336 82 323 91 309 104 c 257
 309 131 293 163 261 198 c 256
 230 232 201 249 175 249 c 256
 144 249 112 236 79 210 c 256
 46 184 30 159 30 134 c 256
 30 105 46 75 79 45 c 256
 112 15 144 0 175 0 c 256
 195 0 215 5 234 15 c 256
 253 24 270 38 285 55 c 257
 308 35 333 20 359 10 c 256
 386 -1 411 -6 436 -6 c 256
 472 -6 508 17 545 63 c 256
 554 74 561 85 568 96 c 257
 585 71 607 51 634 35 c 256
 672 12 715 0 763 0 c 256
 806 0 847 20 884 61 c 256
 921 101 939 145 939 194 c 256
 939 215 931 236 915 259 c 256
 898 282 876 302 848 321 c 256
 836 329 827 337 821 346 c 256
 814 355 811 363 811 370 c 256
 811 374 813 379 816 384 c 256
 819 390 824 396 830 401 c 257
 739 444 l 257
 726 437 715 427 708 416 c 256
 700 405 696 394 696 383 c 256
 696 374 703 364 718 350 c 256
 731 337 750 324 775 310 c 256
 798 297 815 282 828 266 c 256
 841 249 848 234 848 219 c 256
 848 183 835 150 808 119 c 256
 781 88 752 73 720 73 c 256
 693 73 666 83 640 104 c 256
 623 118 607 135 594 155 c 257
 598 170 600 185 600 200 c 256
 600 250 573 296 518 339 c 256
 465 380 398 408 318 423 c 257
 318 425 l 257
 269 425 l 257
 277 434 293 441 318 448 c 256
 337 453 369 460 415 468 c 256
 450 474 480 483 505 498 c 256
 529 512 545 528 554 546 c 257
 439 614 l 257
 428 592 412 574 391 559 c 256
 370 544 345 534 318 529 c 256
 256 518 203 501 159 476 c 256
 114 451 82 422 63 389 c 257
 166 310 l 257
 178 331 198 353 226 376 c 257
 308 376 l 257
NamedP: "hr00"
191 98 m 256
 174 81 156 73 139 73 c 256
 132 73 127 75 123 78 c 256
 118 82 115 86 115 91 c 256
 115 107 125 123 144 140 c 256
 163 156 182 164 200 164 c 256
 205 164 210 162 213 159 c 256
 216 156 218 151 218 146 c 256
 218 131 209 115 191 98 c 256
EndSplineSet
PickledDataWithLists: "(dp1
S'com.adobe.type.autohint'
p2
(S'data'
S'<data>\\n  <hintSetList>\\n    <hintset pointTag=\"hr00\">\\n      <hstem pos=\"-6\" width=\"72\"/>\\n      <hstem pos=\"0\" width=\"73\"/>\\n      <hstem pos=\"164\" width=\"85\"/>\\n      <hstem pos=\"376\" width=\"49\"/>\\n      <vstem pos=\"30\" width=\"85\"/>\\n      <vstem pos=\"491\" width=\"109\"/>\\n      <vstem pos=\"848\" width=\"91\"/>\\n    </hintset>\\n  </hintSetList>\\n  </data>'
Ntp3
s."
EndChar

StartChar: Ya
Encoding: 159 3119 159
GlifName: Ya_
Width: 1217
VWidth: 0
Flags: W
LayerCount: 2
Back
Fore
SplineSet
631 378 m 258
NamedP: "hr00"
 660 379 688 362 716 329 c 256
 745 296 759 264 759 233 c 256
 759 194 746 157 719 124 c 256
 692 91 663 74 631 74 c 256
 616 74 599 79 580 90 c 256
 563 101 546 116 529 135 c 257
 536 148 540 165 540 184 c 256
 540 227 509 275 446 329 c 256
 385 383 323 415 261 426 c 257
 204 426 151 402 103 355 c 256
 54 308 30 257 30 201 c 256
 30 153 58 107 113 63 c 256
 168 18 225 -5 285 -5 c 256
 328 -5 369 3 408 20 c 256
 446 37 478 62 504 93 c 257
 528 64 555 41 586 25 c 256
 617 9 649 1 680 1 c 256
 720 1 760 25 801 73 c 256
 810 83 818 93 825 103 c 257
 842 76 866 53 895 36 c 256
 934 13 977 1 1024 1 c 256
 1067 1 1108 22 1145 63 c 256
 1182 103 1200 147 1200 195 c 256
 1200 216 1192 237 1176 260 c 256
 1159 283 1137 305 1109 323 c 256
 1097 331 1088 339 1083 348 c 257
 1076 356 1073 364 1073 371 c 256
 1073 376 1075 380 1078 385 c 256
 1081 391 1086 397 1091 403 c 257
 1000 445 l 257
 987 438 976 429 969 418 c 256
 962 407 958 395 958 384 c 256
 958 375 965 364 979 351 c 256
 992 339 1011 326 1036 311 c 256
 1059 298 1076 283 1089 268 c 256
 1102 251 1109 235 1109 220 c 256
 1109 184 1096 151 1069 120 c 256
 1042 89 1013 74 981 74 c 256
 954 74 927 84 901 105 c 256
 883 120 867 138 853 159 c 257
 860 177 863 195 863 214 c 256
 863 261 837 308 785 355 c 256
 736 400 688 423 639 426 c 257
 664 441 l 258
 703 464 750 480 803 489 c 256
 842 496 875 505 903 518 c 256
 930 531 949 546 960 561 c 257
 839 640 l 257
 823 613 802 591 776 573 c 256
 749 555 720 543 688 538 c 256
 635 529 589 514 549 493 c 256
 509 472 478 446 456 416 c 257
 578 361 l 257
 581 367 584 372 588 377 c 257
 631 378 l 258
NamedP: "hr00"
374 121 m 256
 332 90 290 74 249 74 c 256
 212 74 181 83 154 104 c 256
 128 124 115 149 115 178 c 256
 115 213 134 247 173 283 c 256
 210 318 248 335 285 335 c 256
 322 335 357 324 390 298 c 256
 422 273 438 244 438 214 c 256
 438 183 417 152 374 121 c 256
EndSplineSet
PickledDataWithLists: "(dp1
S'com.adobe.type.autohint'
p2
(S'data'
S'<data>\\n  <hintSetList>\\n    <hintset pointTag=\"hr00\">\\n      <hstem pos=\"-5\" width=\"79\"/>\\n      <hstem pos=\"1\" width=\"73\"/>\\n      <hstem pos=\"335\" width=\"91\"/>\\n      <hstem pos=\"378\" width=\"48\"/>\\n      <vstem pos=\"30\" width=\"85\"/>\\n      <vstem pos=\"438\" width=\"102\"/>\\n      <vstem pos=\"759\" width=\"104\"/>\\n      <vstem pos=\"1109\" width=\"91\"/>\\n    </hintset>\\n  </hintSetList>\\n  </data>'
Ntp3
s."
EndChar

StartChar: Ra
Encoding: 160 3120 160
GlifName: Ra_
Width: 597
VWidth: 0
Flags: W
LayerCount: 2
Back
Fore
SplineSet
260 425 m 257
NamedP: "hr00"
 267 430 275 435 284 440 c 256
 323 463 370 479 423 488 c 256
 462 495 495 503 523 516 c 256
 550 528 569 544 580 560 c 257
 459 639 l 257
 443 612 423 589 396 571 c 256
 370 553 340 542 308 536 c 256
 255 527 209 512 169 491 c 256
 129 470 98 445 76 415 c 257
 132 390 l 257
 120 382 109 373 98 363 c 256
 53 321 30 271 30 213 c 256
 30 166 58 119 114 71 c 256
 169 24 224 0 279 0 c 256
 347 0 407 18 460 55 c 256
 513 92 540 135 540 183 c 256
 540 236 509 290 446 344 c 256
 385 398 323 425 261 425 c 257
 260 425 l 257
NamedP: "hr00"
379 106 m 256
 336 76 288 61 236 61 c 256
 201 61 171 72 146 96 c 256
 120 120 109 150 109 183 c 256
 109 224 127 261 163 295 c 256
 198 329 237 346 279 346 c 256
 316 346 352 330 389 299 c 256
 426 268 444 237 444 206 c 256
 444 171 422 137 379 106 c 256
EndSplineSet
PickledDataWithLists: "(dp1
S'com.adobe.type.autohint'
p2
(S'data'
S'<data>\\n  <hintSetList>\\n    <hintset pointTag=\"hr00\">\\n      <hstem pos=\"0\" width=\"61\"/>\\n      <hstem pos=\"346\" width=\"79\"/>\\n      <vstem pos=\"30\" width=\"79\"/>\\n      <vstem pos=\"444\" width=\"96\"/>\\n    </hintset>\\n  </hintSetList>\\n  </data>'
Ntp3
s."
EndChar

StartChar: RRa
Encoding: 161 3121 161
GlifName: RRa_
Width: 710
VWidth: 0
Flags: W
LayerCount: 2
Back
Fore
SplineSet
395 85 m 256
NamedP: "hr00"
 387 85 380 87 373 90 c 257
 367 94 364 99 364 104 c 256
 364 107 367 111 373 116 c 258
 395 134 l 257
 428 131 458 134 485 146 c 256
 512 158 530 177 540 200 c 257
 523 210 510 222 501 235 c 256
 491 249 486 264 486 279 c 256
 486 294 492 307 503 318 c 256
 513 329 525 334 540 334 c 256
 555 334 570 324 585 304 c 256
 600 283 608 263 608 243 c 256
 608 200 587 162 545 131 c 256
 504 100 454 85 395 85 c 256
NamedP: "hr00"
206 279 m 256
 201 279 197 281 194 284 c 256
 191 288 189 293 189 298 c 256
 189 310 196 322 209 334 c 256
 222 347 236 353 249 353 c 256
 254 353 258 351 263 348 c 257
 266 343 268 339 268 334 c 256
 268 321 262 308 248 296 c 256
 235 284 221 279 206 279 c 256
225 0 m 256
 248 0 269 5 288 15 c 256
 307 24 322 38 334 55 c 257
 359 38 382 24 405 14 c 256
 428 5 449 0 468 0 c 256
 517 0 567 20 618 61 c 256
 668 102 693 143 693 183 c 256
 693 236 672 290 629 344 c 256
 587 398 545 425 504 425 c 256
 480 425 456 415 431 393 c 256
 407 372 395 349 395 328 c 256
 395 315 400 300 411 284 c 256
 421 268 436 252 455 236 c 257
 450 222 441 210 428 201 c 256
 415 193 400 189 383 189 c 258
 359 189 l 257
 340 213 l 257
 337 213 332 211 326 208 c 256
 321 205 314 201 304 194 c 257
 288 199 l 257
 280 200 271 200 261 200 c 256
 247 200 235 198 224 194 c 256
 214 190 206 184 200 176 c 257
 255 134 l 257
 245 117 235 104 225 94 c 256
 216 84 207 79 200 79 c 256
 184 79 167 91 151 114 c 256
 135 137 128 160 128 183 c 256
 128 210 138 238 158 268 c 257
 169 255 182 244 195 236 c 257
 209 229 223 225 236 225 c 256
 261 225 283 233 303 250 c 256
 324 267 334 285 334 304 c 256
 334 334 321 362 296 388 c 256
 271 413 243 425 213 425 c 256
 168 425 126 403 88 360 c 256
 49 317 30 270 30 219 c 256
 30 176 53 129 99 78 c 256
 146 26 188 0 225 0 c 256
EndSplineSet
PickledDataWithLists: "(dp1
S'com.adobe.type.autohint'
p2
(S'data'
S'<data>\\n  <hintSetList>\\n    <hintset pointTag=\"hr00\">\\n      <hstem pos=\"21\" width=\"-21\"/>\\n      <hstem pos=\"0\" width=\"85\"/>\\n      <hstem pos=\"0\" width=\"79\"/>\\n      <hstem pos=\"225\" width=\"54\"/>\\n      <hstem pos=\"334\" width=\"91\"/>\\n      <hstem pos=\"353\" width=\"72\"/>\\n      <vstem pos=\"30\" width=\"98\"/>\\n      <vstem pos=\"268\" width=\"66\"/>\\n      <vstem pos=\"608\" width=\"85\"/>\\n    </hintset>\\n  </hintSetList>\\n  </data>'
Ntp3
s."
EndChar

StartChar: La
Encoding: 162 3122 162
GlifName: La_
Width: 618
VWidth: 0
Flags: W
LayerCount: 2
Back
Fore
SplineSet
206 279 m 256
NamedP: "hr00"
 201 279 197 281 194 284 c 256
 191 288 189 293 189 298 c 256
 189 309 196 320 210 333 c 256
 224 346 237 353 249 353 c 256
 256 353 261 351 266 348 c 257
 271 343 274 339 274 334 c 256
 274 321 266 310 251 298 c 256
 236 286 221 279 206 279 c 256
NamedP: "hr00"
316 0 m 256
 395 0 462 17 518 50 c 256
 573 83 601 123 601 170 c 256
 601 193 593 217 580 241 c 256
 566 266 547 288 523 310 c 258
 486 343 l 258
 478 351 474 358 474 364 c 256
 474 371 476 378 480 385 c 256
 484 392 490 397 498 401 c 257
 401 438 l 257
 390 431 381 424 374 415 c 256
 367 406 364 397 364 389 c 256
 364 379 368 369 376 358 c 256
 385 346 398 336 413 328 c 256
 440 313 460 295 475 274 c 256
 490 253 498 233 498 213 c 256
 498 174 477 141 435 114 c 256
 394 87 344 73 285 73 c 256
 238 73 199 82 170 101 c 256
 142 120 128 145 128 176 c 256
 128 192 131 208 136 223 c 257
 143 238 152 253 164 268 c 257
 173 255 184 244 195 236 c 257
 207 229 219 225 231 225 c 256
 260 225 284 233 304 251 c 256
 325 269 334 291 334 316 c 256
 334 342 319 367 290 390 c 256
 262 413 232 425 200 425 c 256
 163 425 125 402 88 356 c 256
 49 309 30 264 30 219 c 256
 30 162 59 111 118 66 c 256
 175 22 241 0 316 0 c 256
EndSplineSet
PickledDataWithLists: "(dp1
S'com.adobe.type.autohint'
p2
(S'data'
S'<data>\\n  <hintSetList>\\n    <hintset pointTag=\"hr00\">\\n      <hstem pos=\"0\" width=\"73\"/>\\n      <hstem pos=\"225\" width=\"54\"/>\\n      <hstem pos=\"353\" width=\"72\"/>\\n      <vstem pos=\"30\" width=\"98\"/>\\n      <vstem pos=\"274\" width=\"60\"/>\\n      <vstem pos=\"498\" width=\"103\"/>\\n    </hintset>\\n  </hintSetList>\\n  </data>'
Ntp3
s."
EndChar

StartChar: LLa
Encoding: 163 3123 163
GlifName: LLa_
Width: 777
VWidth: 0
Flags: W
LayerCount: 2
Back
Fore
SplineSet
425 432 m 257
NamedP: "hr00"
 435 439 445 446 456 452 c 256
 497 475 544 492 599 501 c 256
 639 508 673 517 701 530 c 256
 730 544 749 559 760 575 c 257
 636 656 l 257
 620 629 599 606 572 587 c 256
 545 569 514 557 481 551 c 256
 427 542 379 526 338 505 c 256
 297 483 265 457 243 426 c 257
 368 370 l 257
 371 375 374 381 378 386 c 257
 379 386 l 257
 406 386 434 378 463 363 c 256
 490 348 504 333 504 318 c 256
 504 309 496 298 481 285 c 257
 464 273 443 260 416 249 c 258
 341 218 l 257
 229 249 l 257
 244 260 257 273 266 286 c 256
 275 300 279 313 279 325 c 256
 279 350 266 374 239 399 c 256
 212 424 186 436 161 436 c 256
 132 436 103 423 74 397 c 256
 45 370 30 344 30 318 c 256
 30 301 42 284 65 267 c 256
 88 249 118 236 155 225 c 258
 279 187 l 257
 254 173 235 157 220 139 c 256
 205 121 198 104 198 87 c 256
 198 66 216 46 251 27 c 256
 286 9 324 0 366 0 c 256
 399 0 430 9 459 28 c 256
 489 47 504 66 504 87 c 256
 504 102 498 117 486 132 c 256
 473 149 455 163 434 175 c 257
 504 199 l 258
 537 210 564 226 585 243 c 256
 605 260 615 276 615 293 c 256
 615 324 589 356 536 388 c 256
 499 411 462 425 425 432 c 257
NamedP: "hr00"
184 303 m 256
 169 292 155 286 142 286 c 256
 137 286 132 288 128 291 c 257
 124 296 122 301 122 306 c 256
 122 318 130 329 146 339 c 257
 160 350 175 356 192 356 c 256
 195 356 198 354 201 350 c 256
 204 346 205 341 205 336 c 256
 205 325 198 314 184 303 c 256
388 47 m 256
 382 40 375 37 366 37 c 256
 354 37 344 42 336 51 c 256
 327 62 323 74 323 87 c 256
 323 96 326 105 333 114 c 256
 340 123 349 130 360 137 c 257
 371 132 380 124 387 112 c 256
 394 101 397 88 397 74 c 256
 397 64 394 55 388 47 c 256
EndSplineSet
PickledDataWithLists: "(dp1
S'com.adobe.type.autohint'
p2
(S'data'
S'<data>\\n  <hintSetList>\\n    <hintset pointTag=\"hr00\">\\n      <hstem pos=\"0\" width=\"37\"/>\\n      <hstem pos=\"356\" width=\"80\"/>\\n      <vstem pos=\"30\" width=\"730\"/>\\n      <vstem pos=\"30\" width=\"92\"/>\\n      <vstem pos=\"198\" width=\"125\"/>\\n      <vstem pos=\"205\" width=\"74\"/>\\n      <vstem pos=\"397\" width=\"107\"/>\\n    </hintset>\\n  </hintSetList>\\n  </data>'
Ntp3
s."
EndChar

StartChar: uni0C34
Encoding: 164 3124 164
GlifName: uni0C34_
Width: 710
VWidth: 0
Flags: W
LayerCount: 2
Back
Fore
SplineSet
395 165 m 256
NamedP: "hr00"
 387 165 380 167 373 170 c 257
 367 174 364 179 364 184 c 256
 364 187 367 191 373 196 c 258
 395 214 l 257
 428 211 458 214 485 226 c 256
 512 238 530 257 540 280 c 257
 523 290 510 302 501 315 c 256
 491 329 486 344 486 359 c 256
 486 374 492 387 503 398 c 256
 513 409 525 414 540 414 c 256
 555 414 570 404 585 384 c 256
 600 363 608 343 608 323 c 256
 608 280 587 242 545 211 c 256
 504 180 454 165 395 165 c 256
NamedP: "hr00"
206 359 m 256
 201 359 197 361 194 364 c 256
 191 368 189 373 189 378 c 256
 189 390 196 402 209 414 c 256
 222 427 236 433 249 433 c 256
 254 433 258 431 263 428 c 257
 266 423 268 419 268 414 c 256
 268 401 262 388 248 376 c 256
 235 364 221 359 206 359 c 256
225 80 m 256
 248 80 269 85 288 95 c 256
 307 104 322 118 334 135 c 257
 359 118 382 104 405 94 c 256
 428 85 449 80 468 80 c 256
 517 80 567 100 618 141 c 256
 668 182 693 223 693 263 c 256
 693 316 672 370 629 424 c 256
 587 478 545 505 504 505 c 256
 480 505 456 495 431 473 c 256
 407 452 395 429 395 408 c 256
 395 395 400 380 411 364 c 256
 421 348 436 332 455 316 c 257
 450 302 441 290 428 281 c 256
 415 273 400 269 383 269 c 258
 359 269 l 257
 340 293 l 257
 337 293 332 291 326 288 c 256
 321 285 314 281 304 274 c 257
 288 279 l 257
 280 280 271 280 261 280 c 256
 247 280 235 278 224 274 c 256
 214 270 206 264 200 256 c 257
 255 214 l 257
 245 197 235 184 225 174 c 256
 216 164 207 159 200 159 c 256
 184 159 167 171 151 194 c 256
 135 217 128 240 128 263 c 256
 128 290 138 318 158 348 c 257
 169 335 182 324 195 316 c 257
 209 309 223 305 236 305 c 256
 261 305 283 313 303 330 c 256
 324 347 334 365 334 384 c 256
 334 414 321 442 296 468 c 256
 271 493 243 505 213 505 c 256
 168 505 126 483 88 440 c 256
 49 397 30 350 30 299 c 256
 30 256 53 209 99 158 c 256
 146 106 188 80 225 80 c 256
EndSplineSet
PickledDataWithLists: "(dp1
S'com.adobe.type.autohint'
p2
(S'data'
S'<data>\\n  <hintSetList>\\n    <hintset pointTag=\"hr00\">\\n      <hstem pos=\"80\" width=\"85\"/>\\n      <hstem pos=\"80\" width=\"79\"/>\\n      <hstem pos=\"305\" width=\"54\"/>\\n      <hstem pos=\"414\" width=\"91\"/>\\n      <hstem pos=\"433\" width=\"72\"/>\\n      <vstem pos=\"30\" width=\"98\"/>\\n      <vstem pos=\"268\" width=\"66\"/>\\n      <vstem pos=\"608\" width=\"85\"/>\\n    </hintset>\\n  </hintSetList>\\n  </data>'
Ntp3
s."
EndChar

StartChar: Va
Encoding: 165 3125 165
GlifName: Va_
Width: 615
VWidth: 0
Flags: W
LayerCount: 2
Back
Fore
SplineSet
316 425 m 257
NamedP: "hr00"
 268 425 l 257
 276 433 292 440 316 447 c 256
 335 452 368 459 414 467 c 256
 449 473 478 483 503 497 c 256
 527 511 543 527 552 546 c 257
 437 613 l 257
 426 591 411 573 390 558 c 256
 369 543 344 533 316 528 c 256
 255 517 202 500 158 476 c 256
 113 451 81 422 62 389 c 257
 166 310 l 257
 177 331 197 353 226 376 c 257
 307 376 l 257
 359 370 402 352 437 323 c 256
 472 293 490 258 490 219 c 256
 490 190 478 158 451 121 c 256
 425 85 401 67 380 67 c 256
 371 67 360 70 348 77 c 257
 335 83 322 92 308 105 c 257
 308 132 292 163 260 198 c 256
 229 232 200 249 174 249 c 256
 143 249 111 235 79 210 c 256
 46 184 30 160 30 135 c 256
 30 106 46 76 79 46 c 256
 111 16 143 1 174 1 c 256
 194 1 214 6 233 16 c 256
 252 25 269 39 284 56 c 257
 307 36 332 21 358 11 c 256
 384 0 410 -5 435 -5 c 256
 470 -5 506 18 543 64 c 256
 580 110 598 156 598 201 c 256
 598 250 571 296 516 339 c 256
 463 380 397 408 316 423 c 257
 316 425 l 257
NamedP: "hr00"
191 98 m 256
 174 81 156 73 138 73 c 256
 131 73 126 75 122 78 c 256
 117 83 115 87 115 92 c 256
 115 108 123 125 143 141 c 256
 162 157 181 164 199 164 c 256
 204 164 209 162 212 159 c 256
 215 156 217 152 217 147 c 256
 217 131 208 115 191 98 c 256
EndSplineSet
PickledDataWithLists: "(dp1
S'com.adobe.type.autohint'
p2
(S'data'
S'<data>\\n  <hintSetList>\\n    <hintset pointTag=\"hr00\">\\n      <hstem pos=\"-5\" width=\"72\"/>\\n      <hstem pos=\"22\" width=\"-21\"/>\\n      <hstem pos=\"1\" width=\"72\"/>\\n      <hstem pos=\"164\" width=\"85\"/>\\n      <hstem pos=\"376\" width=\"49\"/>\\n      <vstem pos=\"30\" width=\"85\"/>\\n      <vstem pos=\"490\" width=\"108\"/>\\n    </hintset>\\n  </hintSetList>\\n  </data>'
Ntp3
s."
EndChar

StartChar: Sha
Encoding: 166 3126 166
GlifName: Sha_
Width: 775
VWidth: 0
Flags: W
LayerCount: 2
Back
Fore
SplineSet
469 445 m 258
NamedP: "hr00"
 511 466 558 485 614 495 c 256
 655 502 689 512 718 525 c 256
 747 539 767 554 778 570 c 257
 651 653 l 257
 635 625 613 600 586 582 c 256
 558 563 527 552 493 546 c 256
 438 536 390 520 349 499 c 256
 307 477 275 450 252 419 c 257
 379 362 l 257
 385 373 392 383 401 393 c 257
 411 393 l 258
 439 393 463 387 483 375 c 256
 503 362 513 347 513 330 c 256
 513 321 505 309 490 296 c 256
 475 284 453 270 424 253 c 257
 335 304 261 330 202 330 c 256
 169 330 132 306 91 258 c 256
 50 209 30 166 30 127 c 256
 30 96 47 66 82 39 c 256
 117 13 155 0 196 0 c 256
 216 0 236 6 255 17 c 256
 274 28 290 44 303 64 c 257
 227 127 l 257
 216 108 204 92 193 81 c 256
 182 70 172 64 163 64 c 256
 156 64 151 67 146 73 c 256
 141 79 138 86 138 95 c 256
 138 124 155 156 188 193 c 256
 221 229 251 247 278 247 c 256
 315 247 350 234 385 209 c 257
 367 192 353 174 343 155 c 256
 334 136 329 119 329 102 c 256
 329 74 341 50 364 30 c 256
 387 10 416 0 449 0 c 256
 486 0 522 13 559 38 c 256
 596 63 614 89 614 114 c 256
 614 127 606 141 591 157 c 256
 576 172 556 187 531 202 c 257
 567 223 595 244 615 264 c 256
 636 285 646 302 646 317 c 256
 646 345 620 374 568 402 c 256
 531 422 495 434 459 440 c 257
 469 445 l 258
NamedP: "hr00"
492 76 m 256
 477 59 463 51 449 51 c 256
 444 51 439 54 435 59 c 256
 431 63 429 69 429 76 c 256
 429 87 433 101 441 116 c 256
 449 131 460 147 474 164 c 257
 486 160 496 155 503 148 c 256
 510 141 513 134 513 127 c 256
 513 110 506 93 492 76 c 256
EndSplineSet
PickledDataWithLists: "(dp1
S'com.adobe.type.autohint'
p2
(S'data'
S'<data>\\n  <hintSetList>\\n    <hintset pointTag=\"hr00\">\\n      <hstem pos=\"0\" width=\"51\"/>\\n      <hstem pos=\"0\" width=\"64\"/>\\n      <hstem pos=\"247\" width=\"83\"/>\\n      <vstem pos=\"30\" width=\"748\"/>\\n      <vstem pos=\"30\" width=\"108\"/>\\n      <vstem pos=\"329\" width=\"100\"/>\\n    </hintset>\\n  </hintSetList>\\n  </data>'
Ntp3
s."
EndChar

StartChar: SSa
Encoding: 167 3127 167
GlifName: SSa_
Width: 710
VWidth: 0
Flags: W
LayerCount: 2
Back
Fore
SplineSet
140 73 m 256
NamedP: "hr00"
 133 73 128 75 124 78 c 256
 119 82 116 86 116 91 c 256
 116 107 126 123 145 140 c 256
 164 156 183 164 201 164 c 256
 206 164 211 162 214 159 c 256
 217 156 219 151 219 146 c 256
 219 131 210 115 193 98 c 256
 175 81 157 73 140 73 c 256
NamedP: "hr00"
176 0 m 256
 196 0 216 5 235 15 c 256
 254 24 271 38 286 55 c 257
 303 36 324 21 349 10 c 256
 374 -1 401 -6 431 -6 c 256
 436 -6 443 -4 451 -1 c 256
 460 2 469 7 480 13 c 257
 489 -23 506 -52 529 -75 c 256
 553 -98 579 -109 608 -109 c 257
 626 -107 643 -101 658 -89 c 256
 673 -77 684 -61 693 -42 c 257
 614 24 l 257
 614 12 611 2 604 -6 c 256
 597 -15 588 -19 578 -19 c 256
 566 -19 556 -12 548 3 c 256
 539 18 535 35 535 55 c 257
 554 78 570 102 580 125 c 256
 591 149 595 172 595 194 c 256
 595 207 589 223 575 244 c 256
 562 264 540 285 516 310 c 258
 480 349 l 257
 472 360 468 369 468 376 c 256
 468 381 469 386 471 390 c 256
 473 394 476 398 480 401 c 257
 389 444 l 257
 380 435 372 427 366 418 c 257
 361 408 359 398 359 389 c 256
 359 382 363 374 371 363 c 257
 380 353 392 341 408 328 c 256
 435 305 455 284 470 265 c 256
 485 246 493 230 493 219 c 256
 493 187 480 154 455 119 c 256
 429 84 405 66 383 66 c 256
 374 66 363 69 350 76 c 256
 337 82 324 91 310 104 c 257
 310 131 293 163 260 198 c 256
 227 232 197 249 170 249 c 256
 139 249 109 236 78 210 c 256
 47 184 31 159 31 134 c 256
 31 105 47 75 80 45 c 256
 113 15 145 0 176 0 c 256
139 335 m 257
 164 378 198 414 241 443 c 256
 284 471 334 490 389 500 c 256
 422 506 451 513 475 524 c 256
 498 534 516 547 528 560 c 257
 413 639 l 257
 406 622 389 605 360 589 c 256
 331 572 294 559 249 548 c 256
 196 535 150 517 113 494 c 256
 74 471 47 444 30 415 c 257
 139 335 l 257
EndSplineSet
PickledDataWithLists: "(dp1
S'com.adobe.type.autohint'
p2
(S'data'
S'<data>\\n  <hintSetList>\\n    <hintset pointTag=\"hr00\">\\n      <hstem pos=\"-109\" width=\"90\"/>\\n      <hstem pos=\"-6\" width=\"72\"/>\\n      <hstem pos=\"21\" width=\"-21\"/>\\n      <hstem pos=\"0\" width=\"73\"/>\\n      <hstem pos=\"164\" width=\"85\"/>\\n      <vstem pos=\"30\" width=\"663\"/>\\n      <vstem pos=\"31\" width=\"85\"/>\\n      <vstem pos=\"493\" width=\"102\"/>\\n    </hintset>\\n  </hintSetList>\\n  </data>'
Ntp3
s."
EndChar

StartChar: Sa
Encoding: 168 3128 168
GlifName: Sa_
Width: 611
VWidth: 0
Flags: W
LayerCount: 2
Back
Fore
SplineSet
169 -61 m 256
NamedP: "hr00"
 184 -61 202 -55 224 -42 c 257
 169 24 l 257
 164 18 157 14 150 11 c 256
 143 8 135 6 126 6 c 256
 121 6 117 9 114 14 c 256
 111 18 109 23 109 30 c 256
 109 45 119 62 139 81 c 256
 159 100 177 109 194 109 c 256
 202 109 212 105 225 96 c 256
 238 88 251 76 266 61 c 256
 285 42 308 27 333 16 c 256
 358 5 385 0 413 0 c 256
 458 0 498 21 536 61 c 256
 574 102 594 145 594 194 c 256
 594 210 586 229 570 251 c 256
 554 274 532 297 503 321 c 256
 488 334 477 343 471 350 c 256
 464 359 460 365 460 370 c 256
 460 377 462 385 466 393 c 257
 471 400 478 407 485 413 c 257
 375 438 l 257
 366 429 358 421 353 413 c 256
 348 404 345 396 345 389 c 256
 345 380 352 369 366 356 c 256
 379 344 399 331 424 316 c 256
 443 305 458 293 469 278 c 256
 480 262 485 246 485 231 c 256
 485 196 472 161 445 126 c 256
 418 91 391 73 364 73 c 256
 349 73 332 78 315 90 c 256
 298 102 281 119 266 140 c 256
 253 159 239 174 224 184 c 256
 209 195 194 200 181 200 c 256
 146 200 112 185 79 156 c 256
 46 128 30 98 30 66 c 256
 30 38 45 10 76 -19 c 256
 107 -47 138 -61 169 -61 c 256
NamedP: "hr00"
139 335 m 257
 164 378 198 414 241 443 c 256
 284 471 334 490 389 500 c 256
 422 506 451 513 475 524 c 256
 498 534 516 547 528 560 c 257
 413 639 l 257
 406 622 389 605 360 589 c 256
 331 572 294 559 249 548 c 256
 196 535 150 517 113 494 c 256
 74 471 47 444 30 415 c 257
 139 335 l 257
EndSplineSet
PickledDataWithLists: "(dp1
S'com.adobe.type.autohint'
p2
(S'data'
S'<data>\\n  <hintSetList>\\n    <hintset pointTag=\"hr00\">\\n      <hstem pos=\"0\" width=\"73\"/>\\n      <hstem pos=\"109\" width=\"91\"/>\\n      <vstem pos=\"30\" width=\"564\"/>\\n      <vstem pos=\"30\" width=\"79\"/>\\n      <vstem pos=\"485\" width=\"109\"/>\\n    </hintset>\\n  </hintSetList>\\n  </data>'
Ntp3
s."
EndChar

StartChar: Ha
Encoding: 169 3129 169
GlifName: Ha_
Width: 916
VWidth: 0
Flags: W
LayerCount: 2
Back
Fore
SplineSet
716 128 m 256
NamedP: "hr00"
 711 128 707 130 704 133 c 256
 701 137 699 141 699 146 c 256
 699 162 707 179 726 198 c 256
 745 217 762 225 778 225 c 256
 783 225 787 223 791 220 c 257
 794 216 796 211 796 206 c 256
 796 191 788 174 769 155 c 256
 750 136 733 128 716 128 c 256
NamedP: "hr00"
140 73 m 256
 133 73 128 75 124 78 c 256
 119 82 116 86 116 91 c 256
 116 107 126 123 145 140 c 256
 164 156 183 164 201 164 c 256
 206 164 211 162 214 159 c 256
 217 156 219 151 219 146 c 256
 219 131 210 115 193 98 c 256
 175 81 157 73 140 73 c 256
176 0 m 256
 196 0 216 5 235 15 c 256
 254 24 271 38 286 55 c 257
 307 38 330 24 354 14 c 256
 378 5 402 0 425 0 c 256
 464 0 504 23 543 69 c 256
 582 116 601 161 601 206 c 256
 601 226 590 249 569 275 c 256
 547 301 517 327 480 353 c 257
 523 360 569 364 620 364 c 258
 686 364 l 258
 723 364 754 355 781 333 c 256
 807 312 820 285 820 255 c 257
 809 268 796 279 781 286 c 256
 766 294 751 298 735 298 c 256
 709 298 684 287 661 264 c 256
 638 241 626 218 626 194 c 256
 626 165 641 138 671 109 c 256
 700 81 730 66 759 66 c 256
 792 66 823 84 854 120 c 256
 884 156 899 193 899 231 c 256
 899 274 876 317 831 360 c 256
 787 403 743 425 699 425 c 258
 444 425 l 258
 407 425 374 433 346 449 c 257
 286 359 l 257
 294 353 302 348 311 345 c 256
 320 342 330 340 340 340 c 256
 357 340 371 342 383 346 c 257
 416 329 443 310 463 288 c 256
 483 265 493 242 493 219 c 256
 493 182 481 147 458 114 c 256
 435 82 410 66 383 66 c 256
 374 66 363 69 350 76 c 256
 337 82 324 91 310 104 c 257
 310 133 294 166 263 201 c 256
 231 237 202 255 176 255 c 256
 145 255 113 242 80 215 c 256
 47 188 31 161 31 134 c 256
 31 105 47 75 80 45 c 256
 113 15 145 0 176 0 c 256
139 335 m 257
 164 378 198 414 241 443 c 256
 284 471 334 490 389 500 c 256
 422 506 451 513 475 524 c 256
 498 534 516 547 528 560 c 257
 413 639 l 257
 406 622 389 605 360 589 c 256
 331 572 294 559 249 548 c 256
 196 535 150 517 113 494 c 256
 74 471 47 444 30 415 c 257
 139 335 l 257
EndSplineSet
PickledDataWithLists: "(dp1
S'com.adobe.type.autohint'
p2
(S'data'
S'<data>\\n  <hintSetList>\\n    <hintset pointTag=\"hr00\">\\n      <hstem pos=\"0\" width=\"66\"/>\\n      <hstem pos=\"0\" width=\"73\"/>\\n      <hstem pos=\"66\" width=\"62\"/>\\n      <hstem pos=\"164\" width=\"91\"/>\\n      <hstem pos=\"225\" width=\"73\"/>\\n      <hstem pos=\"364\" width=\"61\"/>\\n      <vstem pos=\"31\" width=\"85\"/>\\n      <vstem pos=\"493\" width=\"108\"/>\\n      <vstem pos=\"626\" width=\"73\"/>\\n      <vstem pos=\"820\" width=\"79\"/>\\n    </hintset>\\n  </hintSetList>\\n  </data>'
Ntp3
s."
EndChar

StartChar: Avagraha
Encoding: 170 3133 170
GlifName: Avagraha_
Width: 829
VWidth: 0
Flags: W
LayerCount: 2
Back
Fore
SplineSet
191 0 m 256
NamedP: "hr00"
 388 12 546 21 665 21 c 256
 692 21 714 18 731 15 c 256
 749 11 762 7 771 0 c 257
 812 61 l 257
 801 74 783 83 757 90 c 256
 731 97 700 101 665 101 c 256
 612 101 532 93 427 77 c 256
 323 62 244 54 191 54 c 256
 175 54 161 59 149 69 c 256
 137 80 131 93 131 108 c 256
 131 128 144 145 169 159 c 256
 196 174 228 181 265 181 c 256
 314 181 357 194 393 222 c 256
 428 249 445 283 445 321 c 256
 445 357 421 393 374 429 c 256
 326 465 278 483 231 483 c 256
 185 483 142 471 103 447 c 256
 64 423 44 397 44 368 c 256
 44 346 60 324 91 301 c 256
 122 279 154 268 185 268 c 256
 204 268 220 272 234 279 c 256
 249 286 259 296 265 308 c 257
 225 335 l 257
 221 325 215 317 207 312 c 256
 198 305 188 302 178 302 c 256
 165 302 154 306 145 313 c 257
 136 322 131 331 131 342 c 256
 131 363 144 381 171 397 c 256
 198 414 227 422 258 422 c 256
 283 422 305 415 324 399 c 256
 342 384 351 364 351 342 c 256
 351 313 336 287 305 266 c 256
 274 245 236 235 191 235 c 256
 147 235 109 224 77 203 c 256
 46 182 30 156 30 127 c 256
 30 96 47 67 81 40 c 256
 115 13 152 -2 191 0 c 256
NamedP: "hr00"
EndSplineSet
PickledDataWithLists: "(dp1
S'com.adobe.type.autohint'
p2
(S'data'
S'<data>\\n  <hintSetList>\\n    <hintset pointTag=\"hr00\">\\n      <hstem pos=\"0\" width=\"54\"/>\\n      <hstem pos=\"21\" width=\"80\"/>\\n      <hstem pos=\"181\" width=\"54\"/>\\n      <hstem pos=\"268\" width=\"34\"/>\\n      <hstem pos=\"422\" width=\"61\"/>\\n      <vstem pos=\"30\" width=\"101\"/>\\n      <vstem pos=\"44\" width=\"87\"/>\\n      <vstem pos=\"351\" width=\"94\"/>\\n    </hintset>\\n  </hintSetList>\\n  </data>'
Ntp3
s."
EndChar

StartChar: AAMatra
Encoding: 171 3134 171
GlifName: AAMatra_
Width: 575
VWidth: 0
Flags: W
LayerCount: 2
Back
Fore
SplineSet
404 110 m 256
NamedP: "hr00"
 398 110 393 111 390 114 c 256
 386 117 384 120 384 124 c 256
 384 137 391 150 405 165 c 256
 419 179 432 186 445 186 c 256
 449 186 452 184 455 180 c 256
 458 175 459 170 459 165 c 256
 459 154 452 142 439 129 c 256
 426 116 414 110 404 110 c 256
NamedP: "hr00"
317 150 m 256
 317 128 330 105 357 82 c 256
 382 59 408 48 434 48 c 256
 460 48 485 64 511 97 c 256
 537 130 551 162 551 195 c 256
 551 224 533 257 497 293 c 256
 460 330 428 348 399 348 c 258
 -33 348 l 258
 -82 348 -127 360 -168 383 c 257
 -218 302 l 257
 -189 285 -157 277 -122 277 c 256
 -68 277 13 281 121 289 c 256
 229 298 310 302 363 302 c 256
 398 302 427 294 448 279 c 256
 469 263 480 242 480 216 c 257
 472 226 462 233 451 238 c 256
 439 243 427 246 414 246 c 256
 395 246 375 235 352 212 c 256
 329 190 317 169 317 150 c 256
EndSplineSet
PickledDataWithLists: "(dp1
S'com.adobe.type.autohint'
p2
(S'data'
S'<data>\\n  <hintSetList>\\n    <hintset pointTag=\"hr00\">\\n      <hstem pos=\"48\" width=\"62\"/>\\n      <hstem pos=\"186\" width=\"60\"/>\\n      <hstem pos=\"302\" width=\"46\"/>\\n      <vstem pos=\"-218\" width=\"769\"/>\\n      <vstem pos=\"317\" width=\"67\"/>\\n      <vstem pos=\"480\" width=\"71\"/>\\n    </hintset>\\n  </hintSetList>\\n  </data>'
Ntp3
s."
EndChar

StartChar: Imatra
Encoding: 172 3135 172
GlifName: Imatra_
Width: 0
VWidth: 0
Flags: W
LayerCount: 2
Back
Fore
SplineSet
-66 454 m 256
NamedP: "hr00"
 -70 454 -74 456 -77 459 c 256
 -80 462 -81 466 -81 470 c 256
 -81 480 -74 490 -59 500 c 256
 -44 510 -30 515 -16 515 c 256
 -11 515 -7 514 -4 511 c 256
 -1 508 0 505 0 500 c 256
 0 490 -7 479 -21 469 c 256
 -36 458 -51 454 -66 454 c 256
NamedP: "hr00"
0 307 m 256
 28 307 53 317 74 337 c 256
 96 358 107 382 107 408 c 256
 107 443 92 478 61 513 c 256
 30 548 0 566 -30 566 c 257
 -37 569 l 257
 -42 570 -45 571 -46 571 c 256
 -73 571 -95 563 -114 547 c 256
 -133 531 -142 512 -142 490 c 256
 -142 472 -128 453 -101 433 c 256
 -75 413 -50 403 -25 403 c 256
 -12 403 2 407 15 414 c 256
 28 421 40 431 51 444 c 257
 59 435 l 257
 60 431 61 427 61 424 c 256
 61 409 52 395 33 382 c 256
 13 369 -8 363 -30 363 c 256
 -45 363 -59 365 -71 368 c 256
 -82 370 -91 373 -96 378 c 257
 -112 353 l 257
 -95 338 -76 327 -56 319 c 256
 -37 311 -18 307 0 307 c 256
EndSplineSet
PickledDataWithLists: "(dp1
S'com.adobe.type.autohint'
p2
(S'data'
S'<data>\\n  <hintSetList>\\n    <hintset pointTag=\"hr00\">\\n      <hstem pos=\"307\" width=\"56\"/>\\n      <hstem pos=\"403\" width=\"51\"/>\\n      <hstem pos=\"515\" width=\"51\"/>\\n      <vstem pos=\"-142\" width=\"61\"/>\\n      <vstem pos=\"61\" width=\"46\"/>\\n    </hintset>\\n  </hintSetList>\\n  </data>'
Ntp3
s."
EndChar

StartChar: IIMatra
Encoding: 173 3136 173
GlifName: IIMatra_
Width: 0
VWidth: 0
Flags: W
LayerCount: 2
Back
Fore
SplineSet
-66 454 m 256
NamedP: "hr00"
 -70 454 -74 456 -77 459 c 256
 -80 462 -81 466 -81 470 c 256
 -81 480 -74 490 -59 500 c 256
 -44 510 -30 515 -16 515 c 256
 -11 515 -7 514 -4 511 c 256
 -1 508 0 505 0 500 c 256
 0 490 -7 479 -21 469 c 256
 -36 458 -51 454 -66 454 c 256
NamedP: "hr00"
0 307 m 256
 28 307 53 317 74 337 c 256
 96 358 107 382 107 408 c 256
 107 430 100 453 86 477 c 256
 71 501 51 524 25 545 c 257
 22 555 20 562 20 566 c 256
 20 578 29 592 46 608 c 256
 63 624 78 632 91 632 c 256
 96 632 100 630 105 626 c 256
 110 621 112 616 112 612 c 256
 112 605 109 599 104 592 c 257
 98 586 91 581 82 577 c 257
 142 525 l 257
 152 534 159 543 164 552 c 256
 170 561 173 571 173 581 c 256
 173 605 160 630 135 655 c 256
 110 680 85 693 61 693 c 256
 41 693 20 683 -2 663 c 256
 -24 643 -35 624 -35 607 c 256
 -35 596 -35 588 -34 581 c 256
 -33 574 -31 569 -30 566 c 257
 -37 569 l 257
 -42 570 -45 571 -46 571 c 256
 -73 571 -95 563 -114 547 c 256
 -133 531 -142 512 -142 490 c 256
 -142 472 -128 453 -101 433 c 256
 -75 413 -50 403 -25 403 c 256
 -12 403 2 407 15 414 c 256
 28 421 40 431 51 444 c 257
 59 435 l 257
 60 431 61 427 61 424 c 256
 61 409 52 395 33 382 c 256
 13 369 -8 363 -30 363 c 256
 -45 363 -59 365 -71 368 c 256
 -82 370 -91 373 -96 378 c 257
 -112 353 l 257
 -95 338 -76 327 -56 319 c 256
 -37 311 -18 307 0 307 c 256
EndSplineSet
PickledDataWithLists: "(dp1
S'com.adobe.type.autohint'
p2
(S'data'
S'<data>\\n  <hintSetList>\\n    <hintset pointTag=\"hr00\">\\n      <hstem pos=\"307\" width=\"56\"/>\\n      <hstem pos=\"403\" width=\"51\"/>\\n      <hstem pos=\"515\" width=\"56\"/>\\n      <hstem pos=\"632\" width=\"61\"/>\\n      <vstem pos=\"-142\" width=\"61\"/>\\n      <vstem pos=\"-35\" width=\"55\"/>\\n      <vstem pos=\"61\" width=\"46\"/>\\n      <vstem pos=\"112\" width=\"61\"/>\\n    </hintset>\\n  </hintSetList>\\n  </data>'
Ntp3
s."
EndChar

StartChar: UMatra
Encoding: 174 3137 174
GlifName: UMatra_
Width: 278
VWidth: 0
Flags: W
LayerCount: 2
Back
Fore
SplineSet
112 -7 m 256
NamedP: "hr00"
 148 -7 182 10 213 44 c 256
 244 77 259 114 259 154 c 256
 259 172 252 190 239 209 c 256
 225 228 206 245 183 261 c 256
 173 267 166 274 161 282 c 257
 155 289 152 295 152 302 c 256
 152 305 154 309 157 313 c 256
 160 318 163 323 168 328 c 257
 92 363 l 257
 81 357 72 349 66 340 c 256
 59 331 56 322 56 312 c 256
 56 305 62 296 74 285 c 256
 85 274 101 263 122 252 c 256
 141 241 155 228 166 215 c 256
 177 201 183 188 183 175 c 256
 183 145 171 117 149 92 c 256
 126 66 103 53 76 53 c 256
 53 53 31 62 9 79 c 256
 -12 96 -30 120 -45 149 c 257
 -66 141 l 257
 -66 99 l 257
 -51 66 -28 41 4 22 c 256
 36 3 72 -7 112 -7 c 256
NamedP: "hr00"
EndSplineSet
PickledDataWithLists: "(dp1
S'com.adobe.type.autohint'
p2
(S'data'
S'<data>\\n  <hintSetList>\\n    <hintset pointTag=\"hr00\">\\n      <hstem pos=\"-7\" width=\"60\"/>\\n      <vstem pos=\"183\" width=\"76\"/>\\n    </hintset>\\n  </hintSetList>\\n  </data>'
Ntp3
s."
EndChar

StartChar: UUMatra
Encoding: 175 3138 175
GlifName: UUMatra_
Width: 552
VWidth: 0
Flags: W
LayerCount: 2
Back
Fore
SplineSet
385 110 m 256
NamedP: "hr00"
 380 110 375 111 372 114 c 256
 368 117 366 120 366 124 c 256
 366 137 372 150 386 165 c 256
 399 179 413 186 426 186 c 256
 430 186 434 184 438 180 c 257
 441 175 442 170 442 165 c 256
 442 154 435 142 422 129 c 256
 409 116 396 110 385 110 c 256
NamedP: "hr00"
106 -7 m 256
 145 -7 182 10 215 45 c 256
 248 80 264 119 264 160 c 256
 264 173 259 186 249 200 c 256
 238 215 223 228 204 241 c 256
 183 256 167 271 158 287 c 257
 341 302 l 258
 378 305 407 294 428 279 c 256
 451 263 462 242 462 216 c 257
 453 226 443 233 431 238 c 256
 419 243 406 246 391 246 c 256
 374 246 354 235 332 212 c 256
 311 190 300 169 300 150 c 256
 300 128 313 105 339 82 c 256
 365 59 391 48 417 48 c 256
 442 48 468 64 494 97 c 256
 520 130 533 162 533 195 c 256
 533 224 514 256 478 293 c 256
 442 329 410 348 381 348 c 258
 243 348 l 258
 173 348 117 360 76 383 c 257
 21 302 l 257
 38 292 58 287 81 287 c 257
 119 256 l 258
 161 221 183 199 183 186 c 256
 183 157 170 127 147 98 c 256
 123 68 100 53 76 53 c 256
 49 53 25 61 3 78 c 256
 -19 95 -35 117 -45 144 c 257
 -66 141 l 257
 -66 99 l 257
 -51 66 -28 41 3 22 c 256
 34 3 68 -7 106 -7 c 256
EndSplineSet
PickledDataWithLists: "(dp1
S'com.adobe.type.autohint'
p2
(S'data'
S'<data>\\n  <hintSetList>\\n    <hintset pointTag=\"hr00\">\\n      <hstem pos=\"-7\" width=\"60\"/>\\n      <hstem pos=\"48\" width=\"62\"/>\\n      <hstem pos=\"186\" width=\"60\"/>\\n      <hstem pos=\"302\" width=\"46\"/>\\n      <vstem pos=\"-66\" width=\"599\"/>\\n      <vstem pos=\"183\" width=\"81\"/>\\n      <vstem pos=\"300\" width=\"66\"/>\\n      <vstem pos=\"462\" width=\"71\"/>\\n    </hintset>\\n  </hintSetList>\\n  </data>'
Ntp3
s."
EndChar

StartChar: RMatra
Encoding: 176 3139 176
GlifName: RMatra_
Width: 148
VWidth: 0
Flags: W
LayerCount: 2
Back
Fore
SplineSet
-57 -137 m 256
NamedP: "hr00"
 -59 -137 -61 -136 -64 -134 c 256
 -66 -133 -67 -131 -67 -129 c 256
 -67 -122 -63 -115 -56 -109 c 256
 -49 -103 -42 -100 -33 -100 c 256
 -31 -100 -29 -101 -28 -103 c 256
 -27 -104 -26 -105 -26 -107 c 256
 -26 -114 -29 -120 -36 -127 c 256
 -42 -134 -49 -137 -57 -137 c 256
NamedP: "hr00"
54 -280 m 256
 89 -280 118 -270 142 -251 c 256
 165 -232 177 -208 177 -181 c 256
 177 -148 161 -103 128 -48 c 256
 116 -27 107 -7 101 10 c 256
 95 27 92 41 92 53 c 256
 92 62 96 72 104 81 c 256
 113 90 126 98 144 104 c 257
 73 140 l 257
 62 133 54 125 48 115 c 256
 42 106 39 95 39 84 c 256
 39 57 47 28 65 -3 c 256
 97 -58 113 -103 113 -140 c 256
 113 -167 103 -190 84 -209 c 256
 65 -228 42 -237 14 -237 c 256
 -15 -237 -39 -231 -60 -220 c 256
 -79 -209 -89 -196 -89 -181 c 256
 -89 -174 -87 -167 -84 -159 c 257
 -71 -166 -57 -169 -44 -169 c 256
 -25 -169 -10 -164 3 -153 c 256
 16 -142 23 -128 23 -112 c 256
 23 -97 16 -84 2 -73 c 256
 -13 -62 -30 -57 -49 -57 c 256
 -73 -57 -97 -72 -122 -101 c 256
 -146 -130 -158 -158 -158 -187 c 256
 -158 -211 -135 -233 -90 -252 c 256
 -45 -271 3 -280 54 -280 c 256
EndSplineSet
PickledDataWithLists: "(dp1
S'com.adobe.type.autohint'
p2
(S'data'
S'<data>\\n  <hintSetList>\\n    <hintset pointTag=\"hr00\">\\n      <hstem pos=\"-280\" width=\"43\"/>\\n      <hstem pos=\"-169\" width=\"32\"/>\\n      <hstem pos=\"-100\" width=\"43\"/>\\n      <vstem pos=\"-158\" width=\"69\"/>\\n      <vstem pos=\"-26\" width=\"49\"/>\\n      <vstem pos=\"39\" width=\"53\"/>\\n      <vstem pos=\"113\" width=\"64\"/>\\n    </hintset>\\n  </hintSetList>\\n  </data>'
Ntp3
s."
EndChar

StartChar: RRMatra
Encoding: 177 3140 177
GlifName: RRMatra_
Width: 386
VWidth: 0
Flags: W
LayerCount: 2
Back
Fore
SplineSet
-52 -135 m 256
NamedP: "hr00"
 -54 -135 -56 -134 -58 -132 c 256
 -60 -130 -61 -128 -61 -127 c 256
 -61 -120 -57 -113 -50 -107 c 256
 -43 -100 -36 -97 -27 -97 c 256
 -25 -97 -23 -98 -22 -100 c 256
 -21 -101 -20 -102 -20 -104 c 256
 -20 -111 -23 -117 -30 -124 c 256
 -36 -131 -43 -135 -52 -135 c 256
NamedP: "hr00"
240 -64 m 256
 238 -64 236 -63 233 -60 c 256
 230 -57 229 -54 229 -51 c 256
 229 -42 235 -34 248 -25 c 256
 261 -16 273 -11 285 -11 c 256
 289 -11 293 -12 296 -14 c 256
 298 -15 299 -17 299 -19 c 256
 299 -28 293 -38 280 -49 c 256
 267 -59 254 -64 240 -64 c 256
61 -280 m 256
 96 -280 126 -270 150 -251 c 256
 174 -231 186 -207 186 -180 c 256
 186 -146 170 -101 137 -44 c 256
 124 -23 115 -4 109 11 c 256
 102 26 99 38 99 47 c 256
 99 50 101 54 104 59 c 257
 253 65 l 258
 270 66 284 59 297 48 c 256
 309 37 315 27 315 16 c 257
 310 22 302 27 291 32 c 256
 280 36 269 38 258 38 c 256
 238 38 218 30 199 14 c 256
 179 -2 169 -18 169 -34 c 256
 169 -51 178 -69 200 -87 c 256
 221 -105 240 -113 258 -113 c 256
 290 -113 317 -101 340 -78 c 256
 364 -53 375 -24 375 9 c 256
 375 34 360 57 331 80 c 256
 303 103 274 114 243 114 c 258
 156 114 l 258
 135 114 115 117 98 123 c 256
 82 128 69 136 58 148 c 257
 49 132 39 119 30 110 c 256
 21 101 11 94 -1 90 c 257
 16 76 31 68 46 65 c 257
 46 60 48 52 53 41 c 256
 57 30 64 17 73 2 c 256
 105 -54 121 -101 121 -138 c 256
 121 -165 111 -189 92 -208 c 256
 73 -227 49 -237 21 -237 c 256
 -8 -237 -33 -231 -54 -219 c 256
 -74 -208 -84 -195 -84 -180 c 256
 -84 -173 -82 -165 -79 -157 c 257
 -65 -164 -51 -167 -38 -167 c 256
 -19 -167 -3 -162 10 -151 c 256
 23 -139 30 -125 30 -110 c 256
 30 -94 23 -81 8 -70 c 256
 -7 -59 -24 -54 -43 -54 c 256
 -68 -54 -93 -69 -118 -98 c 256
 -142 -127 -154 -156 -154 -185 c 256
 -154 -210 -131 -232 -85 -251 c 256
 -39 -270 10 -280 61 -280 c 256
EndSplineSet
PickledDataWithLists: "(dp1
S'com.adobe.type.autohint'
p2
(S'data'
S'<data>\\n  <hintSetList>\\n    <hintset pointTag=\"hr00\">\\n      <hstem pos=\"-280\" width=\"43\"/>\\n      <hstem pos=\"-167\" width=\"32\"/>\\n      <hstem pos=\"-113\" width=\"49\"/>\\n      <hstem pos=\"-97\" width=\"43\"/>\\n      <hstem pos=\"-11\" width=\"49\"/>\\n      <hstem pos=\"65\" width=\"49\"/>\\n      <vstem pos=\"-154\" width=\"70\"/>\\n      <vstem pos=\"-20\" width=\"50\"/>\\n      <vstem pos=\"121\" width=\"65\"/>\\n      <vstem pos=\"169\" width=\"60\"/>\\n      <vstem pos=\"315\" width=\"60\"/>\\n    </hintset>\\n  </hintSetList>\\n  </data>'
Ntp3
s."
EndChar

StartChar: uni0C46
Encoding: 178 3142 178
GlifName: uni0C46_
Width: 0
VWidth: 0
Flags: W
LayerCount: 2
Back
Fore
SplineSet
221 414 m 256
NamedP: "hr00"
 221 431 208 451 183 473 c 256
 158 495 135 506 114 506 c 256
 95 506 67 502 30 495 c 256
 -8 488 -36 485 -55 485 c 256
 -69 485 -83 488 -97 494 c 257
 -110 501 -123 509 -135 520 c 257
 -222 465 l 257
 -206 452 -190 442 -175 435 c 256
 -160 428 -145 424 -131 424 c 256
 -107 424 -71 428 -23 437 c 256
 24 445 60 449 84 449 c 256
 93 449 100 445 106 438 c 257
 111 429 114 419 114 408 c 256
 114 391 106 377 90 366 c 256
 74 354 55 348 32 348 c 258
 -99 348 l 258
 -104 348 -109 346 -112 342 c 257
 -117 338 -119 333 -119 328 c 256
 -119 323 -117 318 -112 313 c 256
 -109 309 -104 307 -99 307 c 258
 52 307 l 258
 99 307 139 317 172 338 c 256
 205 359 221 385 221 414 c 256
NamedP: "hr00"
EndSplineSet
PickledDataWithLists: "(dp1
S'com.adobe.type.autohint'
p2
(S'data'
S'<data>\\n  <hintSetList>\\n    <hintset pointTag=\"hr00\">\\n      <hstem pos=\"307\" width=\"41\"/>\\n      <hstem pos=\"424\" width=\"61\"/>\\n      <hstem pos=\"449\" width=\"57\"/>\\n      <vstem pos=\"-222\" width=\"443\"/>\\n      <vstem pos=\"114\" width=\"107\"/>\\n    </hintset>\\n  </hintSetList>\\n  </data>'
Ntp3
s."
EndChar

StartChar: EEMatra
Encoding: 179 3143 179
GlifName: EEMatra_
Width: 0
VWidth: 0
Flags: W
LayerCount: 2
Back
Fore
SplineSet
216 414 m 256
NamedP: "hr00"
 216 423 212 434 203 446 c 256
 194 458 181 469 165 479 c 257
 160 500 l 257
 160 512 168 526 184 542 c 256
 200 558 214 566 226 566 c 256
 231 566 237 564 244 559 c 256
 249 555 252 550 252 545 c 256
 252 539 250 533 245 526 c 256
 240 520 234 515 226 510 c 257
 282 465 l 257
 291 470 299 478 304 487 c 257
 310 495 313 504 313 515 c 256
 313 540 300 565 274 591 c 256
 248 618 224 632 201 632 c 256
 180 632 157 622 134 601 c 256
 111 580 99 560 99 541 c 256
 99 533 103 521 110 506 c 257
 93 506 67 502 32 495 c 256
 -1 488 -27 485 -44 485 c 256
 -58 485 -72 488 -86 494 c 257
 -99 501 -112 509 -124 520 c 257
 -211 465 l 257
 -195 452 -179 442 -164 435 c 256
 -149 428 -134 424 -120 424 c 256
 -98 424 -65 428 -20 437 c 256
 24 445 57 449 80 449 c 256
 88 449 95 445 101 438 c 256
 107 429 110 419 110 408 c 256
 110 391 99 377 78 366 c 256
 57 354 32 348 3 348 c 258
 -106 348 l 258
 -112 348 -117 346 -121 343 c 257
 -124 338 -126 333 -127 328 c 256
 -128 323 -126 318 -122 313 c 256
 -119 309 -114 307 -109 307 c 258
 1 307 l 258
 60 307 111 317 154 338 c 256
 195 359 216 385 216 414 c 256
NamedP: "hr00"
EndSplineSet
PickledDataWithLists: "(dp1
S'com.adobe.type.autohint'
p2
(S'data'
S'<data>\\n  <hintSetList>\\n    <hintset pointTag=\"hr00\">\\n      <hstem pos=\"307\" width=\"41\"/>\\n      <hstem pos=\"424\" width=\"61\"/>\\n      <hstem pos=\"449\" width=\"57\"/>\\n      <hstem pos=\"566\" width=\"66\"/>\\n      <vstem pos=\"-211\" width=\"524\"/>\\n      <vstem pos=\"110\" width=\"106\"/>\\n      <vstem pos=\"252\" width=\"61\"/>\\n    </hintset>\\n  </hintSetList>\\n  </data>'
Ntp3
s."
EndChar

StartChar: AIMatra
Encoding: 180 3144 180
GlifName: AIMatra_
Width: 523
VWidth: 0
Flags: W
LayerCount: 2
Back
Fore
SplineSet
385 -180 m 257
NamedP: "hr00"
 400 -180 414 -181 425 -184 c 256
 436 -187 445 -191 451 -196 c 257
 471 -175 l 257
 458 -162 442 -151 423 -144 c 256
 405 -137 385 -134 364 -134 c 257
 156 -165 l 257
 144 -165 133 -162 124 -155 c 256
 115 -148 110 -139 110 -130 c 256
 110 -117 116 -106 127 -97 c 256
 138 -88 152 -84 167 -84 c 256
 170 -84 172 -85 174 -88 c 256
 176 -91 177 -94 177 -98 c 256
 177 -103 175 -107 170 -111 c 256
 165 -114 159 -117 151 -119 c 257
 177 -150 l 257
 189 -146 198 -140 205 -133 c 256
 213 -125 217 -117 217 -109 c 256
 217 -97 208 -85 189 -72 c 256
 170 -59 150 -53 131 -53 c 256
 112 -53 95 -60 79 -74 c 256
 63 -88 55 -103 55 -119 c 256
 55 -140 69 -160 96 -180 c 256
 123 -200 150 -210 177 -210 c 257
 385 -180 l 257
NamedP: "hr00"
293 297 m 257
 300 312 315 328 337 343 c 256
 359 358 387 371 421 383 c 257
 431 388 440 393 447 398 c 256
 453 403 456 409 456 414 c 256
 456 431 444 451 419 473 c 256
 393 495 370 506 350 506 c 257
 222 485 l 257
 208 485 194 488 180 494 c 257
 167 501 154 509 142 520 c 257
 55 465 l 257
 71 452 87 442 102 435 c 256
 117 428 132 424 146 424 c 257
 319 449 l 257
 328 449 335 448 341 445 c 256
 347 442 350 439 350 435 c 256
 350 430 346 424 338 419 c 257
 331 412 322 407 309 403 c 256
 278 392 247 368 217 332 c 257
 231 329 256 318 293 297 c 257
EndSplineSet
PickledDataWithLists: "(dp1
S'com.adobe.type.autohint'
p2
(S'data'
S'<data>\\n  <hintSetList>\\n    <hintset pointTag=\"hr00\">\\n      <hstem pos=\"-210\" width=\"45\"/>\\n      <hstem pos=\"-180\" width=\"46\"/>\\n      <hstem pos=\"-84\" width=\"31\"/>\\n      <hstem pos=\"449\" width=\"57\"/>\\n      <vstem pos=\"55\" width=\"416\"/>\\n      <vstem pos=\"55\" width=\"55\"/>\\n      <vstem pos=\"177\" width=\"40\"/>\\n    </hintset>\\n  </hintSetList>\\n  </data>'
Ntp3
s."
EndChar

StartChar: OMatra
Encoding: 181 3146 181
GlifName: OMatra_
Width: 578
VWidth: 0
Flags: W
LayerCount: 2
Back
Fore
SplineSet
403 206 m 256
NamedP: "hr00"
 397 206 392 208 388 212 c 256
 384 215 382 220 382 226 c 256
 382 237 389 249 403 262 c 256
 417 275 430 282 442 282 c 256
 447 282 451 281 454 278 c 256
 457 275 458 271 458 266 c 256
 458 253 452 239 439 226 c 256
 427 213 415 206 403 206 c 256
NamedP: "hr00"
316 246 m 256
 316 224 330 202 359 179 c 256
 387 156 415 145 442 145 c 256
 467 145 492 161 517 194 c 256
 542 227 554 259 554 292 c 256
 554 330 527 368 473 407 c 256
 418 446 363 465 310 465 c 256
 294 465 278 459 261 448 c 256
 244 437 228 422 214 403 c 257
 195 421 175 435 156 445 c 256
 137 455 119 460 102 460 c 258
 21 460 l 258
 -27 460 -71 449 -111 430 c 256
 -152 410 -172 391 -172 368 c 256
 -172 351 -163 337 -146 325 c 256
 -128 313 -106 307 -81 307 c 258
 16 307 l 257
 16 348 l 257
 -30 348 l 258
 -38 348 -45 349 -52 352 c 256
 -57 355 -60 359 -60 363 c 256
 -60 374 -48 385 -24 394 c 256
 1 403 28 408 57 408 c 258
 112 408 l 258
 127 408 142 405 156 399 c 256
 170 393 183 384 194 373 c 257
 178 343 l 257
 184 332 194 322 208 312 c 256
 222 303 239 295 260 287 c 257
 275 321 292 348 311 369 c 256
 330 389 349 399 366 399 c 256
 392 399 418 389 444 370 c 256
 470 350 483 331 483 312 c 257
 477 323 468 332 456 338 c 256
 444 345 431 348 417 348 c 256
 392 348 369 337 347 316 c 256
 326 295 316 271 316 246 c 256
EndSplineSet
PickledDataWithLists: "(dp1
S'com.adobe.type.autohint'
p2
(S'data'
S'<data>\\n  <hintSetList>\\n    <hintset pointTag=\"hr00\">\\n      <hstem pos=\"145\" width=\"61\"/>\\n      <hstem pos=\"282\" width=\"66\"/>\\n      <hstem pos=\"307\" width=\"41\"/>\\n      <hstem pos=\"399\" width=\"66\"/>\\n      <hstem pos=\"408\" width=\"52\"/>\\n      <vstem pos=\"-172\" width=\"726\"/>\\n      <vstem pos=\"316\" width=\"66\"/>\\n      <vstem pos=\"483\" width=\"71\"/>\\n    </hintset>\\n  </hintSetList>\\n  </data>'
Ntp3
s."
EndChar

StartChar: OOMatra
Encoding: 182 3147 182
GlifName: OOMatra_
Width: 612
VWidth: 0
Flags: W
LayerCount: 2
Back
Fore
SplineSet
398 206 m 256
NamedP: "hr00"
 392 206 387 208 383 212 c 256
 379 215 377 220 377 226 c 256
 377 237 384 249 398 262 c 256
 412 275 425 282 438 282 c 256
 443 282 446 281 449 278 c 256
 452 275 453 271 453 266 c 256
 453 253 447 239 434 226 c 256
 421 213 409 206 398 206 c 256
NamedP: "hr00"
311 246 m 256
 311 224 325 202 354 179 c 256
 382 156 410 145 438 145 c 256
 463 145 487 161 511 194 c 256
 536 227 549 259 549 292 c 256
 549 305 540 321 521 342 c 256
 506 359 479 383 442 414 c 257
 435 423 l 258
 433 426 432 428 432 429 c 256
 432 445 440 462 455 479 c 256
 470 497 485 506 498 506 c 256
 503 506 507 503 511 498 c 257
 516 494 519 490 519 485 c 256
 519 476 517 468 514 461 c 256
 510 452 505 445 498 439 c 257
 558 394 l 257
 568 402 576 411 581 421 c 256
 587 431 590 440 590 449 c 256
 590 471 575 495 546 521 c 256
 517 548 491 561 468 561 c 256
 444 561 422 552 402 533 c 256
 381 514 371 493 371 470 c 256
 371 460 374 450 381 439 c 257
 350 453 323 460 300 460 c 256
 284 460 268 455 252 445 c 256
 235 434 221 420 208 403 c 257
 189 421 170 435 151 445 c 256
 132 455 114 460 97 460 c 258
 21 460 l 258
 -27 460 -71 449 -111 430 c 256
 -152 410 -172 391 -172 368 c 256
 -172 355 -162 340 -142 327 c 256
 -121 313 -101 307 -81 307 c 258
 16 307 l 257
 16 348 l 257
 -25 348 l 258
 -34 348 -43 350 -50 354 c 256
 -57 357 -60 362 -60 368 c 256
 -60 377 -50 388 -29 396 c 256
 -7 405 16 408 41 408 c 258
 107 408 l 258
 122 408 137 405 151 399 c 256
 165 393 178 384 189 373 c 257
 173 343 l 257
 179 332 189 322 203 312 c 256
 217 303 234 295 254 287 c 257
 269 321 287 348 306 369 c 256
 325 389 344 399 361 399 c 256
 387 399 413 389 438 370 c 256
 465 350 478 331 478 312 c 257
 472 323 463 332 451 338 c 256
 439 345 426 348 412 348 c 256
 387 348 364 337 342 316 c 256
 321 295 311 271 311 246 c 256
EndSplineSet
PickledDataWithLists: "(dp1
S'com.adobe.type.autohint'
p2
(S'data'
S'<data>\\n  <hintSetList>\\n    <hintset pointTag=\"hr00\">\\n      <hstem pos=\"145\" width=\"61\"/>\\n      <hstem pos=\"282\" width=\"66\"/>\\n      <hstem pos=\"307\" width=\"41\"/>\\n      <hstem pos=\"399\" width=\"61\"/>\\n      <hstem pos=\"408\" width=\"52\"/>\\n      <hstem pos=\"506\" width=\"55\"/>\\n      <vstem pos=\"-172\" width=\"762\"/>\\n      <vstem pos=\"311\" width=\"66\"/>\\n      <vstem pos=\"371\" width=\"61\"/>\\n      <vstem pos=\"478\" width=\"71\"/>\\n      <vstem pos=\"519\" width=\"71\"/>\\n    </hintset>\\n  </hintSetList>\\n  </data>'
Ntp3
s."
EndChar

StartChar: AuMatra
Encoding: 183 3148 183
GlifName: AuMatra_
Width: 553
VWidth: 0
Flags: W
LayerCount: 2
Back
Fore
SplineSet
378 241 m 256
NamedP: "hr00"
 373 241 369 242 366 245 c 256
 363 249 362 253 362 257 c 256
 362 270 369 283 383 297 c 256
 397 310 410 317 423 317 c 256
 427 317 431 316 434 313 c 256
 437 310 438 306 438 302 c 256
 438 289 431 276 417 262 c 256
 403 248 390 241 378 241 c 256
NamedP: "hr00"
296 292 m 256
 296 269 309 245 336 221 c 256
 362 198 388 186 413 186 c 256
 442 186 468 199 493 226 c 256
 517 252 529 281 529 312 c 256
 529 353 509 392 469 427 c 256
 428 462 384 479 337 479 c 258
 21 479 l 258
 -30 479 -76 491 -117 515 c 257
 -172 435 l 257
 -165 428 -151 424 -130 422 c 256
 -113 420 -86 419 -50 419 c 258
 77 419 l 258
 86 419 95 416 102 411 c 257
 109 404 112 397 112 389 c 256
 112 378 108 368 101 359 c 257
 92 352 82 348 71 348 c 258
 -65 348 l 258
 -74 348 -84 343 -93 334 c 256
 -102 325 -106 316 -106 307 c 257
 97 307 l 258
 122 307 143 312 161 322 c 256
 180 332 189 344 189 358 c 256
 189 369 185 379 178 390 c 256
 171 401 161 410 148 419 c 257
 187 426 250 429 337 429 c 256
 370 429 399 421 423 405 c 256
 446 389 458 370 458 348 c 257
 450 357 441 365 430 370 c 256
 419 375 409 378 398 378 c 256
 373 378 349 369 328 351 c 256
 307 333 296 313 296 292 c 256
EndSplineSet
PickledDataWithLists: "(dp1
S'com.adobe.type.autohint'
p2
(S'data'
S'<data>\\n  <hintSetList>\\n    <hintset pointTag=\"hr00\">\\n      <hstem pos=\"186\" width=\"55\"/>\\n      <hstem pos=\"307\" width=\"41\"/>\\n      <hstem pos=\"317\" width=\"61\"/>\\n      <hstem pos=\"429\" width=\"50\"/>\\n      <vstem pos=\"-172\" width=\"701\"/>\\n      <vstem pos=\"296\" width=\"66\"/>\\n      <vstem pos=\"438\" width=\"91\"/>\\n    </hintset>\\n  </hintSetList>\\n  </data>'
Ntp3
s."
EndChar

StartChar: Halanth
Encoding: 184 3149 184
GlifName: Halanth_
Width: 0
VWidth: 0
Flags: W
LayerCount: 2
Back
Fore
SplineSet
-162 485 m 256
NamedP: "hr00"
 -162 476 -156 466 -144 454 c 256
 -132 443 -116 431 -96 419 c 257
 -109 411 -119 404 -128 397 c 256
 -135 390 -140 383 -142 378 c 257
 -137 363 -121 347 -94 331 c 256
 -68 315 -45 307 -25 307 c 258
 92 307 l 257
 92 348 l 257
 0 348 l 257
 -9 349 -16 351 -22 354 c 256
 -28 357 -33 360 -36 363 c 257
 -30 372 -21 380 -9 385 c 257
 2 391 16 394 31 394 c 256
 44 394 55 395 64 398 c 256
 73 400 81 403 87 408 c 257
 31 470 l 257
 23 463 10 457 -9 454 c 258
 -45 449 l 257
 -50 449 -55 451 -60 455 c 257
 -64 460 -66 465 -66 470 c 256
 -66 479 -55 488 -33 499 c 256
 -11 510 9 515 26 515 c 256
 43 515 68 508 99 493 c 256
 131 478 156 470 173 470 c 256
 187 470 201 473 216 479 c 256
 231 486 245 495 259 506 c 257
 188 571 l 257
 181 563 172 557 161 553 c 256
 149 548 136 545 122 545 c 256
 105 545 79 550 46 561 c 256
 13 572 -13 577 -30 577 c 256
 -59 577 -89 567 -118 546 c 256
 -147 525 -162 505 -162 485 c 256
NamedP: "hr00"
EndSplineSet
PickledDataWithLists: "(dp1
S'com.adobe.type.autohint'
p2
(S'data'
S'<data>\\n  <hintSetList>\\n    <hintset pointTag=\"hr00\">\\n      <hstem pos=\"307\" width=\"41\"/>\\n      <hstem pos=\"394\" width=\"55\"/>\\n      <hstem pos=\"470\" width=\"75\"/>\\n      <hstem pos=\"515\" width=\"62\"/>\\n      <vstem pos=\"-162\" width=\"421\"/>\\n    </hintset>\\n  </hintSetList>\\n  </data>'
Ntp3
s."
EndChar

StartChar: uni0C55
Encoding: 185 3157 185
GlifName: uni0C55_
Width: 209
VWidth: 0
Flags: W
LayerCount: 2
Back
Fore
SplineSet
66 524 m 257
NamedP: "hr00"
 61 545 l 257
 61 557 69 571 85 587 c 256
 101 603 115 611 126 611 c 256
 132 611 138 609 144 604 c 256
 150 600 153 595 153 590 c 256
 153 584 150 578 145 571 c 256
 141 565 135 560 126 555 c 257
 183 510 l 257
 192 515 199 523 205 532 c 256
 210 540 213 549 213 560 c 256
 213 585 200 610 175 636 c 256
 149 663 124 677 101 677 c 256
 80 677 58 667 34 646 c 256
 11 625 0 605 0 586 c 256
 0 578 3 566 10 551 c 257
 66 524 l 257
NamedP: "hr00"
EndSplineSet
PickledDataWithLists: "(dp1
S'com.adobe.type.autohint'
p2
(S'data'
S'<data>\\n  <hintSetList>\\n    <hintset pointTag=\"hr00\">\\n      <hstem pos=\"510\" width=\"167\"/>\\n      <hstem pos=\"611\" width=\"66\"/>\\n      <vstem pos=\"0\" width=\"213\"/>\\n      <vstem pos=\"0\" width=\"61\"/>\\n      <vstem pos=\"153\" width=\"60\"/>\\n    </hintset>\\n  </hintSetList>\\n  </data>'
Ntp3
s."
EndChar

StartChar: tvam
Encoding: 186 3158 186
GlifName: tvam
Width: 27
VWidth: 0
Flags: W
LayerCount: 2
Back
Fore
SplineSet
588 -251 m 256
NamedP: "hr00"
 614 -251 638 -254 659 -260 c 256
 680 -266 697 -275 712 -287 c 257
 786 -243 l 257
 770 -224 750 -209 726 -199 c 256
 701 -188 675 -184 647 -184 c 256
 620 -184 580 -192 529 -207 c 256
 478 -222 438 -230 411 -230 c 256
 371 -230 336 -222 307 -205 c 256
 278 -189 264 -170 264 -148 c 256
 264 -142 268 -137 275 -132 c 257
 282 -129 290 -127 301 -127 c 256
 317 -127 331 -130 343 -137 c 256
 354 -144 360 -153 360 -163 c 256
 360 -168 359 -172 356 -175 c 256
 353 -179 350 -182 346 -184 c 257
 367 -199 l 257
 387 -192 403 -184 416 -173 c 256
 428 -164 434 -156 434 -148 c 256
 434 -128 425 -111 406 -97 c 256
 387 -82 364 -75 338 -75 c 256
 304 -75 270 -87 236 -111 c 256
 201 -136 184 -160 184 -184 c 256
 184 -211 201 -237 236 -260 c 256
 269 -283 305 -295 346 -295 c 256
 373 -295 414 -288 467 -273 c 256
 520 -258 561 -251 588 -251 c 256
NamedP: "hr00"
EndSplineSet
PickledDataWithLists: "(dp1
S'com.adobe.type.autohint'
p2
(S'data'
S'<data>\\n  <hintSetList>\\n    <hintset pointTag=\"hr00\">\\n      <hstem pos=\"-295\" width=\"65\"/>\\n      <hstem pos=\"-251\" width=\"67\"/>\\n      <hstem pos=\"-127\" width=\"52\"/>\\n      <vstem pos=\"184\" width=\"602\"/>\\n      <vstem pos=\"184\" width=\"80\"/>\\n      <vstem pos=\"360\" width=\"74\"/>\\n    </hintset>\\n  </hintSetList>\\n  </data>'
Ntp3
s."
EndChar

StartChar: CaNukta
Encoding: 187 3160 187
GlifName: CaNukta_
Width: 799
VWidth: 0
Flags: W
LayerCount: 2
Back
Fore
SplineSet
212 599 m 256
NamedP: "hr00"
 239 599 280 592 333 577 c 256
 386 562 427 555 454 555 c 256
 495 555 531 567 564 590 c 256
 599 613 616 639 616 666 c 256
 616 690 599 714 564 739 c 256
 530 763 496 775 462 775 c 256
 436 775 413 768 394 753 c 256
 375 739 366 722 366 702 c 256
 366 694 372 686 384 677 c 256
 397 666 413 658 433 651 c 257
 454 666 l 257
 450 668 447 671 444 675 c 256
 441 678 440 682 440 687 c 256
 440 697 446 706 457 713 c 256
 469 720 483 723 499 723 c 256
 510 723 518 721 525 718 c 257
 532 713 536 708 536 702 c 256
 536 680 522 661 493 645 c 256
 464 628 429 620 389 620 c 256
 362 620 322 628 271 643 c 256
 220 658 180 666 153 666 c 256
 125 666 99 662 74 651 c 256
 50 641 30 626 14 607 c 257
 88 563 l 257
 103 575 120 584 141 590 c 256
 162 596 186 599 212 599 c 256
NamedP: "hr00"
457 425 m 257
 466 431 475 436 485 442 c 256
 524 464 571 481 624 490 c 256
 663 497 697 506 724 519 c 256
 752 532 771 547 782 563 c 257
 660 642 l 257
 645 615 625 592 598 574 c 256
 572 556 542 545 509 539 c 256
 456 530 410 515 370 494 c 256
 330 473 299 447 277 417 c 257
 399 362 l 257
 408 377 l 257
 432 377 l 258
 473 377 513 360 553 325 c 256
 594 290 614 254 614 219 c 256
 614 183 603 150 581 119 c 256
 560 88 536 73 511 73 c 256
 500 73 490 76 481 81 c 256
 472 87 465 95 462 104 c 257
 465 111 470 118 477 125 c 256
 483 131 490 136 499 140 c 257
 426 207 l 257
 416 207 406 200 394 187 c 256
 382 173 369 157 358 134 c 256
 349 116 338 101 325 89 c 256
 312 78 299 73 286 73 c 256
 276 73 267 76 259 81 c 257
 252 88 249 95 249 104 c 256
 249 121 257 140 274 159 c 256
 290 178 312 196 341 213 c 257
 292 268 l 257
 273 255 253 249 231 249 c 256
 212 249 186 254 152 264 c 256
 117 274 91 279 73 279 c 256
 58 279 44 276 31 269 c 257
 19 264 9 255 0 243 c 257
 60 183 l 257
 69 190 79 196 88 201 c 257
 98 205 107 207 115 207 c 256
 122 207 131 205 143 201 c 257
 154 196 163 194 170 194 c 258
 194 194 l 257
 178 179 167 164 158 149 c 256
 150 135 145 122 145 109 c 256
 145 83 166 58 209 35 c 256
 251 12 295 0 341 0 c 256
 354 0 367 5 382 15 c 256
 397 24 411 38 426 55 c 257
 447 38 469 24 494 14 c 256
 518 5 542 0 565 0 c 256
 600 0 635 23 670 69 c 256
 706 116 724 162 724 207 c 256
 724 250 689 297 620 348 c 256
 561 393 506 418 457 425 c 257
EndSplineSet
PickledDataWithLists: "(dp1
S'com.adobe.type.autohint'
p2
(S'data'
S'<data>\\n  <hintSetList>\\n    <hintset pointTag=\"hr00\">\\n      <hstem pos=\"0\" width=\"73\"/>\\n      <hstem pos=\"194\" width=\"55\"/>\\n      <hstem pos=\"207\" width=\"72\"/>\\n      <hstem pos=\"377\" width=\"48\"/>\\n      <hstem pos=\"555\" width=\"65\"/>\\n      <hstem pos=\"599\" width=\"67\"/>\\n      <hstem pos=\"723\" width=\"52\"/>\\n      <vstem pos=\"145\" width=\"104\"/>\\n      <vstem pos=\"366\" width=\"74\"/>\\n      <vstem pos=\"536\" width=\"80\"/>\\n      <vstem pos=\"614\" width=\"110\"/>\\n    </hintset>\\n  </hintSetList>\\n  </data>'
Ntp3
s."
EndChar

StartChar: JaNukta
Encoding: 188 3161 188
GlifName: JaNukta_
Width: 636
VWidth: 0
Flags: W
LayerCount: 2
Back
Fore
SplineSet
202 569 m 256
NamedP: "hr00"
 229 569 270 562 323 547 c 256
 376 532 417 525 444 525 c 256
 485 525 521 537 554 560 c 256
 589 583 606 609 606 636 c 256
 606 660 589 684 554 709 c 256
 520 733 486 745 452 745 c 256
 426 745 403 738 384 723 c 256
 365 709 356 692 356 672 c 256
 356 664 362 656 374 647 c 256
 387 636 403 628 423 621 c 257
 444 636 l 257
 440 638 437 641 434 645 c 256
 431 648 430 652 430 657 c 256
 430 667 436 676 447 683 c 256
 459 690 473 693 489 693 c 256
 500 693 508 691 515 688 c 257
 522 683 526 678 526 672 c 256
 526 650 512 631 483 615 c 256
 454 598 419 590 379 590 c 256
 352 590 312 598 261 613 c 256
 210 628 170 636 143 636 c 256
 115 636 89 632 64 621 c 256
 40 611 20 596 4 577 c 257
 78 533 l 257
 93 545 110 554 131 560 c 256
 152 566 176 569 202 569 c 256
NamedP: "hr00"
370 255 m 256
 402 255 431 265 458 284 c 256
 485 303 498 324 498 346 c 256
 498 357 490 370 476 385 c 256
 461 401 455 414 455 425 c 256
 455 428 457 431 461 435 c 257
 466 438 473 441 480 444 c 257
 406 486 l 257
 395 479 387 472 380 464 c 256
 373 455 370 446 370 438 c 256
 370 428 377 417 391 404 c 256
 406 391 413 380 413 370 c 256
 413 353 404 339 386 328 c 256
 368 316 346 310 321 310 c 256
 302 310 282 314 261 321 c 257
 243 354 223 379 201 398 c 256
 180 416 159 425 140 425 c 256
 113 425 88 417 65 400 c 256
 42 383 30 365 30 346 c 256
 30 336 34 325 43 314 c 256
 52 301 64 290 79 279 c 257
 115 304 l 257
 106 313 l 257
 105 316 104 319 104 321 c 256
 104 330 109 338 120 346 c 257
 130 355 140 359 151 359 c 256
 158 359 164 356 169 351 c 256
 174 346 176 341 176 334 c 256
 176 327 171 318 161 306 c 256
 153 295 140 283 121 268 c 256
 100 250 84 232 73 215 c 256
 61 198 55 183 55 170 c 256
 55 135 73 98 110 59 c 256
 146 20 180 0 213 0 c 256
 233 0 253 5 274 16 c 256
 295 27 315 42 334 61 c 257
 357 41 381 26 406 16 c 256
 432 5 457 0 480 0 c 256
 519 0 551 10 578 31 c 256
 605 53 619 79 619 109 c 256
 619 119 614 133 604 151 c 256
 594 170 589 184 589 194 c 256
 589 199 591 203 595 208 c 256
 600 213 607 216 614 219 c 257
 523 268 l 257
 515 263 509 256 504 249 c 256
 500 242 498 234 498 225 c 256
 498 216 503 204 513 189 c 256
 524 173 529 160 529 151 c 256
 529 130 519 110 499 95 c 256
 478 79 454 73 425 73 c 256
 410 73 397 76 385 81 c 256
 374 86 365 94 359 104 c 257
 368 119 380 131 395 140 c 257
 321 206 l 257
 309 206 297 201 284 189 c 256
 270 177 259 160 249 140 c 256
 240 122 229 107 218 95 c 257
 205 84 194 79 183 79 c 256
 170 79 158 84 148 93 c 257
 139 103 134 115 134 128 c 256
 134 139 140 153 151 168 c 256
 163 183 179 198 200 213 c 256
 217 224 230 236 240 248 c 257
 251 259 258 269 261 279 c 257
 289 263 325 255 370 255 c 256
EndSplineSet
PickledDataWithLists: "(dp1
S'com.adobe.type.autohint'
p2
(S'data'
S'<data>\\n  <hintSetList>\\n    <hintset pointTag=\"hr00\">\\n      <hstem pos=\"0\" width=\"73\"/>\\n      <hstem pos=\"0\" width=\"79\"/>\\n      <hstem pos=\"255\" width=\"55\"/>\\n      <hstem pos=\"359\" width=\"66\"/>\\n      <hstem pos=\"525\" width=\"65\"/>\\n      <hstem pos=\"569\" width=\"67\"/>\\n      <hstem pos=\"693\" width=\"52\"/>\\n      <vstem pos=\"4\" width=\"615\"/>\\n      <vstem pos=\"55\" width=\"79\"/>\\n      <vstem pos=\"356\" width=\"74\"/>\\n      <vstem pos=\"413\" width=\"85\"/>\\n      <vstem pos=\"526\" width=\"80\"/>\\n      <vstem pos=\"529\" width=\"90\"/>\\n    </hintset>\\n  </hintSetList>\\n  </data>'
Ntp3
s."
EndChar

